<svg width="24" height="24" viewBox="0 0 24 24" fill="none" xmlns="http://www.w3.org/2000/svg">
<rect width="24" height="24" fill="white" fill-opacity="0.1"/>
<path d="M10.1312 12C10.1312 10.9679 10.9679 10.1312 12 10.1312C13.0321 10.1312 13.8687 10.9679 13.8687 12C13.8687 13.0321 13.0321 13.8687 12 13.8687C10.9679 13.8687 10.1312 13.0321 10.1312 12Z" fill="white" fill-opacity="0.3"/>
<path fill-rule="evenodd" clip-rule="evenodd" d="M12 17.75C15.1756 17.75 17.75 15.1756 17.75 12C17.75 8.82436 15.1756 6.25 12 6.25C8.82436 6.25 6.25 8.82436 6.25 12C6.25 15.1756 8.82436 17.75 12 17.75ZM12 9.26875C10.4916 9.26875 9.26875 10.4916 9.26875 12C9.26875 13.5084 10.4916 14.7312 12 14.7312C13.5084 14.7312 14.7312 13.5084 14.7312 12C14.7312 10.4916 13.5084 9.26875 12 9.26875Z" fill="white" fill-opacity="0.2"/>
</svg>
