<?xml version="1.0" encoding="UTF-8"?>
<svg width="72px" height="72px" viewBox="0 0 72 72" version="1.1" xmlns="http://www.w3.org/2000/svg" xmlns:xlink="http://www.w3.org/1999/xlink">
    <title>Filled / Page / page_align_middle</title>
    <g id="Filled-/-Page-/-page_align_middle" stroke="none" fill="none" fill-rule="evenodd" stroke-width="1">
        <g id="Group-2" transform="translate(0, 1)" fill="#FFFFFF">
            <path d="M27.5,12.5 C28.8807119,12.5 30,13.6192881 30,15 L30,55 C30,56.3807119 28.8807119,57.5 27.5,57.5 C26.1192881,57.5 25,56.3807119 25,55 L25,15 C25,13.6192881 26.1192881,12.5 27.5,12.5 Z M44.5,18.5 C45.8807119,18.5 47,19.6192881 47,21 L47,49 C47,50.3807119 45.8807119,51.5 44.5,51.5 C43.1192881,51.5 42,50.3807119 42,49 L42,21 C42,19.6192881 43.1192881,18.5 44.5,18.5 Z M22.85,32.499 L22.85,37.499 L11.5,37.5 C10.1745166,37.5 9.08996133,36.4684641 9.00531768,35.1643757 L9,35 C9,33.6192881 10.1192881,32.5 11.5,32.5 L22.85,32.499 Z M49.15,32.499 L60.5,32.5 C61.8807119,32.5 63,33.6192881 63,35 C63,36.3807119 61.8807119,37.5 60.5,37.5 L49.15,37.499 L49.15,32.499 Z M39.85,32.499 L39.85,37.499 L32.15,37.499 L32.15,32.499 L39.85,32.499 Z" id="Shape" fill-rule="nonzero"></path>
        </g>
    </g>
</svg>