<?xml version="1.0" encoding="UTF-8"?>
<svg width="72px" height="72px" viewBox="0 0 72 72" version="1.1" xmlns="http://www.w3.org/2000/svg" xmlns:xlink="http://www.w3.org/1999/xlink">
    <title>Filled / Page / page_align_bottom</title>
    <g id="Filled-/-Page-/-page_align_bottom" stroke="none" fill="none" fill-rule="nonzero">
        <path d="M12,58 C12,59.3807119 13.1192881,60.5 14.5,60.5 L57.5,60.5 C58.8807119,60.5 60,59.3807119 60,58 C60,56.6192881 58.8807119,55.5 57.5,55.5 L14.5,55.5 C13.1192881,55.5 12,56.6192881 12,58 Z M25.5,14 L25.5,47 C25.5,48.3807119 26.6192881,49.5 28,49.5 C29.3807119,49.5 30.5,48.3807119 30.5,47 L30.5,14 C30.5,12.6192881 29.3807119,11.5 28,11.5 C26.6192881,11.5 25.5,12.6192881 25.5,14 Z M41.5,24 L41.5,47 C41.5,48.3807119 42.6192881,49.5 44,49.5 C45.3807119,49.5 46.5,48.3807119 46.5,47 L46.5,24 C46.5,22.6192881 45.3807119,21.5 44,21.5 C42.6192881,21.5 41.5,22.6192881 41.5,24 Z" id="Shape" fill="#FFFFFF"></path>
    </g>
</svg>