<?xml version="1.0" encoding="UTF-8"?>
<svg width="72px" height="72px" viewBox="0 0 72 72" version="1.1" xmlns="http://www.w3.org/2000/svg" xmlns:xlink="http://www.w3.org/1999/xlink">
    <title>Filled / Page / page_align_right</title>
    <g id="Filled-/-Page-/-page_align_right" stroke="none" fill="none" fill-rule="nonzero">
        <path d="M55.5,15 L55.5,57 C55.5,58.3807119 56.6192881,59.5 58,59.5 C59.3807119,59.5 60.5,58.3807119 60.5,57 L60.5,15 C60.5,13.6192881 59.3807119,12.5 58,12.5 C56.6192881,12.5 55.5,13.6192881 55.5,15 Z M10,27.5 C10,28.8807119 11.1192881,30 12.5,30 L46.5,30 C47.8807119,30 49,28.8807119 49,27.5 C49,26.1192881 47.8807119,25 46.5,25 L12.5,25 C11.1192881,25 10,26.1192881 10,27.5 Z M18,44.5 C18,45.8807119 19.1192881,47 20.5,47 L46.8636364,47 C48.2443482,47 49.3636364,45.8807119 49.3636364,44.5 C49.3636364,43.1192881 48.2443482,42 46.8636364,42 L20.5,42 C19.1192881,42 18,43.1192881 18,44.5 Z" id="Shape" fill="#FFFFFF"></path>
    </g>
</svg>