<?xml version="1.0" encoding="UTF-8"?>
<svg width="72px" height="72px" viewBox="0 0 72 72" version="1.1" xmlns="http://www.w3.org/2000/svg" xmlns:xlink="http://www.w3.org/1999/xlink">
    <title>Filled / Page / page_align_top</title>
    <g id="Filled-/-Page-/-page_align_top" stroke="none" fill="none" fill-rule="nonzero">
        <path d="M12,14 C12,15.3807119 13.1192881,16.5 14.5,16.5 L57.5,16.5 C58.8807119,16.5 60,15.3807119 60,14 C60,12.6192881 58.8807119,11.5 57.5,11.5 L14.5,11.5 C13.1192881,11.5 12,12.6192881 12,14 Z M25.5,26 L25.5,59 C25.5,60.3807119 26.6192881,61.5 28,61.5 C29.3807119,61.5 30.5,60.3807119 30.5,59 L30.5,26 C30.5,24.6192881 29.3807119,23.5 28,23.5 C26.6192881,23.5 25.5,24.6192881 25.5,26 Z M41.5,26 L41.5,49 C41.5,50.3807119 42.6192881,51.5 44,51.5 C45.3807119,51.5 46.5,50.3807119 46.5,49 L46.5,26 C46.5,24.6192881 45.3807119,23.5 44,23.5 C42.6192881,23.5 41.5,24.6192881 41.5,26 Z" id="Shape" fill="#FFFFFF"></path>
    </g>
</svg>