<?xml version="1.0" encoding="UTF-8"?>
<svg width="72px" height="72px" viewBox="0 0 72 72" version="1.1" xmlns="http://www.w3.org/2000/svg" xmlns:xlink="http://www.w3.org/1999/xlink">
    <title>Filled / Page / page_align_center</title>
    <g id="Filled-/-Page-/-page_align_center" stroke="none" fill="none" fill-rule="nonzero">
        <path d="M38.5,49.65 L38.5,60 C38.5,61.3807119 37.3807119,62.5 36,62.5 C34.6192881,62.5 33.5,61.3807119 33.5,60 L33.5,49.65 L38.5,49.65 Z M50.5,42 C51.8807119,42 53,43.1192881 53,44.5 C53,45.8807119 51.8807119,47 50.5,47 L21.5,47 C20.1192881,47 19,45.8807119 19,44.5 C19,43.1192881 20.1192881,42 21.5,42 L50.5,42 Z M38.5,32.65 L38.5,39.349 L33.5,39.349 L33.5,32.65 L38.5,32.65 Z M55.5,25 C56.8807119,25 58,26.1192881 58,27.5 C58,28.8807119 56.8807119,30 55.5,30 L16.5,30 C15.1192881,30 14,28.8807119 14,27.5 C14,26.1192881 15.1192881,25 16.5,25 L55.5,25 Z M36,9.5 C37.3807119,9.5 38.5,10.6192881 38.5,12 L38.5,22.349 L33.5,22.349 L33.5,12 C33.5,10.6192881 34.6192881,9.5 36,9.5 Z" id="Shape" fill="#FFFFFF"></path>
    </g>
</svg>