<?xml version="1.0" encoding="UTF-8"?>
<svg width="72px" height="72px" viewBox="0 0 72 72" version="1.1" xmlns="http://www.w3.org/2000/svg" xmlns:xlink="http://www.w3.org/1999/xlink">
    <title>Filled / Page / page_align_left</title>
    <g id="Filled-/-Page-/-page_align_left" stroke="none" fill="none" fill-rule="nonzero">
        <path d="M23,28 C23,29.3807119 24.1192881,30.5 25.5,30.5 L59.5,30.5 C60.8807119,30.5 62,29.3807119 62,28 C62,26.6192881 60.8807119,25.5 59.5,25.5 L25.5,25.5 C24.1192881,25.5 23,26.6192881 23,28 Z M23,45 C23,46.3807119 24.1192881,47.5 25.5,47.5 L51.8636364,47.5 C53.2443482,47.5 54.3636364,46.3807119 54.3636364,45 C54.3636364,43.6192881 53.2443482,42.5 51.8636364,42.5 L25.5,42.5 C24.1192881,42.5 23,43.6192881 23,45 Z M11.5,15 L11.5,57 C11.5,58.3807119 12.6192881,59.5 14,59.5 C15.3807119,59.5 16.5,58.3807119 16.5,57 L16.5,15 C16.5,13.6192881 15.3807119,12.5 14,12.5 C12.6192881,12.5 11.5,13.6192881 11.5,15 Z" id="Shape" fill="#FFFFFF"></path>
    </g>
</svg>