<?xml version="1.0" encoding="UTF-8"?>
<svg width="24px" height="24px" viewBox="0 0 72 72" version="1.1" xmlns="http://www.w3.org/2000/svg" xmlns:xlink="http://www.w3.org/1999/xlink">
    <title>Filled / Page / page_media</title>
    <g id="Filled-/-Page-/-page_media" stroke="none" fill="none" fill-rule="nonzero">
        <path d="M48.9230769,9.5 C56.4214045,9.5 62.5,15.5785955 62.5,23.0769231 L62.5,48.9230769 C62.5,56.4214045 56.4214045,62.5 48.9230769,62.5 L23.0769231,62.5 C15.5785955,62.5 9.5,56.4214045 9.5,48.9230769 L9.5,23.0769231 C9.5,15.5785955 15.5785955,9.5 23.0769231,9.5 L48.9230769,9.5 Z M46.5639716,36.6044178 L35.0578442,47.8901451 C33.4498651,49.4673233 30.9034035,49.5547227 29.1910723,48.0915039 L24.775381,44.3182139 C24.677575,44.2346369 24.534306,44.2319345 24.4334178,44.3117637 L14.9883677,51.7829691 C16.1660565,55.1137448 19.3428199,57.5 23.0769231,57.5 L48.9230769,57.5 C53.6599807,57.5 57.5,53.6599807 57.5,48.9230769 L57.5,47.183 L46.9430598,36.6064382 C46.8386669,36.5018385 46.6694735,36.5009368 46.5639716,36.6044178 Z M23.0769231,14.5 C18.3400193,14.5 14.4997562,18.3400193 14.4997562,23.0769231 L14.4997562,45.793 L21.3308748,40.3907655 C23.3054019,38.8283941 26.1093801,38.8812839 28.0235835,40.5170061 L31.9840994,43.9013404 L43.0627905,33.0348618 C45.1276134,31.0095906 48.4389688,31.0272381 50.4820881,33.0744021 L57.5,40.106 L57.5,23.0769231 C57.5,18.3400193 53.6599807,14.5 48.9230769,14.5 L23.0769231,14.5 Z M25.3846154,21.2307692 C27.6787213,21.2307692 29.5384615,23.0905095 29.5384615,25.3846154 C29.5384615,27.6787213 27.6787213,29.5384615 25.3846154,29.5384615 C23.0905095,29.5384615 21.2307692,27.6787213 21.2307692,25.3846154 C21.2307692,23.0905095 23.0905095,21.2307692 25.3846154,21.2307692 Z" id="Shape" fill="#FFFFFF"></path>
    </g>
</svg>