<?xml version="1.0" encoding="UTF-8"?>
<svg width="72px" height="72px" viewBox="0 0 72 72" version="1.1" xmlns="http://www.w3.org/2000/svg" xmlns:xlink="http://www.w3.org/1999/xlink">
    <title>Filled / Page / page_audio</title>
    <g id="Filled-/-Page-/-page_audio" stroke="none" fill="none" fill-rule="nonzero">
        <path d="M36,6 C52.5685425,6 66,19.4314575 66,36 C66,52.5685425 52.5685425,66 36,66 C19.4314575,66 6,52.5685425 6,36 C6,19.4314575 19.4314575,6 36,6 Z M36,11.1 C22.2481097,11.1 11.1,22.2481097 11.1,36 C11.1,49.7518903 22.2481097,60.9 36,60.9 C49.7518903,60.9 60.9,49.7518903 60.9,36 C60.9,22.2481097 49.7518903,11.1 36,11.1 Z M37.2475148,22.9798197 L47.7932563,31.416413 C50.7305707,33.7662645 50.7305707,38.2337355 47.7932563,40.583587 L37.2475148,49.0201803 C33.4041486,52.0948732 27.7107898,49.3585034 27.7107898,44.4365933 L27.7107898,27.5634067 C27.7107898,22.6414966 33.4041486,19.9051268 37.2475148,22.9798197 Z M32.676307,27.5634067 L32.676307,44.4365933 C32.676307,45.1948864 33.5534533,45.6164647 34.1455807,45.1427627 L44.6913223,36.7061695 C45.1438591,36.34414 45.1438591,35.65586 44.6913223,35.2938305 L34.1455807,26.8572373 C33.5534533,26.3835353 32.676307,26.8051136 32.676307,27.5634067 Z" id="Shape" fill="#FFFFFF"></path>
    </g>
</svg>
