<?xml version="1.0" encoding="UTF-8"?>
<svg width="24px" height="24px" viewBox="0 0 72 72" version="1.1" xmlns="http://www.w3.org/2000/svg" xmlns:xlink="http://www.w3.org/1999/xlink">
    <title>Filled / Page / page_quote</title>
    <g id="Filled-/-Page-/-page_quote" stroke="none" fill="none" fill-rule="nonzero">
        <path d="M49.100616,36.4641485 C49.9438741,36.2845432 50.6064339,36.1947406 51.0882957,36.1947406 C52.7748118,36.1947406 54.3483915,36.8607766 55.8090349,38.1928487 C57.2696783,39.5249207 58,41.3583907 58,43.6932586 C58,46.0281264 57.2395619,47.9963003 55.7186858,49.5977802 C54.1978097,51.1992601 52.1273101,52 49.5071869,52 C46.4052019,52 43.8829569,50.8250825 41.9404517,48.4752476 C39.9979466,46.1254126 39.026694,42.8551009 39.026694,38.6643124 C39.026694,32.8870112 40.8035592,28.3594629 44.3572895,25.0816676 C47.6342523,22.0591499 51.5386123,20.3665599 56.0703696,20.0038978 C56.6962503,19.9538106 57.2320329,20.4475065 57.2320329,21.0753881 L57.2320329,24.253164 C57.2320329,24.8139161 56.8012814,25.2782243 56.24247,25.3248377 C53.9111668,25.5193038 51.6434852,26.4036252 49.4394251,27.9778018 C46.9247091,29.773854 45.6673511,31.9590508 45.6673511,34.5333923 C45.6673511,36.0001683 46.2696783,36.7335563 47.4743326,36.7335563 C47.7453799,36.7335563 48.2874743,36.6437537 49.100616,36.4641485 Z M24.073922,36.4641485 C24.91718,36.2845432 25.5797399,36.1947406 26.0616016,36.1947406 C27.7481177,36.1947406 29.3216975,36.8607766 30.7823409,38.1928487 C32.2429843,39.5249207 32.973306,41.3583907 32.973306,43.6932586 C32.973306,45.968258 32.220397,47.9214648 30.7145791,49.5528789 C29.2087611,51.184293 27.1307324,52 24.4804928,52 C21.2580424,52 18.705681,50.8101154 16.8234086,48.4303462 C14.9411362,46.0505771 14,42.7952325 14,38.6643124 C14,32.9169454 15.761807,28.3968806 19.2854209,25.1041183 C22.5380539,22.0645835 26.4579071,20.3641717 31.0449806,20.0028829 C31.6707648,19.9535946 32.2053388,20.4476659 32.2053388,21.0753881 L32.2053388,24.247946 C32.2053388,24.8099429 31.7744041,25.2784178 31.2140726,25.3216518 C28.7569178,25.5112406 26.4521585,26.4115911 24.2997947,28.0227031 C21.8603696,29.8486895 20.6406571,32.0189193 20.6406571,34.5333923 C20.6406571,36.0001683 21.2429843,36.7335563 22.4476386,36.7335563 C22.7186858,36.7335563 23.2607803,36.6437537 24.073922,36.4641485 Z" id="Shape" fill="#FFFFFF"></path>
    </g>
</svg>