<?xml version="1.0" encoding="UTF-8"?>
<svg width="24px" height="24px" viewBox="0 0 72 72" version="1.1" xmlns="http://www.w3.org/2000/svg" xmlns:xlink="http://www.w3.org/1999/xlink">
    <title>Filled / Page / page_bulleted</title>
    <g id="Filled-/-Page-/-page_bulleted" stroke="none" fill="none" fill-rule="nonzero">
        <path d="M61,26 C61,27.3807119 59.8807119,28.5 58.5,28.5 L31.28,28.5 C29.8992881,28.5 28.78,27.3807119 28.78,26 C28.78,24.6192881 29.8992881,23.5 31.28,23.5 L58.5,23.5 C59.8807119,23.5 61,24.6192881 61,26 Z M17,31 C19.7614237,31 22,28.7614237 22,26 C22,23.2385763 19.7614237,21 17,21 C14.2385763,21 12,23.2385763 12,26 C12,28.7614237 14.2385763,31 17,31 Z M61,46 C61,47.3807119 59.8807119,48.5 58.5,48.5 L31.28,48.5 C29.8992881,48.5 28.78,47.3807119 28.78,46 C28.78,44.6192881 29.8992881,43.5 31.28,43.5 L58.5,43.5 C59.8807119,43.5 61,44.6192881 61,46 Z M17,51 C19.7614237,51 22,48.7614237 22,46 C22,43.2385763 19.7614237,41 17,41 C14.2385763,41 12,43.2385763 12,46 C12,48.7614237 14.2385763,51 17,51 Z" id="Shape" fill="#FFFFFF"></path>
    </g>
</svg>