<?xml version="1.0" encoding="UTF-8"?>
<svg width="72px" height="72px" viewBox="0 0 72 72" version="1.1" xmlns="http://www.w3.org/2000/svg" xmlns:xlink="http://www.w3.org/1999/xlink">
    <title>Input / input_menu_close</title>
    <g id="Input-/-input_menu_close" stroke="none" fill="none" fill-rule="nonzero">
        <path d="M55.1213203,16.8786797 C56.2928932,18.0502525 56.2928932,19.9497475 55.1213203,21.1213203 L40.2426407,36 L55.1213203,50.8786797 C56.2928932,52.0502525 56.2928932,53.9497475 55.1213203,55.1213203 C53.9497475,56.2928932 52.0502525,56.2928932 50.8786797,55.1213203 L36,40.2426407 L21.1213203,55.1213203 C19.9497475,56.2928932 18.0502525,56.2928932 16.8786797,55.1213203 C15.7071068,53.9497475 15.7071068,52.0502525 16.8786797,50.8786797 L31.7573593,36 L16.8786797,21.1213203 C15.7071068,19.9497475 15.7071068,18.0502525 16.8786797,16.8786797 C18.0502525,15.7071068 19.9497475,15.7071068 21.1213203,16.8786797 L36,31.7573593 L50.8786797,16.8786797 C52.0502525,15.7071068 53.9497475,15.7071068 55.1213203,16.8786797 Z" id="Shape-Copy" fill="#FFFFFF"></path>
    </g>
</svg>