<?xml version="1.0" encoding="UTF-8"?>
<svg width="24px" height="24px" viewBox="0 0 72 72" version="1.1" xmlns="http://www.w3.org/2000/svg" xmlns:xlink="http://www.w3.org/1999/xlink">
    <title>Filled / Page / page_code</title>
    <g id="Filled-/-Page-/-page_code" stroke="none" fill="none" fill-rule="nonzero">
        <path d="M53.8496071,24.500056 L63.6715762,34.2634806 C64.7087604,35.2944827 64.7041788,36.9740446 63.6613852,37.9993728 L53.3910383,48.097704 C52.4065176,49.0657351 50.8236616,49.0523677 49.8556305,48.0678471 C48.8875993,47.0833264 48.9009667,45.5004704 49.8854874,44.5324392 L58.444092,36.1171807 L50.3246573,28.0461424 C49.3454326,27.0727544 49.340701,25.489849 50.314089,24.5106243 C51.287477,23.5313996 52.8703824,23.526668 53.8496071,24.500056 Z M19.1503929,24.500056 L9.32842381,34.2634806 C8.29123957,35.2944827 8.2958212,36.9740446 9.33861485,37.9993728 L19.6089617,48.097704 C20.5934824,49.0657351 22.1763384,49.0523677 23.1443695,48.0678471 C24.1124007,47.0833264 24.0990333,45.5004704 23.1145126,44.5324392 L14.555908,36.1171807 L22.6753427,28.0461424 C23.6545674,27.0727544 23.659299,25.489849 22.685911,24.5106243 C21.712523,23.5313996 20.1296176,23.526668 19.1503929,24.500056 Z M43.5010092,13.6127403 C44.8194563,14.0226946 45.5559353,15.4238407 45.1459811,16.7422878 L32.7084936,56.7422878 C32.2985394,58.0607349 30.8973932,58.7972139 29.5789461,58.3872597 C28.260499,57.9773054 27.52402,56.5761593 27.9339742,55.2577122 L40.3714617,15.2577122 C40.7814159,13.9392651 42.1825621,13.2027861 43.5010092,13.6127403 Z" id="Shape" fill="#FFFFFF"></path>
    </g>
</svg>