<?xml version="1.0" encoding="UTF-8"?>
<svg width="24px" height="24px" viewBox="0 0 72 72" version="1.1" xmlns="http://www.w3.org/2000/svg" xmlns:xlink="http://www.w3.org/1999/xlink">
    <title>Filled / Page / page_toggle</title>
    <g id="Filled-/-Page-/-page_toggle" stroke="none" fill="none" fill-rule="nonzero">
        <path d="M63,26 C63,27.3807119 61.8807119,28.5 60.5,28.5 L32.5,28.5 C31.1192881,28.5 30,27.3807119 30,26 C30,24.6192881 31.1192881,23.5 32.5,23.5 L60.5,23.5 C61.8807119,23.5 63,24.6192881 63,26 Z M63,46 C63,47.3807119 61.8807119,48.5 60.5,48.5 L12.28,48.5 C10.8992881,48.5 9.78,47.3807119 9.78,46 C9.78,44.6192881 10.8992881,43.5 12.28,43.5 L60.5,43.5 C61.8807119,43.5 63,44.6192881 63,46 Z M24.9365366,19.2627864 C25.9086477,20.080434 26.0338651,21.5313201 25.2162175,22.5034312 L18.6104686,30.3570856 C17.6666003,31.4792619 15.9459154,31.5001359 14.9751022,30.4011871 L8.03554741,22.5456951 C7.19455806,21.5937054 7.28454168,20.1402086 8.23653143,19.2992193 C9.18852119,18.4582299 10.6420179,18.5482136 11.4830073,19.5002033 L16.7329042,25.443023 L21.6958919,19.5424673 C22.5135395,18.5703562 23.9644256,18.4451388 24.9365366,19.2627864 Z" id="Shape" fill="#FFFFFF"></path>
    </g>
</svg>