<?xml version="1.0" encoding="UTF-8"?>
<svg width="72px" height="72px" viewBox="0 0 72 72" version="1.1" xmlns="http://www.w3.org/2000/svg" xmlns:xlink="http://www.w3.org/1999/xlink">
    <title>Input / input_delete</title>
    <g id="Input-/-input_delete" stroke="none" fill="none" fill-rule="nonzero">
        <path d="M20.2422723,25.4538069 L23.5430682,57.570066 C23.7141373,59.2345434 25.116319,60.5 26.7895643,60.5 L47.0471428,60.5 C48.720388,60.5 50.1225697,59.2345434 50.2936389,57.570066 L53.5944347,25.4538069 C53.7355959,24.08033 54.9634526,23.0813407 56.3369295,23.2225018 C57.7104064,23.3636629 58.7093957,24.5915196 58.5682346,25.9649965 L55.2674387,58.0812556 C54.8342829,62.2957985 51.2838862,65.5 47.0471428,65.5 L26.7895643,65.5 C22.5528208,65.5 19.0024242,62.2957985 18.5692683,58.0812556 L15.2684724,25.9649965 C15.1273113,24.5915196 16.1263006,23.3636629 17.4997776,23.2225018 C18.8732545,23.0813407 20.1011112,24.08033 20.2422723,25.4538069 Z M33.1474973,29.138909 L34.4793245,51.1560031 C34.5626922,52.5341957 33.5130291,53.7190245 32.1348365,53.8023922 C30.7566438,53.88576 29.571815,52.8360969 29.4884473,51.4579042 L28.1566201,29.4408102 C28.0732524,28.0626175 29.1229154,26.8777887 30.5011081,26.794421 C31.8793008,26.7110533 33.0641296,27.7607163 33.1474973,29.138909 Z M43.3060364,26.795755 L43.4682283,26.7898039 L43.6326251,26.794421 C45.0108178,26.8777887 46.0604809,28.0626175 45.9771132,29.4408102 L44.645286,51.4579042 C44.5619183,52.8360969 43.3770895,53.88576 41.9988968,53.8023922 C40.6207041,53.7190245 39.5710411,52.5341957 39.6544088,51.1560031 L40.9862359,29.138909 C41.0629342,27.8709718 42.0719092,26.881102 43.3060364,26.795755 L43.3060364,26.795755 Z M39.6886541,4.5 C44.5156843,4.5 48.5207696,8.13762702 48.5207696,12.7511571 L48.52,13.594 L60,13.5940171 C61.3807119,13.5940171 62.5,14.7133052 62.5,16.0940171 C62.5,17.474729 61.3807119,18.5940171 60,18.5940171 L14,18.5940171 C12.6192881,18.5940171 11.5,17.474729 11.5,16.0940171 C11.5,14.7133052 12.6192881,13.5940171 14,13.5940171 L25.315,13.594 L25.3159375,12.7511571 C25.3159375,8.13762702 29.3210228,4.5 34.148053,4.5 L39.6886541,4.5 Z M34.148053,9.5 C31.9808216,9.5 30.3159375,11.0121344 30.3159375,12.7511571 L30.315,13.594 L43.52,13.594 L43.5207696,12.7511571 C43.5207696,11.0121344 41.8558855,9.5 39.6886541,9.5 L34.148053,9.5 Z" id="Shape" fill="#FFFFFF"></path>
    </g>
</svg>