<?xml version="1.0" encoding="UTF-8"?>
<svg width="24px" height="24px" viewBox="0 0 72 72" version="1.1" xmlns="http://www.w3.org/2000/svg" xmlns:xlink="http://www.w3.org/1999/xlink">
    <title>Tabs / tabs_emoji_alt</title>
    <g id="Tabs-/-tabs_emoji_alt" stroke="none" fill="none" fill-rule="nonzero">
        <path d="M36,4 C53.673112,4 68,18.326888 68,36 C68,53.673112 53.673112,68 36,68 C18.326888,68 4,53.673112 4,36 C4,18.326888 18.326888,4 36,4 Z M36,9.1 C21.1435402,9.1 9.1,21.1435402 9.1,36 C9.1,50.8564598 21.1435402,62.9 36,62.9 C50.8564598,62.9 62.9,50.8564598 62.9,36 C62.9,21.1435402 50.8564598,9.1 36,9.1 Z M48.7494032,41.7275646 C49.8619095,42.4977613 50.1394063,44.0239936 49.3692096,45.1364999 C45.8385442,50.2363499 41.3280992,52.9016129 36,52.9016129 C30.6719008,52.9016129 26.1614558,50.2363499 22.6307904,45.1364999 C21.8605937,44.0239936 22.1380905,42.4977613 23.2505968,41.7275646 C24.3631032,40.9573679 25.8893355,41.2348647 26.6595322,42.347371 C29.3224152,46.1937576 32.3818626,48.0016129 36,48.0016129 C39.6181374,48.0016129 42.6775848,46.1937576 45.3404678,42.347371 C46.1106645,41.2348647 47.6368968,40.9573679 48.7494032,41.7275646 Z M26.1935484,26.1935484 C28.1888997,26.1935484 29.8064516,28.2732579 29.8064516,30.8387097 C29.8064516,33.4041614 28.1888997,35.483871 26.1935484,35.483871 C24.198197,35.483871 22.5806452,33.4041614 22.5806452,30.8387097 C22.5806452,28.2732579 24.198197,26.1935484 26.1935484,26.1935484 Z M45.8064516,26.1935484 C47.801803,26.1935484 49.4193548,28.2732579 49.4193548,30.8387097 C49.4193548,33.4041614 47.801803,35.483871 45.8064516,35.483871 C43.8111003,35.483871 42.1935484,33.4041614 42.1935484,30.8387097 C42.1935484,28.2732579 43.8111003,26.1935484 45.8064516,26.1935484 Z" id="Shape" fill="#FFFFFF"></path>
    </g>
</svg>