<?xml version="1.0" encoding="UTF-8"?>
<svg width="72px" height="72px" viewBox="0 0 72 72" version="1.1" xmlns="http://www.w3.org/2000/svg" xmlns:xlink="http://www.w3.org/1999/xlink">
    <title>General / menu_text_expand2</title>
    <g id="General-/-menu_text_expand2" stroke="none" fill="none" fill-rule="nonzero">
        <path d="M61.55,44.6666667 L61.55,51.5666667 C61.55,57.6325942 57.6325942,61.55 51.5666667,61.55 L44.6666667,61.55 C43.2583406,61.55 42.1166667,60.4083261 42.1166667,59 C42.1166667,57.5916739 43.2583406,56.45 44.6666667,56.45 L51.5666667,56.45 C54.8159419,56.45 56.45,54.8159419 56.45,51.5666667 L56.45,44.6666667 C56.45,43.2583406 57.5916739,42.1166667 59,42.1166667 C60.4083261,42.1166667 61.55,43.2583406 61.55,44.6666667 Z M15.55,44.6666667 L15.55,51.5666667 C15.55,54.8159419 17.1840581,56.45 20.4333333,56.45 L27.3333333,56.45 C28.7416594,56.45 29.8833333,57.5916739 29.8833333,59 C29.8833333,60.4083261 28.7416594,61.55 27.3333333,61.55 L20.4333333,61.55 C14.3674058,61.55 10.45,57.6325942 10.45,51.5666667 L10.45,44.6666667 C10.45,43.2583406 11.5916739,42.1166667 13,42.1166667 C14.4083261,42.1166667 15.55,43.2583406 15.55,44.6666667 Z M61.55,20.4333333 L61.55,27.3333333 C61.55,28.7416594 60.4083261,29.8833333 59,29.8833333 C57.5916739,29.8833333 56.45,28.7416594 56.45,27.3333333 L56.45,20.4333333 C56.45,17.1840581 54.8159419,15.55 51.5666667,15.55 L44.6666667,15.55 C43.2583406,15.55 42.1166667,14.4083261 42.1166667,13 C42.1166667,11.5916739 43.2583406,10.45 44.6666667,10.45 L51.5666667,10.45 C57.6325942,10.45 61.55,14.3674058 61.55,20.4333333 Z M30.65,13 C30.65,14.4083261 29.5083261,15.55 28.1,15.55 L20.4333333,15.55 C17.1840581,15.55 15.55,17.1840581 15.55,20.4333333 L15.55,27.3333333 C15.55,28.7416594 14.4083261,29.8833333 13,29.8833333 C11.5916739,29.8833333 10.45,28.7416594 10.45,27.3333333 L10.45,20.4333333 C10.45,14.3674058 14.3674058,10.45 20.4333333,10.45 L28.1,10.45 C29.5083261,10.45 30.65,11.5916739 30.65,13 Z" id="Shape-Copy" fill="#FFFFFF"></path>
    </g>
</svg>