<?xml version="1.0" encoding="UTF-8"?>
<svg width="72px" height="72px" viewBox="0 0 72 72" version="1.1" xmlns="http://www.w3.org/2000/svg" xmlns:xlink="http://www.w3.org/1999/xlink">
    <title>Filled / Page / page_footer</title>
    <g id="Filled-/-Page-/-page_footer" stroke="none" fill="none" fill-rule="nonzero">
        <path d="M62,36.0001 C62,37.3808119 60.8807119,38.5001 59.5,38.5001 L14.28,38.5001 C12.8992881,38.5001 11.78,37.3808119 11.78,36.0001 C11.78,34.6193881 12.8992881,33.5001 14.28,33.5001 L59.5,33.5001 C60.8807119,33.5001 62,34.6193881 62,36.0001 Z M62,20 C62,21.3807119 60.8807119,22.5 59.5,22.5 L14.28,22.5 C12.8992881,22.5 11.78,21.3807119 11.78,20 C11.78,18.6192881 12.8992881,17.5 14.28,17.5 L59.5,17.5 C60.8807119,17.5 62,18.6192881 62,20 Z M50,52.0002 C50,53.3809119 48.8807119,54.5002 47.5,54.5002 L14.28,54.5002 C12.8992881,54.5002 11.78,53.3809119 11.78,52.0002 C11.78,50.6194881 12.8992881,49.5002 14.28,49.5002 L47.5,49.5002 C48.8807119,49.5002 50,50.6194881 50,52.0002 Z" id="Shape" fill="#FFFFFF"></path>
    </g>
</svg>