<?xml version="1.0" encoding="UTF-8"?>
<svg width="24px" height="24px" viewBox="0 0 72 72" version="1.1" xmlns="http://www.w3.org/2000/svg" xmlns:xlink="http://www.w3.org/1999/xlink">
    <title>Filled / Page / Heading 4</title>
    <g id="Filled-/-Page-/-Heading-4" stroke="none" fill="none" fill-rule="evenodd" stroke-width="1">
        <g id="Group-2" transform="translate(7, 5)" fill="#FFFFFF">
            <path d="M2.70625868,50.715026 L2.70361328,50.4472656 C2.70361328,49.6363932 2.93652344,48.9980469 3.40234375,48.5322266 C3.54036458,48.3942057 3.81640625,48.3251953 4.23046875,48.3251953 L4.30810547,48.3251953 C4.37711589,48.3424479 4.4547526,48.3510742 4.54101562,48.3510742 C4.93782552,48.3510742 5.34326172,48.3251953 5.75732422,48.2734375 C6.25764974,48.2389323 6.64583333,48.1785482 6.921875,48.0922852 C7.40494792,47.9370117 7.64648438,47.6523438 7.64648438,47.2382812 L7.64648438,17.1152344 C7.64648438,16.8391927 7.53434245,16.7011719 7.31005859,16.7011719 L3.09179688,16.7011719 C2.60872396,16.7011719 2.28092448,16.2439779 2.10839844,15.3295898 C2.07389323,15.0880534 2.04801432,14.8551432 2.03076172,14.6308594 C2.03076172,13.5784505 2.25504557,13.0522461 2.70361328,13.0522461 L18.0239258,13.0522461 C18.4552409,13.0522461 18.6708984,13.6560872 18.6708984,14.8637695 C18.6708984,16.0887044 18.3689779,16.7011719 17.7651367,16.7011719 L13.1069336,16.7011719 L13.1069336,30.0546875 L28.8930664,30.0546875 L28.8930664,17.1152344 C28.8930664,16.8391927 28.7895508,16.7011719 28.5825195,16.7011719 L24.3383789,16.7011719 C23.8380534,16.7011719 23.5016276,16.2439779 23.3291016,15.3295898 C23.2945964,15.0880534 23.2773438,14.8551432 23.2773438,14.6308594 C23.2773438,13.5784505 23.5102539,13.0522461 23.9760742,13.0522461 L39.2705078,13.0522461 C39.7018229,13.0522461 39.9174805,13.6560872 39.9174805,14.8637695 C39.9174805,16.0887044 39.6155599,16.7011719 39.0117188,16.7011719 L34.3535156,16.7011719 L34.3535156,48.3510742 L38.7011719,48.3510742 C39.1669922,48.3510742 39.3999023,48.8772786 39.3999023,49.9296875 C39.3999023,50.7750651 39.2661947,51.3314616 38.9987793,51.598877 C38.7313639,51.8662923 38.5113932,52 38.3388672,52 L24.597168,52 C24.1831055,52 23.9760742,51.5083008 23.9760742,50.5249023 C23.9760742,49.6450195 24.2089844,48.9807943 24.6748047,48.5322266 C24.8128255,48.3942057 25.0888672,48.3251953 25.5029297,48.3251953 L25.5805664,48.3251953 C25.6495768,48.3424479 25.7272135,48.3510742 25.8134766,48.3510742 C26.2102865,48.3510742 26.6157227,48.3251953 27.0297852,48.2734375 C27.5128581,48.2389323 27.8924154,48.1785482 28.168457,48.0922852 C28.6515299,47.9370117 28.8930664,47.6523438 28.8930664,47.2382812 L28.8930664,34.0400391 L13.1069336,34.0400391 L13.1069336,48.3510742 L17.4545898,48.3510742 C17.9031576,48.3510742 18.1274414,48.8772786 18.1274414,49.9296875 C18.1274414,50.7578125 17.9980469,51.3098958 17.7392578,51.5859375 C17.4804688,51.8619792 17.2561849,52 17.0664062,52 L3.29882812,52 C2.92847222,52 2.73094907,51.5716753 2.70625868,50.715026 Z M53.144,52 L53.144,46.624 L43.768,46.624 C43.4693333,46.624 43.192,46.528 42.936,46.336 C42.68,46.144 42.52,45.9093333 42.456,45.632 L41.944,43.168 L52.728,28.672 L57.464,28.672 L57.464,42.944 L59.864,42.944 L59.864,45.728 C59.864,45.9626667 59.784,46.1706667 59.624,46.352 C59.464,46.5333333 59.224,46.624 58.904,46.624 L57.464,46.624 L57.464,52 L53.144,52 Z M53.192,35.648 C53.224,35.2213333 53.2613333,34.7733333 53.304,34.304 L47.16,42.944 L53.144,42.944 L53.144,36.864 C53.144,36.48 53.16,36.0746667 53.192,35.648 Z" id="Shape" fill-rule="nonzero"></path>
        </g>
    </g>
</svg>