<?xml version="1.0" encoding="UTF-8"?>
<svg width="72px" height="72px" viewBox="0 0 72 72" version="1.1" xmlns="http://www.w3.org/2000/svg" xmlns:xlink="http://www.w3.org/1999/xlink">
    <title>Filled / Page / Heading 5</title>
    <g id="Filled-/-Page-/-Heading-5" stroke="none" fill="none" fill-rule="nonzero">
        <path d="M9.70625868,55.715026 L9.70361328,55.4472656 C9.70361328,54.6363932 9.93652344,53.9980469 10.4023438,53.5322266 C10.5403646,53.3942057 10.8164062,53.3251953 11.2304688,53.3251953 L11.3081055,53.3251953 C11.3771159,53.3424479 11.4547526,53.3510742 11.5410156,53.3510742 C11.9378255,53.3510742 12.3432617,53.3251953 12.7573242,53.2734375 C13.2576497,53.2389323 13.6458333,53.1785482 13.921875,53.0922852 C14.4049479,52.9370117 14.6464844,52.6523438 14.6464844,52.2382812 L14.6464844,22.1152344 C14.6464844,21.8391927 14.5343424,21.7011719 14.3100586,21.7011719 L10.0917969,21.7011719 C9.60872396,21.7011719 9.28092448,21.2439779 9.10839844,20.3295898 C9.07389323,20.0880534 9.04801432,19.8551432 9.03076172,19.6308594 C9.03076172,18.5784505 9.25504557,18.0522461 9.70361328,18.0522461 L25.0239258,18.0522461 C25.4552409,18.0522461 25.6708984,18.6560872 25.6708984,19.8637695 C25.6708984,21.0887044 25.3689779,21.7011719 24.7651367,21.7011719 L20.1069336,21.7011719 L20.1069336,35.0546875 L35.8930664,35.0546875 L35.8930664,22.1152344 C35.8930664,21.8391927 35.7895508,21.7011719 35.5825195,21.7011719 L31.3383789,21.7011719 C30.8380534,21.7011719 30.5016276,21.2439779 30.3291016,20.3295898 C30.2945964,20.0880534 30.2773438,19.8551432 30.2773438,19.6308594 C30.2773438,18.5784505 30.5102539,18.0522461 30.9760742,18.0522461 L46.2705078,18.0522461 C46.7018229,18.0522461 46.9174805,18.6560872 46.9174805,19.8637695 C46.9174805,21.0887044 46.6155599,21.7011719 46.0117188,21.7011719 L41.3535156,21.7011719 L41.3535156,53.3510742 L45.7011719,53.3510742 C46.1669922,53.3510742 46.3999023,53.8772786 46.3999023,54.9296875 C46.3999023,55.7750651 46.2661947,56.3314616 45.9987793,56.598877 C45.7313639,56.8662923 45.5113932,57 45.3388672,57 L31.597168,57 C31.1831055,57 30.9760742,56.5083008 30.9760742,55.5249023 C30.9760742,54.6450195 31.2089844,53.9807943 31.6748047,53.5322266 C31.8128255,53.3942057 32.0888672,53.3251953 32.5029297,53.3251953 L32.5805664,53.3251953 C32.6495768,53.3424479 32.7272135,53.3510742 32.8134766,53.3510742 C33.2102865,53.3510742 33.6157227,53.3251953 34.0297852,53.2734375 C34.5128581,53.2389323 34.8924154,53.1785482 35.168457,53.0922852 C35.6515299,52.9370117 35.8930664,52.6523438 35.8930664,52.2382812 L35.8930664,39.0400391 L20.1069336,39.0400391 L20.1069336,53.3510742 L24.4545898,53.3510742 C24.9031576,53.3510742 25.1274414,53.8772786 25.1274414,54.9296875 C25.1274414,55.7578125 24.9980469,56.3098958 24.7392578,56.5859375 C24.4804688,56.8619792 24.2561849,57 24.0664062,57 L10.2988281,57 C9.92847222,57 9.73094907,56.5716753 9.70625868,55.715026 Z M53.648,51.816 L54.196,52.088 C54.3853333,52.184 54.5813333,52.2853333 54.784,52.392 C55.1893333,52.6053333 55.6053333,52.7973333 56.032,52.968 C56.4586667,53.1386667 56.896,53.224 57.344,53.224 C58.2186667,53.224 58.9226667,53.0426667 59.456,52.68 C59.9893333,52.3173333 60.384,51.8213333 60.64,51.192 C60.896,50.5626667 61.024,49.8533333 61.024,49.064 C61.024,47.9333333 60.704,47.0693333 60.064,46.472 C59.424,45.8746667 58.5173333,45.576 57.344,45.576 C56.256,45.576 55.232,45.7786667 54.272,46.184 L51.2,45.352 L53.184,33.672 L65.12,33.672 L65.12,35.72 C65.12,36.488 64.8746667,37.064 64.384,37.448 C63.8933333,37.832 63.168,38.024 62.208,38.024 L56.64,38.024 L56,41.896 C56.4266667,41.8106667 56.8426667,41.752 57.248,41.72 C57.6533333,41.688 58.048,41.672 58.432,41.672 C60.032,41.672 61.392,41.9813333 62.512,42.6 C63.632,43.2186667 64.4906667,44.0613333 65.088,45.128 C65.6853333,46.1946667 65.984,47.4213333 65.984,48.808 C65.984,50.472 65.6,51.9386667 64.832,53.208 C64.064,54.4773333 63.008,55.4693333 61.664,56.184 C60.32,56.8986667 58.784,57.256 57.056,57.256 C55.6266667,57.256 54.2933333,56.968 53.056,56.392 C51.8186667,55.816 50.7626667,55.112 49.888,54.28 L51.424,52.232 C51.808,51.784 52.224,51.56 52.672,51.56 C52.9706667,51.56 53.296,51.6453333 53.648,51.816 Z" id="Shape" fill="#FFFFFF"></path>
    </g>
</svg>