<?xml version="1.0" encoding="UTF-8"?>
<svg width="24px" height="24px" viewBox="0 0 72 72" version="1.1" xmlns="http://www.w3.org/2000/svg" xmlns:xlink="http://www.w3.org/1999/xlink">
    <title>Filled / Page / Heading 2</title>
    <g id="Filled-/-Page-/-Heading-2" stroke="none" fill="none" fill-rule="nonzero">
        <path d="M9.70625868,55.715026 L9.70361328,55.4472656 C9.70361328,54.6363932 9.93652344,53.9980469 10.4023437,53.5322266 C10.5403646,53.3942057 10.8164062,53.3251953 11.2304687,53.3251953 L11.3081055,53.3251953 C11.3771159,53.3424479 11.4547526,53.3510742 11.5410156,53.3510742 C11.9378255,53.3510742 12.3432617,53.3251953 12.7573242,53.2734375 C13.2576497,53.2389323 13.6458333,53.1785482 13.921875,53.0922852 C14.4049479,52.9370117 14.6464844,52.6523438 14.6464844,52.2382812 L14.6464844,22.1152344 C14.6464844,21.8391927 14.5343424,21.7011719 14.3100586,21.7011719 L10.0917969,21.7011719 C9.60872396,21.7011719 9.28092448,21.2439779 9.10839844,20.3295898 C9.07389323,20.0880534 9.04801432,19.8551432 9.03076172,19.6308594 C9.03076172,18.5784505 9.25504557,18.0522461 9.70361328,18.0522461 L25.0239258,18.0522461 C25.4552409,18.0522461 25.6708984,18.6560872 25.6708984,19.8637695 C25.6708984,21.0887044 25.3689779,21.7011719 24.7651367,21.7011719 L20.1069336,21.7011719 L20.1069336,35.0546875 L35.8930664,35.0546875 L35.8930664,22.1152344 C35.8930664,21.8391927 35.7895508,21.7011719 35.5825195,21.7011719 L31.3383789,21.7011719 C30.8380534,21.7011719 30.5016276,21.2439779 30.3291016,20.3295898 C30.2945964,20.0880534 30.2773437,19.8551432 30.2773437,19.6308594 C30.2773437,18.5784505 30.5102539,18.0522461 30.9760742,18.0522461 L46.2705078,18.0522461 C46.7018229,18.0522461 46.9174805,18.6560872 46.9174805,19.8637695 C46.9174805,21.0887044 46.6155599,21.7011719 46.0117188,21.7011719 L41.3535156,21.7011719 L41.3535156,53.3510742 L45.7011719,53.3510742 C46.1669922,53.3510742 46.3999023,53.8772786 46.3999023,54.9296875 C46.3999023,55.7750651 46.2661947,56.3314616 45.9987793,56.598877 C45.7313639,56.8662923 45.5113932,57 45.3388672,57 L31.597168,57 C31.1831055,57 30.9760742,56.5083008 30.9760742,55.5249023 C30.9760742,54.6450195 31.2089844,53.9807943 31.6748047,53.5322266 C31.8128255,53.3942057 32.0888672,53.3251953 32.5029297,53.3251953 L32.5805664,53.3251953 C32.6495768,53.3424479 32.7272135,53.3510742 32.8134766,53.3510742 C33.2102865,53.3510742 33.6157227,53.3251953 34.0297852,53.2734375 C34.5128581,53.2389323 34.8924154,53.1785482 35.168457,53.0922852 C35.6515299,52.9370117 35.8930664,52.6523438 35.8930664,52.2382812 L35.8930664,39.0400391 L20.1069336,39.0400391 L20.1069336,53.3510742 L24.4545898,53.3510742 C24.9031576,53.3510742 25.1274414,53.8772786 25.1274414,54.9296875 C25.1274414,55.7578125 24.9980469,56.3098958 24.7392578,56.5859375 C24.4804687,56.8619792 24.2561849,57 24.0664062,57 L10.2988281,57 C9.92847222,57 9.73094907,56.5716753 9.70625868,55.715026 Z M53.834,49.44 C54.338,49.048 55.206,48.488 56.438,47.76 C58.23,46.696 59.588,45.73 60.512,44.862 C61.436,43.994 61.898,42.93 61.898,41.67 C61.898,40.802 61.576,40.102 60.932,39.57 C60.288,39.038 59.392,38.772 58.244,38.772 C57.32,38.772 56.382,38.94 55.43,39.276 L54.842,42.426 L51.692,42.426 L51.146,36.588 C54.058,35.636 56.662,35.16 58.958,35.16 C61.534,35.16 63.522,35.727 64.922,36.861 C66.322,37.995 67.022,39.542 67.022,41.502 C67.022,43.378 66.42,44.953 65.216,46.227 C64.012,47.501 62.234,48.712 59.882,49.86 C58.51,50.532 57.537,51.071 56.963,51.477 C56.389,51.883 56.046,52.338 55.934,52.842 L67.19,52.842 L67.19,57 L50.516,57 C50.516,55.068 50.754,53.57 51.23,52.506 C51.706,51.442 52.574,50.42 53.834,49.44 Z" id="Shape" fill="#FFFFFF"></path>
    </g>
</svg>