<?xml version="1.0" encoding="UTF-8"?>
<svg width="24px" height="24px" viewBox="0 0 72 72" version="1.1" xmlns="http://www.w3.org/2000/svg" xmlns:xlink="http://www.w3.org/1999/xlink">
    <title>Filled / Page / Heading 3</title>
    <g id="Filled-/-Page-/-Heading-3" stroke="none" fill="none" fill-rule="nonzero">
        <path d="M9.70625868,55.715026 L9.70361328,55.4472656 C9.70361328,54.6363932 9.93652344,53.9980469 10.4023437,53.5322266 C10.5403646,53.3942057 10.8164062,53.3251953 11.2304687,53.3251953 L11.3081055,53.3251953 C11.3771159,53.3424479 11.4547526,53.3510742 11.5410156,53.3510742 C11.9378255,53.3510742 12.3432617,53.3251953 12.7573242,53.2734375 C13.2576497,53.2389323 13.6458333,53.1785482 13.921875,53.0922852 C14.4049479,52.9370117 14.6464844,52.6523438 14.6464844,52.2382812 L14.6464844,22.1152344 C14.6464844,21.8391927 14.5343424,21.7011719 14.3100586,21.7011719 L10.0917969,21.7011719 C9.60872396,21.7011719 9.28092448,21.2439779 9.10839844,20.3295898 C9.07389323,20.0880534 9.04801432,19.8551432 9.03076172,19.6308594 C9.03076172,18.5784505 9.25504557,18.0522461 9.70361328,18.0522461 L25.0239258,18.0522461 C25.4552409,18.0522461 25.6708984,18.6560872 25.6708984,19.8637695 C25.6708984,21.0887044 25.3689779,21.7011719 24.7651367,21.7011719 L20.1069336,21.7011719 L20.1069336,35.0546875 L35.8930664,35.0546875 L35.8930664,22.1152344 C35.8930664,21.8391927 35.7895508,21.7011719 35.5825195,21.7011719 L31.3383789,21.7011719 C30.8380534,21.7011719 30.5016276,21.2439779 30.3291016,20.3295898 C30.2945964,20.0880534 30.2773437,19.8551432 30.2773437,19.6308594 C30.2773437,18.5784505 30.5102539,18.0522461 30.9760742,18.0522461 L46.2705078,18.0522461 C46.7018229,18.0522461 46.9174805,18.6560872 46.9174805,19.8637695 C46.9174805,21.0887044 46.6155599,21.7011719 46.0117188,21.7011719 L41.3535156,21.7011719 L41.3535156,53.3510742 L45.7011719,53.3510742 C46.1669922,53.3510742 46.3999023,53.8772786 46.3999023,54.9296875 C46.3999023,55.7750651 46.2661947,56.3314616 45.9987793,56.598877 C45.7313639,56.8662923 45.5113932,57 45.3388672,57 L31.597168,57 C31.1831055,57 30.9760742,56.5083008 30.9760742,55.5249023 C30.9760742,54.6450195 31.2089844,53.9807943 31.6748047,53.5322266 C31.8128255,53.3942057 32.0888672,53.3251953 32.5029297,53.3251953 L32.5805664,53.3251953 C32.6495768,53.3424479 32.7272135,53.3510742 32.8134766,53.3510742 C33.2102865,53.3510742 33.6157227,53.3251953 34.0297852,53.2734375 C34.5128581,53.2389323 34.8924154,53.1785482 35.168457,53.0922852 C35.6515299,52.9370117 35.8930664,52.6523438 35.8930664,52.2382812 L35.8930664,39.0400391 L20.1069336,39.0400391 L20.1069336,53.3510742 L24.4545898,53.3510742 C24.9031576,53.3510742 25.1274414,53.8772786 25.1274414,54.9296875 C25.1274414,55.7578125 24.9980469,56.3098958 24.7392578,56.5859375 C24.4804687,56.8619792 24.2561849,57 24.0664062,57 L10.2988281,57 C9.92847222,57 9.73094907,56.5716753 9.70625868,55.715026 Z M49.536,51.016 L51.264,50.296 C51.648,50.136 51.952,50.0293333 52.176,49.976 C52.4,49.9226667 52.6293333,49.896 52.864,49.896 C53.2053333,49.896 53.5146667,49.96 53.792,50.088 C54.0693333,50.216 54.272,50.408 54.4,50.664 C54.7413333,51.2613333 55.0826667,51.7466667 55.424,52.12 C55.7653333,52.4933333 56.1333333,52.7653333 56.528,52.936 C56.9226667,53.1066667 57.3546667,53.192 57.824,53.192 C58.528,53.192 59.1253333,53.048 59.616,52.76 C60.1066667,52.472 60.48,52.088 60.736,51.608 C60.992,51.128 61.12,50.6106667 61.12,50.056 C61.12,49.224 61.0026667,48.5733333 60.768,48.104 C60.5333333,47.6346667 60.0693333,47.2986667 59.376,47.096 C58.6826667,46.8933333 57.6533333,46.792 56.288,46.792 L56.288,43.368 C58.016,43.368 59.2053333,43.128 59.856,42.648 C60.5066667,42.168 60.832,41.3946667 60.832,40.328 C60.832,39.7093333 60.736,39.192 60.544,38.776 C60.352,38.36 60.0586667,38.04 59.664,37.816 C59.2693333,37.592 58.7626667,37.48 58.144,37.48 C57.4613333,37.48 56.864,37.672 56.352,38.056 C55.84,38.44 55.4666667,38.92 55.232,39.496 C55.0613333,39.9866667 54.848,40.3386667 54.592,40.552 C54.336,40.7653333 53.984,40.872 53.536,40.872 C53.3226667,40.872 52.992,40.8346667 52.544,40.76 C52.096,40.6853333 51.3066667,40.5413333 50.176,40.328 C50.5173333,38.0666667 51.44,36.3493333 52.944,35.176 C54.448,34.0026667 56.2773333,33.416 58.432,33.416 C59.8826667,33.416 61.1466667,33.6826667 62.224,34.216 C63.3013333,34.7493333 64.144,35.4693333 64.752,36.376 C65.36,37.2826667 65.664,38.312 65.664,39.464 C65.664,40.4026667 65.536,41.2133333 65.28,41.896 C65.024,42.5786667 64.6453333,43.1386667 64.144,43.576 C63.6426667,44.0133333 62.9973333,44.3706667 62.208,44.648 C63.5093333,45.096 64.48,45.7573333 65.12,46.632 C65.76,47.5066667 66.08,48.5946667 66.08,49.896 C66.08,51.4746667 65.712,52.8133333 64.976,53.912 C64.24,55.0106667 63.2533333,55.8426667 62.016,56.408 C60.7786667,56.9733333 59.4026667,57.256 57.888,57.256 C56.416,57.256 55.1466667,57.032 54.08,56.584 C53.0133333,56.136 52.1173333,55.4533333 51.392,54.536 C50.6666667,53.6186667 50.048,52.4453333 49.536,51.016 Z" id="Shape" fill="#FFFFFF"></path>
    </g>
</svg>