<?xml version="1.0" encoding="UTF-8"?>
<svg width="24px" height="24px" viewBox="0 0 72 72" version="1.1" xmlns="http://www.w3.org/2000/svg" xmlns:xlink="http://www.w3.org/1999/xlink">
    <title>Filled / Page / page_heading_base</title>
    <g id="Filled-/-Page-/-page_heading_base" stroke="none" fill="none" fill-rule="nonzero">
        <path d="M32.2539062,53.1445312 C32.7278646,53.1445312 32.9648438,53.7005208 32.9648438,54.8125 C32.9648438,55.6875 32.828125,56.2708333 32.5546875,56.5625 C32.28125,56.8541667 32.0442708,57 31.84375,57 L17.296875,57 C16.8776042,57 16.6679688,56.4804688 16.6679688,55.4414062 L16.6679688,55.359375 C16.6679688,54.5026042 16.9140625,53.828125 17.40625,53.3359375 C17.5520833,53.1901042 17.84375,53.1171875 18.28125,53.1171875 L18.3632812,53.1171875 C18.4361979,53.1354167 18.5182292,53.1445312 18.609375,53.1445312 C19.0286458,53.1445312 19.4570312,53.1171875 19.8945312,53.0625 C20.4231771,53.0260417 20.8333333,52.9622396 21.125,52.8710938 C21.6354167,52.7070312 21.890625,52.40625 21.890625,51.96875 L21.890625,20.140625 C21.890625,19.8489583 21.7721354,19.703125 21.5351562,19.703125 L17.078125,19.703125 C16.5677083,19.703125 16.2213542,19.2200521 16.0390625,18.2539062 C16.0026042,17.9986979 15.9752604,17.7526042 15.9570312,17.515625 C15.9570312,16.4036458 16.1940104,15.8476562 16.6679688,15.8476562 L32.8554688,15.8476562 C33.3111979,15.8476562 33.5390625,16.4856771 33.5390625,17.7617188 C33.5390625,19.0559896 33.2200521,19.703125 32.5820312,19.703125 L27.6601562,19.703125 L27.6601562,33.8125 L44.3398438,33.8125 L44.3398438,20.140625 C44.3398438,19.8489583 44.2304688,19.703125 44.0117188,19.703125 L39.5273438,19.703125 C38.9986979,19.703125 38.6432292,19.2200521 38.4609375,18.2539062 C38.4244792,17.9986979 38.40625,17.7526042 38.40625,17.515625 C38.40625,16.4036458 38.6523438,15.8476562 39.1445312,15.8476562 L55.3046875,15.8476562 C55.7604167,15.8476562 55.9882812,16.4856771 55.9882812,17.7617188 C55.9882812,19.0559896 55.6692708,19.703125 55.03125,19.703125 L50.109375,19.703125 L50.109375,53.1445312 L54.703125,53.1445312 C55.1953125,53.1445312 55.4414062,53.7005208 55.4414062,54.8125 C55.4414062,55.7057292 55.3001302,56.2936198 55.0175781,56.5761719 C54.735026,56.858724 54.5026042,57 54.3203125,57 L39.8007812,57 C39.3632812,57 39.1445312,56.4804688 39.1445312,55.4414062 C39.1445312,54.5117188 39.390625,53.8098958 39.8828125,53.3359375 C40.0286458,53.1901042 40.3203125,53.1171875 40.7578125,53.1171875 L40.8398438,53.1171875 C40.9127604,53.1354167 40.9947917,53.1445312 41.0859375,53.1445312 C41.5052083,53.1445312 41.9335938,53.1171875 42.3710938,53.0625 C42.8815104,53.0260417 43.2825521,52.9622396 43.5742188,52.8710938 C44.0846354,52.7070312 44.3398438,52.40625 44.3398438,51.96875 L44.3398438,38.0234375 L27.6601562,38.0234375 L27.6601562,53.1445312 L32.2539062,53.1445312 Z" id="Path" fill="#FFFFFF"></path>
    </g>
</svg>