<?xml version="1.0" encoding="UTF-8"?>
<svg width="24px" height="24px" viewBox="0 0 72 72" version="1.1" xmlns="http://www.w3.org/2000/svg" xmlns:xlink="http://www.w3.org/1999/xlink">
    <title>Filled / Page / Heading 1</title>
    <g id="Filled-/-Page-/-Heading-1" stroke="none" fill="none" fill-rule="nonzero">
        <path d="M9.70625868,55.715026 L9.70361328,55.4472656 C9.70361328,54.6363932 9.93652344,53.9980469 10.4023438,53.5322266 C10.5403646,53.3942057 10.8164062,53.3251953 11.2304688,53.3251953 L11.3081055,53.3251953 C11.3771159,53.3424479 11.4547526,53.3510742 11.5410156,53.3510742 C11.9378255,53.3510742 12.3432617,53.3251953 12.7573242,53.2734375 C13.2576497,53.2389323 13.6458333,53.1785482 13.921875,53.0922852 C14.4049479,52.9370117 14.6464844,52.6523438 14.6464844,52.2382812 L14.6464844,22.1152344 C14.6464844,21.8391927 14.5343424,21.7011719 14.3100586,21.7011719 L10.0917969,21.7011719 C9.60872396,21.7011719 9.28092448,21.2439779 9.10839844,20.3295898 C9.07389323,20.0880534 9.04801432,19.8551432 9.03076172,19.6308594 C9.03076172,18.5784505 9.25504557,18.0522461 9.70361328,18.0522461 L25.0239258,18.0522461 C25.4552409,18.0522461 25.6708984,18.6560872 25.6708984,19.8637695 C25.6708984,21.0887044 25.3689779,21.7011719 24.7651367,21.7011719 L20.1069336,21.7011719 L20.1069336,35.0546875 L35.8930664,35.0546875 L35.8930664,22.1152344 C35.8930664,21.8391927 35.7895508,21.7011719 35.5825195,21.7011719 L31.3383789,21.7011719 C30.8380534,21.7011719 30.5016276,21.2439779 30.3291016,20.3295898 C30.2945964,20.0880534 30.2773438,19.8551432 30.2773438,19.6308594 C30.2773438,18.5784505 30.5102539,18.0522461 30.9760742,18.0522461 L46.2705078,18.0522461 C46.7018229,18.0522461 46.9174805,18.6560872 46.9174805,19.8637695 C46.9174805,21.0887044 46.6155599,21.7011719 46.0117188,21.7011719 L41.3535156,21.7011719 L41.3535156,53.3510742 L45.7011719,53.3510742 C46.1669922,53.3510742 46.3999023,53.8772786 46.3999023,54.9296875 C46.3999023,55.7750651 46.2661947,56.3314616 45.9987793,56.598877 C45.7313639,56.8662923 45.5113932,57 45.3388672,57 L31.597168,57 C31.1831055,57 30.9760742,56.5083008 30.9760742,55.5249023 C30.9760742,54.6450195 31.2089844,53.9807943 31.6748047,53.5322266 C31.8128255,53.3942057 32.0888672,53.3251953 32.5029297,53.3251953 L32.5805664,53.3251953 C32.6495768,53.3424479 32.7272135,53.3510742 32.8134766,53.3510742 C33.2102865,53.3510742 33.6157227,53.3251953 34.0297852,53.2734375 C34.5128581,53.2389323 34.8924154,53.1785482 35.168457,53.0922852 C35.6515299,52.9370117 35.8930664,52.6523438 35.8930664,52.2382812 L35.8930664,39.0400391 L20.1069336,39.0400391 L20.1069336,53.3510742 L24.4545898,53.3510742 C24.9031576,53.3510742 25.1274414,53.8772786 25.1274414,54.9296875 C25.1274414,55.7578125 24.9980469,56.3098958 24.7392578,56.5859375 C24.4804688,56.8619792 24.2561849,57 24.0664062,57 L10.2988281,57 C9.92847222,57 9.73094907,56.5716753 9.70625868,55.715026 Z M62.1543906,53.4569063 L65.035,53.766 L65.035,57 L52.015,57 L52.015,53.766 L55.417,53.472 C55.837,53.444 56.11,53.318 56.236,53.094 C56.362,52.87 56.425,52.45 56.425,51.834 L56.425,40.326 L52.561,41.964 L51.049,38.982 L57.559,35.622 L61.297,35.622 L61.297,51.834 C61.297,52.45 61.36,52.87 61.486,53.094 C61.59625,53.29 61.8190469,53.4109688 62.1543906,53.4569063 L62.1543906,53.4569063 Z" id="Shape" fill="#FFFFFF"></path>
    </g>
</svg>