<?xml version="1.0" encoding="UTF-8"?>
<svg width="72px" height="72px" viewBox="0 0 72 72" version="1.1" xmlns="http://www.w3.org/2000/svg" xmlns:xlink="http://www.w3.org/1999/xlink">
    <title>Filled / Page / Heading 6</title>
    <g id="Filled-/-Page-/-Heading-6" stroke="none" fill="none" fill-rule="nonzero">
        <path d="M9.70625868,55.715026 L9.70361328,55.4472656 C9.70361328,54.6363932 9.93652344,53.9980469 10.4023438,53.5322266 C10.5403646,53.3942057 10.8164062,53.3251953 11.2304688,53.3251953 L11.3081055,53.3251953 C11.3771159,53.3424479 11.4547526,53.3510742 11.5410156,53.3510742 C11.9378255,53.3510742 12.3432617,53.3251953 12.7573242,53.2734375 C13.2576497,53.2389323 13.6458333,53.1785482 13.921875,53.0922852 C14.4049479,52.9370117 14.6464844,52.6523438 14.6464844,52.2382812 L14.6464844,22.1152344 C14.6464844,21.8391927 14.5343424,21.7011719 14.3100586,21.7011719 L10.0917969,21.7011719 C9.60872396,21.7011719 9.28092448,21.2439779 9.10839844,20.3295898 C9.07389323,20.0880534 9.04801432,19.8551432 9.03076172,19.6308594 C9.03076172,18.5784505 9.25504557,18.0522461 9.70361328,18.0522461 L25.0239258,18.0522461 C25.4552409,18.0522461 25.6708984,18.6560872 25.6708984,19.8637695 C25.6708984,21.0887044 25.3689779,21.7011719 24.7651367,21.7011719 L20.1069336,21.7011719 L20.1069336,35.0546875 L35.8930664,35.0546875 L35.8930664,22.1152344 C35.8930664,21.8391927 35.7895508,21.7011719 35.5825195,21.7011719 L31.3383789,21.7011719 C30.8380534,21.7011719 30.5016276,21.2439779 30.3291016,20.3295898 C30.2945964,20.0880534 30.2773438,19.8551432 30.2773438,19.6308594 C30.2773438,18.5784505 30.5102539,18.0522461 30.9760742,18.0522461 L46.2705078,18.0522461 C46.7018229,18.0522461 46.9174805,18.6560872 46.9174805,19.8637695 C46.9174805,21.0887044 46.6155599,21.7011719 46.0117188,21.7011719 L41.3535156,21.7011719 L41.3535156,53.3510742 L45.7011719,53.3510742 C46.1669922,53.3510742 46.3999023,53.8772786 46.3999023,54.9296875 C46.3999023,55.7750651 46.2661947,56.3314616 45.9987793,56.598877 C45.7313639,56.8662923 45.5113932,57 45.3388672,57 L31.597168,57 C31.1831055,57 30.9760742,56.5083008 30.9760742,55.5249023 C30.9760742,54.6450195 31.2089844,53.9807943 31.6748047,53.5322266 C31.8128255,53.3942057 32.0888672,53.3251953 32.5029297,53.3251953 L32.5805664,53.3251953 C32.6495768,53.3424479 32.7272135,53.3510742 32.8134766,53.3510742 C33.2102865,53.3510742 33.6157227,53.3251953 34.0297852,53.2734375 C34.5128581,53.2389323 34.8924154,53.1785482 35.168457,53.0922852 C35.6515299,52.9370117 35.8930664,52.6523438 35.8930664,52.2382812 L35.8930664,39.0400391 L20.1069336,39.0400391 L20.1069336,53.3510742 L24.4545898,53.3510742 C24.9031576,53.3510742 25.1274414,53.8772786 25.1274414,54.9296875 C25.1274414,55.7578125 24.9980469,56.3098958 24.7392578,56.5859375 C24.4804688,56.8619792 24.2561849,57 24.0664062,57 L10.2988281,57 C9.92847222,57 9.73094907,56.5716753 9.70625868,55.715026 Z M60.176,33.672 L64.592,33.672 L57.68,41.928 C57.6586667,41.9493333 57.5626667,42.0666667 57.392,42.28 C57.2213333,42.4933333 57.1146667,42.6213333 57.072,42.664 C57.456,42.5146667 57.8506667,42.4026667 58.256,42.328 C58.6613333,42.2533333 59.0986667,42.216 59.568,42.216 C60.8053333,42.216 61.9466667,42.488 62.992,43.032 C64.0373333,43.576 64.8746667,44.3653333 65.504,45.4 C66.1333333,46.4346667 66.448,47.7093333 66.448,49.224 C66.448,50.7173333 66.0853333,52.072 65.36,53.288 C64.6346667,54.504 63.6373333,55.4693333 62.368,56.184 C61.0986667,56.8986667 59.632,57.256 57.968,57.256 C56.2613333,57.256 54.784,56.904 53.536,56.2 C52.288,55.496 51.3226667,54.5146667 50.64,53.256 C49.9573333,51.9973333 49.616,50.5466667 49.616,48.904 C49.616,47.7306667 49.84,46.568 50.288,45.416 C50.736,44.264 51.3973333,43.0906667 52.272,41.896 L57.52,34.824 C57.7546667,34.504 58.1066667,34.232 58.576,34.008 C59.0453333,33.784 59.5786667,33.672 60.176,33.672 Z M57.872,53.32 C58.576,53.32 59.2,53.1546667 59.744,52.824 C60.288,52.4933333 60.7146667,52.0453333 61.024,51.48 C61.3333333,50.9146667 61.488,50.28 61.488,49.576 C61.488,48.4026667 61.1573333,47.48 60.496,46.808 C59.8346667,46.136 58.9386667,45.8 57.808,45.8 C57.1466667,45.8 56.5546667,45.96 56.032,46.28 C55.5093333,46.6 55.104,47.0426667 54.816,47.608 C54.528,48.1733333 54.384,48.8293333 54.384,49.576 C54.384,50.344 54.512,51.0106667 54.768,51.576 C55.024,52.1413333 55.4133333,52.5733333 55.936,52.872 C56.4586667,53.1706667 57.104,53.32 57.872,53.32 Z" id="Shape" fill="#FFFFFF"></path>
    </g>
</svg>