<?xml version="1.0" encoding="UTF-8"?>
<svg width="72px" height="72px" viewBox="0 0 72 72" version="1.1" xmlns="http://www.w3.org/2000/svg" xmlns:xlink="http://www.w3.org/1999/xlink">
    <title>Filled / Page / page_italic</title>
    <g id="Filled-/-Page-/-page_italic" stroke="none" fill="none" fill-rule="nonzero">
        <path d="M25.1704102,55.8051758 L42.7602539,55.8051758 C43.4282227,55.8051758 43.9709473,55.6149902 44.3884277,55.2346191 C44.8059082,54.854248 45.0146484,54.3393555 45.0146484,53.6899414 C45.0146484,53.059082 44.8105469,52.5581055 44.4023437,52.1870117 C43.9941406,51.815918 43.4560547,51.6303711 42.7880859,51.6303711 L36.5537109,51.6303711 L43.3168945,20.1801758 L49.5512695,20.1801758 C50.2006836,20.1801758 50.7341309,19.9899902 51.1516113,19.6096191 C51.5690918,19.229248 51.777832,18.7143555 51.777832,18.0649414 C51.777832,17.434082 51.5737305,16.9331055 51.1655273,16.5620117 C50.7573242,16.190918 50.2285156,16.0053711 49.5791016,16.0053711 L31.9057617,16.0053711 C31.2563477,16.0053711 30.7275391,16.190918 30.3193359,16.5620117 C29.9111328,16.9331055 29.7070313,17.434082 29.7070313,18.0649414 C29.7070313,18.7143555 29.9157715,19.229248 30.333252,19.6096191 C30.7507324,19.9899902 31.2841797,20.1801758 31.9335938,20.1801758 L38.1679688,20.1801758 L31.4047852,51.6303711 L25.1425781,51.6303711 C24.4931641,51.6303711 23.9643555,51.815918 23.5561523,52.1870117 C23.1479492,52.5581055 22.9438477,53.059082 22.9438477,53.6899414 C22.9438477,54.3393555 23.1525879,54.854248 23.5700684,55.2346191 C23.9875488,55.6149902 24.5209961,55.8051758 25.1704102,55.8051758 Z" id="Path" fill="#FFFFFF"></path>
    </g>
</svg>