<?xml version="1.0" encoding="UTF-8"?>
<svg width="24px" height="24px" viewBox="0 0 72 72" version="1.1" xmlns="http://www.w3.org/2000/svg" xmlns:xlink="http://www.w3.org/1999/xlink">
    <title>Filled / Page / page_link</title>
    <g id="Filled-/-Page-/-page_link" stroke="none" fill="none" fill-rule="nonzero">
        <path d="M23.8944436,27.0146474 C24.8707543,27.9909581 24.8707543,29.5738705 23.8944436,30.5501813 L19.3132215,35.1314033 C14.4654385,39.9791863 14.4654385,47.8389955 19.3132215,52.6867785 C24.1610045,57.5345615 32.0208137,57.5345615 36.8685967,52.6867785 L41.4498187,48.1055564 C42.4261295,47.1292457 44.0090419,47.1292457 44.9853526,48.1055564 C45.9616634,49.0818672 45.9616634,50.6647796 44.9853526,51.6410904 L40.4041306,56.2223124 C33.6037261,63.0227169 22.578092,63.0227169 15.7776876,56.2223124 C8.97728314,49.421908 8.97728314,38.3962739 15.7776876,31.5958694 L20.3589096,27.0146474 C21.3352204,26.0383366 22.9181328,26.0383366 23.8944436,27.0146474 Z M56.2223124,15.7776876 C63.0227169,22.578092 63.0227169,33.6037261 56.2223124,40.4041306 L51.6410904,44.9853526 C50.6647796,45.9616634 49.0818672,45.9616634 48.1055564,44.9853526 C47.1292457,44.0090419 47.1292457,42.4261295 48.1055564,41.4498187 L52.6867785,36.8685967 C57.5345615,32.0208137 57.5345615,24.1610045 52.6867785,19.3132215 C47.8389955,14.4654385 39.9791863,14.4654385 35.1314033,19.3132215 L30.5501813,23.8944436 C29.5738705,24.8707543 27.9909581,24.8707543 27.0146474,23.8944436 C26.0383366,22.9181328 26.0383366,21.3352204 27.0146474,20.3589096 L31.5958694,15.7776876 C38.3962739,8.97728314 49.421908,8.97728314 56.2223124,15.7776876 Z M43.5171389,27.8802637 C44.4934496,28.8565744 44.4934496,30.4394869 43.5171389,31.4157976 L31.4157976,43.5171389 C30.4394869,44.4934496 28.8565744,44.4934496 27.8802637,43.5171389 C26.903953,42.5408282 26.903953,40.9579157 27.8802637,39.981605 L39.981605,27.8802637 C40.9579157,26.903953 42.5408282,26.903953 43.5171389,27.8802637 Z" id="Shape" fill="#FFFFFF"></path>
    </g>
</svg>