<?xml version="1.0" encoding="UTF-8"?>
<svg width="24px" height="24px" viewBox="0 0 72 72" version="1.1" xmlns="http://www.w3.org/2000/svg" xmlns:xlink="http://www.w3.org/1999/xlink">
    <title>Filled / Page / page_location</title>
    <g id="Filled-/-Page-/-page_location" stroke="none" fill="none" fill-rule="nonzero">
        <path d="M32.6474247,64.1881378 L31.6425286,63.2910806 C19.3945006,52.2172642 12.55,40.791991 12.55,31.5272904 C12.55,17.6827911 23.0188453,7.55 36,7.55 C48.9811547,7.55 59.45,17.6827911 59.45,31.5272904 C59.45,41.0362118 52.2384474,52.8293549 39.3652797,64.1999899 C37.4462765,65.86667 34.5799735,65.86667 32.6474247,64.1881378 Z M35.8740297,60.5004969 C35.9500265,60.566501 36.0762235,60.566501 36.136809,60.5139952 C48.0446807,49.9958828 54.55,39.357652 54.55,31.5272904 C54.55,20.4254068 46.3100887,12.45 36,12.45 C25.6899113,12.45 17.45,20.4254068 17.45,31.5272904 C17.45,39.3622182 23.9615267,49.9997234 35.8740297,60.5004969 Z M36,24.6251874 C39.0130435,24.6251874 41.4782609,27.0904048 41.4782609,30.1034483 C41.4782609,33.1164918 39.0130435,35.5817091 36,35.5817091 C32.9869565,35.5817091 30.5217391,33.1164918 30.5217391,30.1034483 C30.5217391,27.0904048 32.9869565,24.6251874 36,24.6251874 Z" id="Shape" fill="#FFFFFF"></path>
    </g>
</svg>