<?xml version="1.0" encoding="UTF-8"?>
<svg width="72px" height="72px" viewBox="0 0 72 72" version="1.1" xmlns="http://www.w3.org/2000/svg" xmlns:xlink="http://www.w3.org/1999/xlink">
    <title>Filled / Page / page_marked</title>
    <g id="Filled-/-Page-/-page_marked" stroke="none" fill="none" fill-rule="nonzero">
        <path d="M55.194942,12.069235 L62.7873488,19.5391561 C65.3345906,22.0453042 65.3361751,26.1518451 62.790868,28.659958 L33.9803247,57.0494971 C31.558164,59.4362631 27.6923882,59.5121047 25.1784767,57.2221783 L17.4884535,50.2173225 C14.7871605,47.7567099 14.6908114,43.5376558 17.2769627,40.9562956 L46.1851222,12.1016911 C48.6707842,9.6206341 52.6914697,9.60615034 55.194942,12.069235 Z M49.5760865,15.4989491 L20.6679269,44.3535536 C20.0213891,44.9988936 20.0454764,46.0536571 20.7207996,46.6688103 L28.4108227,53.6736661 C29.0393006,54.2461477 30.0057446,54.2271873 30.6112847,53.6304958 L59.421828,25.2409567 C60.0581548,24.6139284 60.0577587,23.5872932 59.4209483,22.9607562 L51.8285414,15.490835 C51.2026733,14.8750639 50.197502,14.8786848 49.5760865,15.4989491 Z M46.1782065,38.9354958 L42.8269178,42.3718986 L32.4459137,32.248015 L35.7972025,28.8116122 L46.1782065,38.9354958 Z M20.7393205,50.9034162 L14.9041776,57.0358343 L20.8198349,57.0358343 L24.2454154,53.5610785 L27.6636293,56.9309173 L24.1205553,60.5248532 C23.2936657,61.3636131 22.1650146,61.8358343 20.9871926,61.8358343 L11.1346194,61.8358343 C8.33641156,61.8358343 6.89947241,58.4850567 8.82835979,56.4579009 L17.2619706,47.5946344 L20.7393205,50.9034162 Z" id="Combined-Shape" fill="#FFFFFF"></path>
    </g>
</svg>