<?xml version="1.0" encoding="UTF-8"?>
<svg width="24px" height="24px" viewBox="0 0 72 72" version="1.1" xmlns="http://www.w3.org/2000/svg" xmlns:xlink="http://www.w3.org/1999/xlink">
    <title>Filled / Page / page_numbered</title>
    <g id="Filled-/-Page-/-page_numbered" stroke="none" fill="none" fill-rule="evenodd" stroke-width="1">
        <g id="Group-2" transform="translate(10, 12)" fill="#FFFFFF">
            <path d="M52,14 C52,15.3807119 50.8807119,16.5 49.5,16.5 L22.28,16.5 C20.8992881,16.5 19.78,15.3807119 19.78,14 C19.78,12.6192881 20.8992881,11.5 22.28,11.5 L49.5,11.5 C50.8807119,11.5 52,12.6192881 52,14 Z M52,34 C52,35.3807119 50.8807119,36.5 49.5,36.5 L22.28,36.5 C20.8992881,36.5 19.78,35.3807119 19.78,34 C19.78,32.6192881 20.8992881,31.5 22.28,31.5 L49.5,31.5 C50.8807119,31.5 52,32.6192881 52,34 Z M4.45998038,10.2072961 L5.21044922,9.76660156 L5.23095703,9.76660156 L5.23095703,17.8774414 C5.23095703,19.3334961 6,20.1538086 7.37402344,20.1538086 C8.73779297,20.1538086 9.49658203,19.34375 9.49658203,17.8774414 L9.49658203,8.46435547 C9.49658203,6.90576172 8.51220703,5.90087891 6.99462891,5.90087891 C6.14355469,5.90087891 5.20019531,6.18798828 4.31835938,6.72119141 L2.87255859,7.59277344 C2.15478516,8.0234375 1.78564453,8.56689453 1.78564453,9.19238281 C1.78564453,10.0332031 2.38037109,10.6279297 3.22119141,10.6279297 C3.59406072,10.6279297 3.89913562,10.5262381 4.45998038,10.2072961 Z M5.11506746,31.2129454 L5.24658203,31.0537109 C5.79003906,30.3769531 6.23095703,30.1308594 6.84619141,30.1308594 C7.64599609,30.1308594 8.19970703,30.6435547 8.19970703,31.4023438 C8.19970703,32.0791016 7.72802734,32.7353516 6.66162109,33.7402344 L3.52392578,36.6933594 C2.26269531,37.8725586 1.82177734,38.5493164 1.82177734,39.3081055 C1.82177734,40.3129883 2.59082031,41 3.71875,41 L10.8657227,41 C12.0756836,41 12.793457,40.3847656 12.793457,39.3491211 C12.793457,38.3134766 12.0551758,37.6777344 10.8657227,37.6777344 L7.43066406,37.6777344 L7.43066406,37.5136719 L9.85058594,35.3603516 C11.480957,33.9145508 12.2807617,32.4790039 12.2807617,30.9716797 C12.2807617,28.5620117 10.0556641,26.7675781 7.07177734,26.7675781 C4.2109375,26.7675781 1.80126953,28.53125 1.80126953,30.5307617 C1.80126953,31.4433594 2.49853516,32.0996094 3.48291016,32.0996094 C4.12084961,32.0996094 4.55543736,31.8697335 5.11506746,31.2129454 L5.11506746,31.2129454 Z" id="Shape" fill-rule="nonzero"></path>
        </g>
    </g>
</svg>