<?xml version="1.0" encoding="UTF-8"?>
<svg width="72px" height="72px" viewBox="0 0 72 72" version="1.1" xmlns="http://www.w3.org/2000/svg" xmlns:xlink="http://www.w3.org/1999/xlink">
    <title>Filled / Page / page_numbered2</title>
    <g id="Filled-/-Page-/-page_numbered2" stroke="none" fill="none" fill-rule="evenodd" stroke-width="1">
        <g id="Group-2" transform="translate(10, 12)" fill="#FFFFFF">
            <path d="M52,14 C52,15.3807119 50.8807119,16.5 49.5,16.5 L22.28,16.5 C20.8992881,16.5 19.78,15.3807119 19.78,14 C19.78,12.6192881 20.8992881,11.5 22.28,11.5 L49.5,11.5 C50.8807119,11.5 52,12.6192881 52,14 Z M52,34 C52,35.3807119 50.8807119,36.5 49.5,36.5 L22.28,36.5 C20.8992881,36.5 19.78,35.3807119 19.78,34 C19.78,32.6192881 20.8992881,31.5 22.28,31.5 L49.5,31.5 C50.8807119,31.5 52,32.6192881 52,34 Z M4.36493707,17.330832 L4.703125,16.2006836 L9.18408203,16.2006836 L9.4609375,17.1235352 C9.85058594,18.5078125 10.4760742,19.1025391 11.5424805,19.1025391 C12.7011719,19.1025391 13.4702148,18.4155273 13.4702148,17.3491211 C13.4702148,16.9287109 13.3574219,16.4365234 13.1318359,15.71875 L10.5068359,7.77197266 C9.81982422,5.70068359 8.86621094,4.90087891 7.05126953,4.90087891 C5.22607422,4.90087891 4.25195312,5.7109375 3.57519531,7.77197266 L0.9296875,15.71875 C0.642578125,16.590332 0.529785156,17.0620117 0.529785156,17.4516602 C0.529785156,18.4257812 1.29882812,19.1025391 2.38574219,19.1025391 C3.39882813,19.1025391 3.96771484,18.6028149 4.36493707,17.330832 L4.36493707,17.330832 Z M5.48242188,13.3295898 L6.85644531,8.41796875 L7.07177734,8.41796875 L8.41503906,13.3295898 L5.48242188,13.3295898 Z M1.53466797,38.8876953 C1.53466797,40.2207031 2.32421875,41 3.63671875,41 L8.36376953,41 C11.2348633,41 13.2241211,39.3798828 13.2241211,37.0112305 C13.2241211,35.1347656 11.8603516,33.7299805 10.0043945,33.6582031 L10.0043945,33.4736328 C11.5732422,33.2480469 12.6088867,32.0585938 12.6088867,30.4384766 C12.6088867,28.3261719 10.8862305,27.003418 8.13818359,27.003418 L3.63671875,27.003418 C2.32421875,27.003418 1.53466797,27.7929688 1.53466797,29.1157227 L1.53466797,38.8876953 Z M5.54394531,32.5507812 L5.54394531,29.7412109 L7.04101562,29.7412109 C8.08691406,29.7412109 8.68164062,30.3154297 8.68164062,31.1357422 C8.68164062,31.9047852 8.16894531,32.5507812 6.95898438,32.5507812 L5.54394531,32.5507812 Z M5.54394531,38.262207 L5.54394531,34.9912109 L7.18457031,34.9912109 C8.49707031,34.9912109 9.12255859,35.6577148 9.12255859,36.6113281 C9.12255859,37.5444336 8.52783203,38.262207 7.10253906,38.262207 L5.54394531,38.262207 Z" id="Shape" fill-rule="nonzero"></path>
        </g>
    </g>
</svg>