<?xml version="1.0" encoding="UTF-8"?>
<svg width="72px" height="72px" viewBox="0 0 72 72" version="1.1" xmlns="http://www.w3.org/2000/svg" xmlns:xlink="http://www.w3.org/1999/xlink">
    <title>Filled / Page / page_numbered3</title>
    <g id="Filled-/-Page-/-page_numbered3" stroke="none" fill="none" fill-rule="nonzero">
        <path d="M62,26 C62,27.3807119 60.8807119,28.5 59.5,28.5 L32.28,28.5 C30.8992881,28.5 29.78,27.3807119 29.78,26 C29.78,24.6192881 30.8992881,23.5 32.28,23.5 L59.5,23.5 C60.8807119,23.5 62,24.6192881 62,26 Z M62,46 C62,47.3807119 60.8807119,48.5 59.5,48.5 L32.28,48.5 C30.8992881,48.5 29.78,47.3807119 29.78,46 C29.78,44.6192881 30.8992881,43.5 32.28,43.5 L59.5,43.5 C60.8807119,43.5 62,44.6192881 62,46 Z M14.9645996,17.1367188 C14.9645996,18.203125 15.8054199,18.9516602 17.005127,18.9516602 C18.1945801,18.9516602 19.0354004,18.203125 19.0354004,17.1367188 C19.0354004,16.0908203 18.1945801,15.3422852 17.005127,15.3422852 C15.8054199,15.3422852 14.9645996,16.0908203 14.9645996,17.1367188 Z M18.963623,28.9594727 L18.963623,22.0380859 C18.963623,20.6435547 18.2766113,19.8950195 17.005127,19.8950195 C15.7336426,19.8950195 15.0466309,20.6435547 15.0466309,22.0380859 L15.0466309,28.9594727 C15.0466309,30.3540039 15.7336426,31.1025391 17.005127,31.1025391 C18.2766113,31.1025391 18.963623,30.3540039 18.963623,28.9594727 Z M11.862793,39.1367188 C11.862793,40.203125 12.7036133,40.9516602 13.9033203,40.9516602 C15.0927734,40.9516602 15.9335938,40.203125 15.9335938,39.1367188 C15.9335938,38.0908203 15.0927734,37.3422852 13.9033203,37.3422852 C12.7036133,37.3422852 11.862793,38.0908203 11.862793,39.1367188 Z M15.8618164,50.9594727 L15.8618164,44.0380859 C15.8618164,42.6435547 15.1748047,41.8950195 13.9033203,41.8950195 C12.6318359,41.8950195 11.9448242,42.6435547 11.9448242,44.0380859 L11.9448242,50.9594727 C11.9448242,52.3540039 12.6318359,53.1025391 13.9033203,53.1025391 C15.1748047,53.1025391 15.8618164,52.3540039 15.8618164,50.9594727 Z M18.0664062,39.1367188 C18.0664062,40.203125 18.9072266,40.9516602 20.1069336,40.9516602 C21.2963867,40.9516602 22.137207,40.203125 22.137207,39.1367188 C22.137207,38.0908203 21.2963867,37.3422852 20.1069336,37.3422852 C18.9072266,37.3422852 18.0664062,38.0908203 18.0664062,39.1367188 Z M22.0654297,50.9594727 L22.0654297,44.0380859 C22.0654297,42.6435547 21.378418,41.8950195 20.1069336,41.8950195 C18.8354492,41.8950195 18.1484375,42.6435547 18.1484375,44.0380859 L18.1484375,50.9594727 C18.1484375,52.3540039 18.8354492,53.1025391 20.1069336,53.1025391 C21.378418,53.1025391 22.0654297,52.3540039 22.0654297,50.9594727 Z" id="Shape" fill="#FFFFFF"></path>
    </g>
</svg>