<?xml version="1.0" encoding="UTF-8"?>
<svg width="72px" height="72px" viewBox="0 0 72 72" version="1.1" xmlns="http://www.w3.org/2000/svg" xmlns:xlink="http://www.w3.org/1999/xlink">
    <title>Filled / Page / page_numbered4</title>
    <g id="Filled-/-Page-/-page_numbered4" stroke="none" fill="none" fill-rule="nonzero">
        <path d="M62,26 C62,27.3807119 60.8807119,28.5 59.5,28.5 L32.28,28.5 C30.8992881,28.5 29.78,27.3807119 29.78,26 C29.78,24.6192881 30.8992881,23.5 32.28,23.5 L59.5,23.5 C60.8807119,23.5 62,24.6192881 62,26 Z M62,46 C62,47.3807119 60.8807119,48.5 59.5,48.5 L32.28,48.5 C30.8992881,48.5 29.78,47.3807119 29.78,46 C29.78,44.6192881 30.8992881,43.5 32.28,43.5 L59.5,43.5 C60.8807119,43.5 62,44.6192881 62,46 Z M17.1134438,31.4499079 L16.779558,31.4292818 C16.4546961,31.4060773 16.2071823,31.3944751 16.0370166,31.3944751 L14.6679558,31.3944751 C14.3430939,31.3944751 14.0646409,31.3055249 13.8325967,31.1276243 C13.6005525,30.9497238 13.4342541,30.7370166 13.3337017,30.4895028 C13.2331492,30.241989 13.2099448,29.9790055 13.2640884,29.7005525 C13.318232,29.4220994 13.461326,29.1668508 13.6933702,28.9348066 C13.9099448,28.718232 14.1961326,28.5944751 14.5519337,28.5635359 C14.9077348,28.5325967 15.2635359,28.5325967 15.619337,28.5635359 L15.619337,19.3745856 C15.2635359,19.3745856 14.9309392,19.3707182 14.621547,19.3629834 C14.3121547,19.3552486 14.0027624,19.2430939 13.6933702,19.0265193 C13.461326,18.8563536 13.3066298,18.659116 13.2292818,18.4348066 C13.1519337,18.2104972 13.1403315,17.9861878 13.1944751,17.7618785 C13.2486188,17.5375691 13.3530387,17.3248619 13.5077348,17.1237569 C13.6624309,16.9226519 13.8558011,16.7756906 14.0878453,16.6828729 C14.3044199,16.5900552 14.5287293,16.5436464 14.7607735,16.5436464 C15.5497238,16.5436464 16.3425414,16.539779 17.1392265,16.5320442 C17.9359116,16.5243094 18.7364641,16.5281768 19.540884,16.5436464 C19.618232,16.5436464 19.6917127,16.5668508 19.761326,16.6132597 C19.8309392,16.6596685 19.9044199,16.6983425 19.981768,16.7292818 C20.3375691,16.9303867 20.5773481,17.2165746 20.701105,17.5878453 C20.8248619,17.959116 20.778453,18.3226519 20.5618785,18.678453 C20.4535912,18.8640884 20.318232,19.0071823 20.1558011,19.1077348 C19.9933702,19.2082873 19.8154696,19.2779006 19.6220994,19.3165746 C19.4287293,19.3552486 19.2314917,19.3745856 19.0303867,19.3745856 L18.4502762,19.3745856 L18.4502762,28.6099448 C18.5740331,28.6099448 18.6861878,28.6060773 18.7867403,28.5983425 C18.8872928,28.5906077 18.9994475,28.5790055 19.1232044,28.5635359 L19.2856354,28.5635359 C19.6878453,28.5790055 20.020442,28.698895 20.2834254,28.9232044 C20.5464088,29.1475138 20.7165746,29.4066298 20.7939227,29.7005525 C20.8712707,29.9944751 20.8480663,30.2845304 20.7243094,30.5707182 C20.6005525,30.8569061 20.3453039,31.0773481 19.9585635,31.2320442 C19.6801105,31.3403315 19.3513812,31.4099448 18.9723757,31.440884 C18.5933702,31.4718232 18.2143646,31.4834254 17.8353591,31.4756906 C17.5826888,31.4705341 17.3420503,31.4619398 17.1134438,31.4499079 Z M12.2289134,53.4499079 L11.8950276,53.4292818 C11.5701657,53.4060773 11.3226519,53.3944751 11.1524862,53.3944751 L9.78342541,53.3944751 C9.45856354,53.3944751 9.1801105,53.3055249 8.9480663,53.1276243 C8.7160221,52.9497238 8.54972376,52.7370166 8.44917127,52.4895028 C8.34861878,52.241989 8.32541436,51.9790055 8.37955801,51.7005525 C8.43370166,51.4220994 8.57679558,51.1668508 8.80883978,50.9348066 C9.02541436,50.718232 9.31160221,50.5944751 9.66740331,50.5635359 C10.0232044,50.5325967 10.3790055,50.5325967 10.7348066,50.5635359 L10.7348066,41.3745856 C10.3790055,41.3745856 10.0464088,41.3707182 9.73701657,41.3629834 C9.42762431,41.3552486 9.11823204,41.2430939 8.80883978,41.0265193 C8.57679558,40.8563536 8.42209945,40.659116 8.34475138,40.4348066 C8.26740331,40.2104972 8.2558011,39.9861878 8.30994475,39.7618785 C8.3640884,39.5375691 8.46850829,39.3248619 8.62320442,39.1237569 C8.77790055,38.9226519 8.97127072,38.7756906 9.20331492,38.6828729 C9.4198895,38.5900552 9.6441989,38.5436464 9.87624309,38.5436464 C10.6651934,38.5436464 11.458011,38.539779 12.2546961,38.5320442 C13.0513812,38.5243094 13.8519337,38.5281768 14.6563536,38.5436464 C14.7337017,38.5436464 14.8071823,38.5668508 14.8767956,38.6132597 C14.9464088,38.6596685 15.0198895,38.6983425 15.0972376,38.7292818 C15.4530387,38.9303867 15.6928177,39.2165746 15.8165746,39.5878453 C15.9403315,39.959116 15.8939227,40.3226519 15.6773481,40.678453 C15.5690608,40.8640884 15.4337017,41.0071823 15.2712707,41.1077348 C15.1088398,41.2082873 14.9309392,41.2779006 14.7375691,41.3165746 C14.5441989,41.3552486 14.3469613,41.3745856 14.1458564,41.3745856 L13.5657459,41.3745856 L13.5657459,50.6099448 C13.6895028,50.6099448 13.8016575,50.6060773 13.9022099,50.5983425 C14.0027624,50.5906077 14.1149171,50.5790055 14.238674,50.5635359 L14.401105,50.5635359 C14.8033149,50.5790055 15.1359116,50.698895 15.398895,50.9232044 C15.6618785,51.1475138 15.8320442,51.4066298 15.9093923,51.7005525 C15.9867403,51.9944751 15.9635359,52.2845304 15.839779,52.5707182 C15.7160221,52.8569061 15.4607735,53.0773481 15.0740331,53.2320442 C14.7955801,53.3403315 14.4668508,53.4099448 14.0878453,53.440884 C13.7088398,53.4718232 13.3298343,53.4834254 12.9508287,53.4756906 C12.6981584,53.4705341 12.45752,53.4619398 12.2289134,53.4499079 Z M21.9979742,53.4499079 L21.6640884,53.4292818 C21.3392265,53.4060773 21.0917127,53.3944751 20.921547,53.3944751 L19.5524862,53.3944751 C19.2276243,53.3944751 18.9491713,53.3055249 18.7171271,53.1276243 C18.4850829,52.9497238 18.3187845,52.7370166 18.218232,52.4895028 C18.1176796,52.241989 18.0944751,51.9790055 18.1486188,51.7005525 C18.2027624,51.4220994 18.3458564,51.1668508 18.5779006,50.9348066 C18.7944751,50.718232 19.080663,50.5944751 19.4364641,50.5635359 C19.7922652,50.5325967 20.1480663,50.5325967 20.5038674,50.5635359 L20.5038674,41.3745856 C20.1480663,41.3745856 19.8154696,41.3707182 19.5060773,41.3629834 C19.1966851,41.3552486 18.8872928,41.2430939 18.5779006,41.0265193 C18.3458564,40.8563536 18.1911602,40.659116 18.1138122,40.4348066 C18.0364641,40.2104972 18.0248619,39.9861878 18.0790055,39.7618785 C18.1331492,39.5375691 18.2375691,39.3248619 18.3922652,39.1237569 C18.5469613,38.9226519 18.7403315,38.7756906 18.9723757,38.6828729 C19.1889503,38.5900552 19.4132597,38.5436464 19.6453039,38.5436464 C20.4342541,38.5436464 21.2270718,38.539779 22.0237569,38.5320442 C22.820442,38.5243094 23.6209945,38.5281768 24.4254144,38.5436464 C24.5027624,38.5436464 24.5762431,38.5668508 24.6458564,38.6132597 C24.7154696,38.6596685 24.7889503,38.6983425 24.8662983,38.7292818 C25.2220994,38.9303867 25.4618785,39.2165746 25.5856354,39.5878453 C25.7093923,39.959116 25.6629834,40.3226519 25.4464088,40.678453 C25.3381215,40.8640884 25.2027624,41.0071823 25.0403315,41.1077348 C24.8779006,41.2082873 24.7,41.2779006 24.5066298,41.3165746 C24.3132597,41.3552486 24.1160221,41.3745856 23.9149171,41.3745856 L23.3348066,41.3745856 L23.3348066,50.6099448 C23.4585635,50.6099448 23.5707182,50.6060773 23.6712707,50.5983425 C23.7718232,50.5906077 23.8839779,50.5790055 24.0077348,50.5635359 L24.1701657,50.5635359 C24.5723757,50.5790055 24.9049724,50.698895 25.1679558,50.9232044 C25.4309392,51.1475138 25.601105,51.4066298 25.678453,51.7005525 C25.7558011,51.9944751 25.7325967,52.2845304 25.6088398,52.5707182 C25.4850829,52.8569061 25.2298343,53.0773481 24.8430939,53.2320442 C24.5646409,53.3403315 24.2359116,53.4099448 23.8569061,53.440884 C23.4779006,53.4718232 23.098895,53.4834254 22.7198895,53.4756906 C22.4672192,53.4705341 22.2265807,53.4619398 21.9979742,53.4499079 Z" id="Shape" fill="#FFFFFF"></path>
    </g>
</svg>