<?xml version="1.0" encoding="UTF-8"?>
<svg width="72px" height="72px" viewBox="0 0 72 72" version="1.1" xmlns="http://www.w3.org/2000/svg" xmlns:xlink="http://www.w3.org/1999/xlink">
    <title>Filled / Page / page_numbered1</title>
    <g id="Filled-/-Page-/-page_numbered1" stroke="none" fill="none" fill-rule="nonzero">
        <path d="M62,26 C62,27.3807119 60.8807119,28.5 59.5,28.5 L32.28,28.5 C30.8992881,28.5 29.78,27.3807119 29.78,26 C29.78,24.6192881 30.8992881,23.5 32.28,23.5 L59.5,23.5 C60.8807119,23.5 62,24.6192881 62,26 Z M62,46 C62,47.3807119 60.8807119,48.5 59.5,48.5 L32.28,48.5 C30.8992881,48.5 29.78,47.3807119 29.78,46 C29.78,44.6192881 30.8992881,43.5 32.28,43.5 L59.5,43.5 C60.8807119,43.5 62,44.6192881 62,46 Z M13.8569336,22.8359375 L14.2427093,22.6360061 C14.6942937,22.4078414 15.160319,22.2128906 15.7368164,22.2128906 C16.6069336,22.2128906 17.144043,22.6425781 17.144043,23.4052734 L17.144043,24.125 L14.7915039,24.125 C12.0737305,24.1357422 10.4194336,25.4570312 10.4194336,27.6376953 C10.4194336,29.7109375 11.9555664,31.1181641 14.2114258,31.1181641 C15.5541992,31.1181641 16.6606445,30.5488281 17.1333008,29.6357422 L17.3374023,29.6357422 L17.3374023,29.7001953 C17.5200195,30.6025391 18.2397461,31.1074219 19.2602539,31.1074219 C20.527832,31.1074219 21.2475586,30.3554688 21.2475586,28.9589844 L21.2475586,23.4697266 C21.2475586,20.8164062 19.3461914,19.2910156 16.0053711,19.2910156 C14.5766602,19.2910156 13.480957,19.5058594 12.6860352,19.8710938 C11.5473633,20.3759766 11.0532227,21.1064453 11.0532227,21.8261719 C11.0532227,22.5996094 11.5795898,23.1796875 12.449707,23.1796875 C13.0620117,23.1796875 13.4702148,23.0292969 13.8569336,22.8359375 Z M14.4370117,27.3046875 C14.4370117,26.6386719 14.9956055,26.2089844 15.8442383,26.2089844 L17.144043,26.2089844 L17.144043,27.2617188 C17.144043,27.90625 16.5209961,28.421875 15.7368164,28.421875 C14.9848633,28.421875 14.4370117,27.9492188 14.4370117,27.3046875 Z M18.9389648,53.1289062 C21.5600586,53.1289062 23.074707,51.1523438 23.074707,47.7255859 L23.074707,46.6835938 C23.074707,43.2675781 21.5600586,41.2910156 18.9819336,41.2910156 C17.3813477,41.2910156 16.1030273,42.0537109 15.7055664,43.2353516 L15.5014648,43.2353516 L15.5014648,39.7226562 C15.5014648,38.2617188 14.7817383,37.4667969 13.449707,37.4667969 C12.128418,37.4667969 11.3979492,38.2617188 11.3979492,39.7226562 L11.3979492,50.8730469 C11.3979492,52.3232422 12.1176758,53.1181641 13.449707,53.1181641 C14.6743164,53.1181641 15.4907227,52.4521484 15.4907227,51.2490234 L15.4907227,51.1738281 L15.6948242,51.1738281 C16.1137695,52.3769531 17.3491211,53.1289062 18.9389648,53.1289062 Z M15.5014648,47.6396484 L15.5014648,46.8125 C15.5014648,45.3085938 16.1352539,44.40625 17.1772461,44.40625 C18.2084961,44.40625 18.8208008,45.3193359 18.8208008,46.8447266 L18.8208008,47.5966797 C18.8208008,49.1328125 18.2084961,50.0029297 17.1772461,50.0029297 C16.1459961,50.0029297 15.5014648,49.1220703 15.5014648,47.6396484 Z" id="Shape" fill="#FFFFFF"></path>
    </g>
</svg>