<?xml version="1.0" encoding="UTF-8"?>
<svg width="24px" height="24px" viewBox="0 0 72 72" version="1.1" xmlns="http://www.w3.org/2000/svg" xmlns:xlink="http://www.w3.org/1999/xlink">
    <title>Filled / Page / page_text2</title>
    <g id="Filled-/-Page-/-page_text2" stroke="none" fill="none" fill-rule="nonzero">
        <path d="M43.5842285,54.0756836 C44.0852051,54.0756836 44.3356934,54.6972656 44.3356934,55.9404297 C44.3356934,56.7382812 44.1918945,57.2810059 43.9042969,57.5686035 C43.6166992,57.8562012 43.380127,58 43.1945801,58 L28.4157715,58 C27.970459,58 27.7478027,57.4711914 27.7478027,56.4135742 C27.7478027,55.4672852 27.998291,54.7529297 28.4992676,54.2705078 C28.6477051,54.1220703 28.9445801,54.0478516 29.3898926,54.0478516 L29.4733887,54.0478516 C29.5476074,54.0664062 29.6311035,54.0756836 29.723877,54.0756836 C30.1506348,54.0756836 30.5866699,54.0478516 31.0319824,53.9921875 C31.5700684,53.9550781 31.9875488,53.8901367 32.2844238,53.7973633 C32.7854004,53.6489258 33.0358887,53.3427734 33.0358887,52.8789062 L33.0358887,20.3989258 L23.7121582,20.3989258 L22.4875488,24.5180664 C22.3205566,25.0004883 21.8566895,25.2416992 21.0959473,25.2416992 C20.1682129,25.2231445 19.4631348,24.9355469 18.9807129,24.3789062 C18.8322754,24.1933594 18.7580566,24.0078125 18.7580566,23.8222656 L18.7580566,23.7109375 L19.8156738,16.112793 L52.1286621,16.112793 L53.1862793,23.7109375 L53.1862793,23.8222656 C53.1862793,24.4902344 52.6760254,24.9355469 51.6555176,25.1582031 C51.4328613,25.2138672 51.2009277,25.2416992 50.9597168,25.2416992 L50.7927246,25.2416992 C50.0690918,25.2416992 49.6237793,25.0004883 49.4567871,24.5180664 L48.2321777,20.3989258 L38.9084473,20.3989258 L38.9084473,54.0756836 L43.5842285,54.0756836 Z" id="Path" fill="#FFFFFF"></path>
    </g>
</svg>