<?xml version="1.0" encoding="UTF-8"?>
<svg width="72px" height="72px" viewBox="0 0 72 72" version="1.1" xmlns="http://www.w3.org/2000/svg" xmlns:xlink="http://www.w3.org/1999/xlink">
    <title>Filled / Page / page_pullquote </title>
    <g id="Filled-/-Page-/-page_pullquote-" stroke="none" fill="none" fill-rule="nonzero">
        <path d="M47.604672,12 C50.1477621,12 52.209344,14.0886542 52.209344,16.6651397 C52.4001722,18.6275323 52.1990023,20.6352155 51.6058342,22.6881893 C51.1916592,24.1216623 50.5775784,25.5149761 49.7635919,26.8681307 C49.1538415,27.8817673 47.8831677,28.2804535 46.8036968,27.7967206 L46.6633798,27.7338417 C45.7981813,27.3461285 45.4289204,26.3170279 45.8516187,25.4683724 C46.4416691,24.2837226 46.8568645,23.1190174 47.0972052,21.9742569 C47.1428896,21.7566584 47.18549,21.5366014 47.2250063,21.314086 C44.8581721,21.117598 43,19.1112181 43,16.6651397 C43,14.0886542 45.0615819,12 47.604672,12 Z M59.3256553,12 C61.8687455,12 63.9303273,14.0886542 63.9303273,16.6651397 C64.1211555,18.6275323 63.9199856,20.6352155 63.3268175,22.6881893 C62.9126425,24.1216623 62.2985617,25.5149761 61.4845752,26.8681307 C60.8748248,27.8817673 59.604151,28.2804535 58.5246801,27.7967206 L58.3843631,27.7338417 C57.5191646,27.3461285 57.1499037,26.3170279 57.572602,25.4683724 C58.1626524,24.2837226 58.5778479,23.1190174 58.8181885,21.9742569 C58.8638729,21.7566584 58.9064733,21.5366014 58.9459896,21.314086 C56.5791555,21.117598 54.7209833,19.1112181 54.7209833,16.6651397 C54.7209833,14.0886542 56.7825652,12 59.3256553,12 Z M40.097561,22 C40.097561,23.3807119 38.9782729,24.5 37.597561,24.5 L12,24.5 C10.6192881,24.5 9.5,23.3807119 9.5,22 C9.5,20.6192881 10.6192881,19.5 12,19.5 L37.597561,19.5 C38.9782729,19.5 40.097561,20.6192881 40.097561,22 Z M62.5,39 C62.5,40.3807119 61.3807119,41.5 60,41.5 L12,41.5 C10.6192881,41.5 9.5,40.3807119 9.5,39 C9.5,37.6192881 10.6192881,36.5 12,36.5 L60,36.5 C61.3807119,36.5 62.5,37.6192881 62.5,39 Z M54.5,55 C54.5,56.3807119 53.3807119,57.5 52,57.5 L20,57.5 C18.6192881,57.5 17.5,56.3807119 17.5,55 C17.5,53.6192881 18.6192881,52.5 20,52.5 L52,52.5 C53.3807119,52.5 54.5,53.6192881 54.5,55 Z" id="Combined-Shape" fill="#FFFFFF"></path>
    </g>
</svg>