<?xml version="1.0" encoding="UTF-8"?>
<svg width="72px" height="72px" viewBox="0 0 72 72" version="1.1" xmlns="http://www.w3.org/2000/svg" xmlns:xlink="http://www.w3.org/1999/xlink">
    <title>Input / filled_send_plane</title>
    <g id="Input-/-filled_send_plane" stroke="none" fill="none" fill-rule="evenodd" stroke-width="1">
        <g id="Group" transform="translate(2.6667, 14)" fill="#FFFFFF">
            <path d="M3.56559921,21.0463482 C19.4485169,14.1469979 30.0396163,9.59852383 35.3388975,7.40092613 C50.4694221,1.1263381 53.6134155,0.0363749553 55.6626263,0 C56.1133314,-0.00753218265 57.1210737,0.103833852 57.7738469,0.631938562 C58.3250358,1.07785984 58.4766899,1.6802361 58.5492612,2.10301846 C58.6218326,2.52580081 58.7122014,3.48890976 58.640365,4.24145506 C57.8204366,12.8308874 54.2726194,33.6751745 52.4676914,43.2954858 C51.7039586,47.3662002 50.2001451,48.7310898 48.7442796,48.8646623 C45.5803467,49.1549463 43.1777998,46.7799347 40.1133761,44.7771418 C35.3181579,41.6431662 32.6091648,39.6922567 27.9545753,36.6340755 C22.5753918,33.099818 26.0624926,31.1573287 29.1280736,27.9827575 C29.9303508,27.1519571 43.8707115,14.5098397 44.1405276,13.3630015 C44.1742726,13.2195702 44.2055896,12.6849263 43.8870194,12.4026147 C43.5684491,12.1203031 43.0982669,12.2168427 42.7589703,12.2936215 C42.2780276,12.4024531 34.6176046,17.450647 19.7777013,27.4382032 C17.6033157,28.9268627 15.6338248,29.6521876 13.8692285,29.6141778 C11.9239027,29.5722752 8.18187618,28.5175329 5.40006413,27.6159653 C1.98805843,26.510156 -0.218876072,25.9383362 0.0172602852,24.0603299 C0.140254711,23.0821479 1.32303435,22.0774874 3.56559921,21.0463482 Z" id="Path-3"></path>
        </g>
    </g>
</svg>