<?xml version="1.0" encoding="UTF-8"?>
<svg width="24px" height="24px" viewBox="0 0 72 72" version="1.1" xmlns="http://www.w3.org/2000/svg" xmlns:xlink="http://www.w3.org/1999/xlink">
    <title>Filled / Page / Spoiler</title>
    <g id="Filled-/-Page-/-Spoiler" stroke="none" fill="none" fill-rule="evenodd">
        <path d="M39.8695652,22 C41.4543823,22 42.7391304,20.6568542 42.7391304,19 C42.7391304,17.3431458 41.4543823,16 39.8695652,16 C38.2847481,16 37,17.3431458 37,19 C37,20.6568542 38.2847481,22 39.8695652,22 Z M39.8695652,45 C41.4543823,45 42.7391304,43.6568542 42.7391304,42 C42.7391304,40.3431458 41.4543823,39 39.8695652,39 C38.2847481,39 37,40.3431458 37,42 C37,43.6568542 38.2847481,45 39.8695652,45 Z M39.8695652,33 C41.4543823,33 42.7391304,31.6568542 42.7391304,30 C42.7391304,28.3431458 41.4543823,27 39.8695652,27 C38.2847481,27 37,28.3431458 37,30 C37,31.6568542 38.2847481,33 39.8695652,33 Z M39.8695652,57 C41.4543823,57 42.7391304,55.6568542 42.7391304,54 C42.7391304,52.3431458 41.4543823,51 39.8695652,51 C38.2847481,51 37,52.3431458 37,54 C37,55.6568542 38.2847481,57 39.8695652,57 Z M48.9565217,21.5 C50.2772027,21.5 51.3478261,20.3807119 51.3478261,19 C51.3478261,17.6192881 50.2772027,16.5 48.9565217,16.5 C47.6358408,16.5 46.5652174,17.6192881 46.5652174,19 C46.5652174,20.3807119 47.6358408,21.5 48.9565217,21.5 Z M48.9565217,44.5 C50.2772027,44.5 51.3478261,43.3807119 51.3478261,42 C51.3478261,40.6192881 50.2772027,39.5 48.9565217,39.5 C47.6358408,39.5 46.5652174,40.6192881 46.5652174,42 C46.5652174,43.3807119 47.6358408,44.5 48.9565217,44.5 Z M48.9565217,32.5 C50.2772027,32.5 51.3478261,31.3807119 51.3478261,30 C51.3478261,28.6192881 50.2772027,27.5 48.9565217,27.5 C47.6358408,27.5 46.5652174,28.6192881 46.5652174,30 C46.5652174,31.3807119 47.6358408,32.5 48.9565217,32.5 Z M48.9565217,56.5 C50.2772027,56.5 51.3478261,55.3807119 51.3478261,54 C51.3478261,52.6192881 50.2772027,51.5 48.9565217,51.5 C47.6358408,51.5 46.5652174,52.6192881 46.5652174,54 C46.5652174,55.3807119 47.6358408,56.5 48.9565217,56.5 Z M57.0869565,21 C58.1435013,21 59,20.1045695 59,19 C59,17.8954305 58.1435013,17 57.0869565,17 C56.0304118,17 55.173913,17.8954305 55.173913,19 C55.173913,20.1045695 56.0304118,21 57.0869565,21 Z M57.0869565,44 C58.1435013,44 59,43.1045695 59,42 C59,40.8954305 58.1435013,40 57.0869565,40 C56.0304118,40 55.173913,40.8954305 55.173913,42 C55.173913,43.1045695 56.0304118,44 57.0869565,44 Z M57.0869565,32 C58.1435013,32 59,31.1045695 59,30 C59,28.8954305 58.1435013,28 57.0869565,28 C56.0304118,28 55.173913,28.8954305 55.173913,30 C55.173913,31.1045695 56.0304118,32 57.0869565,32 Z M57.0869565,56 C58.1435013,56 59,55.1045695 59,54 C59,52.8954305 58.1435013,52 57.0869565,52 C56.0304118,52 55.173913,52.8954305 55.173913,54 C55.173913,55.1045695 56.0304118,56 57.0869565,56 Z M14.9883728,53.2167358 L15.1679687,53.2133789 C16.4928385,53.2133789 17.3611654,52.703125 17.7729492,51.6826172 L31.4423828,16.5825195 C31.585612,16.2244466 31.9347331,16.0454102 32.4897461,16.0454102 C33.6823699,16.0454102 34.3529127,16.2223868 34.5013745,16.57634 L34.5,32.02 L32.1674805,25.9282227 L26.9038086,39.4633789 L34.5,39.463 L34.5,43.599 L25.3193359,43.5991211 L21.5864258,53.2133789 L26.2055664,53.2133789 C26.6710612,53.2133789 26.9038086,53.7325846 26.9038086,54.7709961 C26.9038086,55.7019857 26.782959,56.3062337 26.5412598,56.5837402 C26.2995605,56.8612467 26.0981445,57 25.9370117,57 L14.2280273,57 C13.7804362,57 13.5566406,56.4897461 13.5566406,55.4692383 C13.5566406,54.5382487 13.7714844,53.8579102 14.2011719,53.4282227 C14.3264974,53.3028971 14.5888977,53.2324015 14.9883728,53.2167358 Z" id="Shape" fill="#FFFFFF"></path>
    </g>
</svg>