<?xml version="1.0" encoding="UTF-8"?>
<svg width="24px" height="24px" viewBox="0 0 72 72" version="1.1" xmlns="http://www.w3.org/2000/svg" xmlns:xlink="http://www.w3.org/1999/xlink">
    <title>Filled / Page / page_strike</title>
    <g id="Filled-/-Page-/-page_strike" stroke="none" fill="none">
        <line x1="15" y1="36.5" x2="57" y2="36.5" id="Path-91" stroke="#FFFFFF" stroke-width="4.4" stroke-linecap="round"></line>
        <path d="M39.807,41.502 L39.2434047,41.1928399 C38.9476405,41.0345705 38.6309266,40.8707673 38.2932629,40.7014302 L48.2990217,40.6994323 C48.3305258,40.7417149 48.361852,40.7842374 48.393,40.827 C49.455,42.285 49.986,44.022 49.986,46.038 C49.986,47.946 49.455,49.782 48.393,51.546 C47.331,53.31 45.711,54.759 43.533,55.893 C41.355,57.027 38.718,57.594 35.622,57.594 C33.75,57.594 32.076,57.432 30.6,57.108 C29.124,56.784 27.504,56.352 25.74,55.812 C24.66,55.416 23.85,55.2 23.31,55.164 L23.742,45.39 L27.198,45.39 L28.116,52.41 C28.728,52.986 29.727,53.499 31.113,53.949 C32.499,54.399 34.02,54.624 35.676,54.624 C38.412,54.624 40.491,54.012 41.913,52.788 C43.335,51.564 44.046,49.872 44.046,47.712 C44.046,46.308 43.659,45.102 42.885,44.094 C42.111,43.086 41.085,42.222 39.807,41.502 Z M45.666,17.85 C46.386,18.102 46.998,18.264 47.502,18.336 L47.178,27.408 L43.884,27.408 L42.804,20.766 C42.444,20.406 41.697,20.064 40.563,19.74 C39.429,19.416 38.196,19.254 36.864,19.254 C34.38,19.254 32.499,19.776 31.221,20.82 C29.943,21.864 29.304,23.376 29.304,25.356 C29.304,26.796 29.691,28.002 30.465,28.974 C31.1806021,29.8726631 32.0577603,30.648236 33.0964744,31.3007185 L24.7051246,31.2992699 C24.0630415,29.9883841 23.742,28.4932941 23.742,26.814 C23.742,24.834 24.273,23.061 25.335,21.495 C26.397,19.929 27.927,18.696 29.925,17.796 C31.923,16.896 34.254,16.446 36.918,16.446 C38.574,16.446 40.041,16.572 41.319,16.824 C42.597,17.076 44.046,17.418 45.666,17.85 Z" id="Shape" fill="#FFFFFF" fill-rule="nonzero"></path>
    </g>
</svg>