<?xml version="1.0" encoding="UTF-8"?>
<svg width="72px" height="72px" viewBox="0 0 72 72" version="1.1" xmlns="http://www.w3.org/2000/svg" xmlns:xlink="http://www.w3.org/1999/xlink">
    <title>Filled / Page / page_subrscript</title>
    <g id="Filled-/-Page-/-page_subrscript" stroke="none" fill="none" fill-rule="nonzero">
        <path d="M23.541748,51.9580078 L30.713623,41.2001953 L30.9875488,41.2001953 L38.3586426,51.9580078 C39.6784668,53.8256836 40.2263184,54.2490234 41.3469238,54.2490234 C43.0153809,54.2490234 44.2106934,53.1782227 44.2106934,51.684082 C44.2106934,50.9868164 43.9367676,50.3393555 43.2145996,49.3432617 L34.3742676,37.1660156 L43.1398926,24.5405273 C43.9118652,23.4697266 44.1359863,22.8969727 44.1359863,22.2495117 C44.1359863,20.7553711 43.0153809,19.659668 41.3967285,19.659668 C40.276123,19.659668 39.6535645,20.1577148 38.4831543,21.9506836 L31.3361816,32.9575195 L31.0622559,32.9575195 L23.8405762,21.9506836 C22.595459,20.1328125 21.9978027,19.659668 20.8522949,19.659668 C19.1838379,19.659668 18.0134277,20.7304688 18.0134277,22.2495117 C18.0134277,22.9467773 18.2873535,23.5942383 18.9846191,24.5654297 L27.5012207,36.8671875 L18.8850098,49.3681641 C18.1379395,50.4389648 17.8640137,51.0117188 17.8640137,51.684082 C17.8640137,53.1533203 19.0095215,54.2490234 20.6281738,54.2490234 C21.723877,54.2490234 22.2966309,53.8007812 23.541748,51.9580078 Z M55.3339974,47.7894282 L50.2138672,53.0581055 C48.7978516,54.4458008 48.3305664,55.1821289 48.3305664,56.0317383 C48.3305664,57.2211914 49.2368164,58 50.6103516,58 L60.2958984,58 C61.6269531,58 62.434082,57.3061523 62.434082,56.1591797 C62.434082,54.9980469 61.612793,54.2900391 60.2958984,54.2900391 L54.4052734,54.2900391 L54.4052734,54.0917969 L58.440918,50.0136719 C60.8056641,47.6914062 61.7685547,45.9355469 61.7685547,43.9389648 C61.7685547,40.6962891 58.9223633,38.3173828 55.0283203,38.3173828 C51.1625977,38.3173828 48.1889648,40.78125 48.1889648,43.4150391 C48.1889648,44.4912109 48.9677734,45.2558594 50.0864258,45.2558594 C50.9077148,45.2558594 51.4458008,44.8876953 52.0688477,43.9248047 C52.6918945,42.6645508 53.5698242,42.0556641 54.7734375,42.0556641 C56.2602539,42.0556641 57.265625,42.9902344 57.265625,44.3779297 C57.265625,45.400293 56.6905457,46.3715381 55.3339974,47.7894282 L55.3339974,47.7894282 Z" id="Shape" fill="#FFFFFF"></path>
    </g>
</svg>