<?xml version="1.0" encoding="UTF-8"?>
<svg width="72px" height="72px" viewBox="0 0 72 72" version="1.1" xmlns="http://www.w3.org/2000/svg" xmlns:xlink="http://www.w3.org/1999/xlink">
    <title>Filled / Page / page_table_merge</title>
    <g id="Filled-/-Page-/-page_table_merge" stroke="none" fill="none" fill-rule="evenodd" stroke-width="1">
        <g id="Group-2" transform="translate(-1, 0)" fill="#FFFFFF">
            <path d="M14.5,43 L14.5,49 C14.5,54.2467051 18.7532949,58.5 24,58.5 L50,58.5 C55.2467051,58.5 59.5,54.2467051 59.5,49 L59.5,43 L64.5,43 L64.5,49 C64.5,57.0081289 58.0081289,63.5 50,63.5 L24,63.5 C15.9918711,63.5 9.5,57.0081289 9.5,49 L9.5,43 L14.5,43 Z M24.681671,25.5051814 L32.6226164,34.438745 C33.4140672,35.3291271 33.4140672,36.6708729 32.6226164,37.561255 L24.681671,46.4948186 C23.8561054,47.4235799 22.4339426,47.5072365 21.5051814,46.681671 C20.5764201,45.8561054 20.4927635,44.4339426 21.318329,43.5051814 L26.0005384,38.2389365 C25.9266843,38.2462538 25.8517801,38.25 25.776001,38.25 L8,38.25 C6.75735931,38.25 5.75,37.2426407 5.75,36 C5.75,34.7573593 6.75735931,33.75 8,33.75 L25.776001,33.75 C25.8514372,33.75 25.9260064,33.7537124 25.9995358,33.7609644 L21.318329,28.4948186 C20.4927635,27.5660574 20.5764201,26.1438946 21.5051814,25.318329 C22.4339426,24.4927635 23.8561054,24.5764201 24.681671,25.5051814 Z M52.4948186,25.318329 C53.4235799,26.1438946 53.5072365,27.5660574 52.681671,28.4948186 L47.9994616,33.7610635 C48.0733157,33.7537462 48.1482199,33.75 48.223999,33.75 L66,33.75 C67.2426407,33.75 68.25,34.7573593 68.25,36 C68.25,37.2426407 67.2426407,38.25 66,38.25 L48.223999,38.25 C48.147877,38.25 48.0726379,38.2462198 47.9984592,38.2388369 L52.681671,43.5051814 C53.5072365,44.4339426 53.4235799,45.8561054 52.4948186,46.681671 C51.5660574,47.5072365 50.1438946,47.4235799 49.318329,46.4948186 L41.3773836,37.561255 C40.5859328,36.6708729 40.5859328,35.3291271 41.3773836,34.438745 L49.318329,25.5051814 C50.1438946,24.5764201 51.5660574,24.4927635 52.4948186,25.318329 Z M50,8.5 C58.0081289,8.5 64.5,14.9918711 64.5,23 L64.5,29 L59.5,29 L59.5,23 C59.5,17.7532949 55.2467051,13.5 50,13.5 L24,13.5 C18.7532949,13.5 14.5,17.7532949 14.5,23 L14.5,29 L9.5,29 L9.5,23 C9.5,14.9918711 15.9918711,8.5 24,8.5 L50,8.5 Z" id="Shape" fill-rule="nonzero"></path>
        </g>
    </g>
</svg>