<?xml version="1.0" encoding="UTF-8"?>
<svg width="24px" height="24px" viewBox="0 0 72 72" version="1.1" xmlns="http://www.w3.org/2000/svg" xmlns:xlink="http://www.w3.org/1999/xlink">
    <title>Filled / Page / page_table_add_cells</title>
    <g id="Filled-/-Page-/-page_table_add_cells" stroke="none" fill="none" fill-rule="nonzero">
        <path d="M49.7751479,11.65 C56.720047,11.65 62.35,17.279953 62.35,24.2248521 L62.35,44 C62.35,45.2979 61.2979,46.35 60,46.35 C58.7021,46.35 57.65,45.2979 57.65,44 L57.65,24.2248521 C57.65,19.8756914 54.1243086,16.35 49.7751479,16.35 L22.2248521,16.35 C17.8756914,16.35 14.35,19.8756914 14.35,24.2248521 L14.35,47.7751479 C14.35,52.1243086 17.8756914,55.65 22.2248521,55.65 L44,55.65 C45.2979,55.65 46.35,56.7021 46.35,58 C46.35,59.2979 45.2979,60.35 44,60.35 L22.2248521,60.35 C15.279953,60.35 9.65,54.720047 9.65,47.7751479 L9.65,24.2248521 C9.65,17.279953 15.279953,11.65 22.2248521,11.65 L49.7751479,11.65 Z M33.081,16.35 L37.781,16.35 L37.781,55.65 L33.081,55.65 Z M14.35,25.709 L57.65,25.709 L57.65,30.409 L14.35,30.409 Z M14.35,41.046 L57.65,41.046 L57.65,45.746 L14.35,45.746 Z M60.9987417,50.75 C62.2413824,50.75 63.2487417,51.7573593 63.2487417,53 L63.248,58.75 L69,58.75 C70.2426407,58.75 71.25,59.7573593 71.25,61 C71.25,62.2426407 70.2426407,63.25 69,63.25 L63.248,63.25 L63.2487417,69 C63.2487417,70.2426407 62.2413824,71.25 60.9987417,71.25 C59.756101,71.25 58.7487417,70.2426407 58.7487417,69 L58.748,63.25 L53,63.25 C51.7573593,63.25 50.75,62.2426407 50.75,61 C50.75,59.7573593 51.7573593,58.75 53,58.75 L58.748,58.75 L58.7487417,53 C58.7487417,51.7573593 59.756101,50.75 60.9987417,50.75 Z" id="Shape" fill="#FFFFFF"></path>
    </g>
</svg>
