<?xml version="1.0" encoding="UTF-8"?>
<svg width="72px" height="72px" viewBox="0 0 72 72" version="1.1" xmlns="http://www.w3.org/2000/svg" xmlns:xlink="http://www.w3.org/1999/xlink">
    <title>Filled / Page / page_table_split</title>
    <g id="Filled-/-Page-/-page_table_split" stroke="none" fill="none" fill-rule="nonzero">
        <path d="M61.2028918,47.863741 C62.5750536,48.0171599 63.5630398,49.2538875 63.4096208,50.6260492 C62.5933298,57.9268624 56.402184,63.5 49,63.5 L23,63.5 C15.7130879,63.5 9.58498332,58.0953309 8.62834288,50.9354724 C8.44548865,49.5669222 9.40668513,48.3092604 10.7752353,48.1264062 C12.1437855,47.9435519 13.4014473,48.9047484 13.5843015,50.2732986 C14.2101887,54.9576749 18.2266674,58.5 23,58.5 L49,58.5 C53.8488619,58.5 57.9064815,54.8474172 58.4405835,50.07047 C58.5940025,48.6983082 59.8307301,47.710322 61.2028918,47.863741 Z M21.4948186,25.318329 C22.4235799,26.1438946 22.5072365,27.5660574 21.681671,28.4948186 L17.0100323,33.75 L29,33.75 C30.190864,33.75 31.1656449,34.6751616 31.2448092,35.8459512 L31.25,36 C31.25,37.2426407 30.2426407,38.25 29,38.25 L17.0100323,38.25 L21.681671,43.5051814 C22.4697108,44.3917262 22.4293065,45.7278373 21.6162236,46.5654983 L21.4948186,46.681671 C20.5660574,47.5072365 19.1438946,47.4235799 18.318329,46.4948186 L10.3773836,37.561255 C9.58593279,36.6708729 9.58593279,35.3291271 10.3773836,34.438745 L18.318329,25.5051814 C19.1438946,24.5764201 20.5660574,24.4927635 21.4948186,25.318329 Z M53.681671,25.5051814 L61.6226164,34.438745 C62.4140672,35.3291271 62.4140672,36.6708729 61.6226164,37.561255 L53.681671,46.4948186 C52.8561054,47.4235799 51.4339426,47.5072365 50.5051814,46.681671 C49.5764201,45.8561054 49.4927635,44.4339426 50.318329,43.5051814 L54.9890323,38.25 L44,38.25 C42.7573593,38.25 41.75,37.2426407 41.75,36 C41.75,34.7573593 42.7573593,33.75 44,33.75 L54.9890323,33.75 L50.318329,28.4948186 C49.4927635,27.5660574 49.5764201,26.1438946 50.5051814,25.318329 C51.4339426,24.4927635 52.8561054,24.5764201 53.681671,25.5051814 Z M49,8.5 C56.3409264,8.5 62.4987935,13.9833474 63.3902827,21.209489 C63.5593395,22.579812 62.5855208,23.8277258 61.2151978,23.9967826 C59.8448749,24.1658394 58.596961,23.1920207 58.4279042,21.8216977 C57.8446261,17.0938223 53.8087192,13.5 49,13.5 L23,13.5 C18.2684316,13.5 14.2752262,16.9819156 13.5999504,21.6146671 C13.4008006,22.9809411 12.1317738,23.9270822 10.7654999,23.7279323 C9.39922586,23.5287825 8.4530848,22.2597557 8.65223464,20.8934818 C9.68438354,13.8123905 15.7768535,8.5 23,8.5 L49,8.5 Z" id="Shape" fill="#FFFFFF"></path>
    </g>
</svg>