<?xml version="1.0" encoding="UTF-8"?>
<svg width="72px" height="72px" viewBox="0 0 72 72" version="1.1" xmlns="http://www.w3.org/2000/svg" xmlns:xlink="http://www.w3.org/1999/xlink">
    <title>Filled / Page / page_table_highlight</title>
    <g id="Filled-/-Page-/-page_table_highlight" stroke="none" fill="none" fill-rule="nonzero">
        <path d="M49,8.5 C57.0081289,8.5 63.5,14.9918711 63.5,23 L63.5,49 C63.5,57.0081289 57.0081289,63.5 49,63.5 L23,63.5 C14.9918711,63.5 8.5,57.0081289 8.5,49 L8.5,23 C8.5,14.9918711 14.9918711,8.5 23,8.5 L49,8.5 Z M23,13.5 C17.7532949,13.5 13.5,17.7532949 13.5,23 L13.5,49 C13.5,54.2467051 17.7532949,58.5 23,58.5 L49,58.5 C54.2467051,58.5 58.5,54.2467051 58.5,49 L58.5,23 C58.5,17.7532949 54.2467051,13.5 49,13.5 L23,13.5 Z M51.767767,36.232233 C52.7440777,37.2085438 52.7440777,38.7914562 51.767767,39.767767 L39.767767,51.767767 C38.7914562,52.7440777 37.2085438,52.7440777 36.232233,51.767767 C35.2559223,50.7914562 35.2559223,49.2085438 36.232233,48.232233 L48.232233,36.232233 C49.2085438,35.2559223 50.7914562,35.2559223 51.767767,36.232233 Z M50.767767,21.232233 C51.7440777,22.2085438 51.7440777,23.7914562 50.767767,24.767767 L24.767767,50.767767 C23.7914562,51.7440777 22.2085438,51.7440777 21.232233,50.767767 C20.2559223,49.7914562 20.2559223,48.2085438 21.232233,47.232233 L47.232233,21.232233 C48.2085438,20.2559223 49.7914562,20.2559223 50.767767,21.232233 Z M35.767767,20.232233 C36.7440777,21.2085438 36.7440777,22.7914562 35.767767,23.767767 L23.767767,35.767767 C22.7914562,36.7440777 21.2085438,36.7440777 20.232233,35.767767 C19.2559223,34.7914562 19.2559223,33.2085438 20.232233,32.232233 L32.232233,20.232233 C33.2085438,19.2559223 34.7914562,19.2559223 35.767767,20.232233 Z" id="Shape" fill="#FFFFFF"></path>
    </g>
</svg>