<?xml version="1.0" encoding="UTF-8"?>
<svg width="72px" height="72px" viewBox="0 0 72 72" version="1.1" xmlns="http://www.w3.org/2000/svg" xmlns:xlink="http://www.w3.org/1999/xlink">
    <title>Filled / Page / page_table_highlight_off</title>
    <g id="Filled-/-Page-/-page_table_highlight_off" stroke="none" fill="none" fill-rule="evenodd" stroke-width="1">
        <g id="Group-2" fill="#FFFFFF">
            <path d="M11.767767,8.23223305 L63.767767,60.232233 C64.7440777,61.2085438 64.7440777,62.7914562 63.767767,63.767767 C62.7914562,64.7440777 61.2085438,64.7440777 60.232233,63.767767 L8.23223305,11.767767 C7.25592232,10.7914562 7.25592232,9.20854378 8.23223305,8.23223305 C9.20854378,7.25592232 10.7914562,7.25592232 11.767767,8.23223305 Z M9.55656019,17.5561787 L13.6021288,21.602084 C13.5348488,22.0583048 13.5,22.5250827 13.5,23 L13.5,49 C13.5,54.2467051 17.7532949,58.5 23,58.5 L49,58.5 C49.4749173,58.5 49.9416952,58.4651512 50.397916,58.3978712 L54.4428214,62.4438451 C52.7622211,63.1249145 50.9249135,63.5 49,63.5 L23,63.5 C14.9918711,63.5 8.5,57.0081289 8.5,49 L8.5,23 C8.5,21.0747047 8.87523425,19.2370501 9.55656019,17.5561787 Z M49,8.5 C57.0081289,8.5 63.5,14.9918711 63.5,23 L63.5,49 C63.5,50.9249135 63.1249145,52.7622211 62.4438451,54.4428214 L58.3978712,50.397916 C58.4651512,49.9416952 58.5,49.4749173 58.5,49 L58.5,23 C58.5,17.7532949 54.2467051,13.5 49,13.5 L23,13.5 C22.5250827,13.5 22.0583048,13.5348488 21.602084,13.6021288 L17.5561787,9.55656019 C19.2370501,8.87523425 21.0747047,8.5 23,8.5 L49,8.5 Z M38.232,46.232 L41.767,49.767 L39.767767,51.767767 C38.7914562,52.7440777 37.2085438,52.7440777 36.232233,51.767767 C35.2559223,50.7914562 35.2559223,49.2085438 36.232233,48.232233 L38.232,46.232 Z M30.232,38.232 L33.767,41.767 L24.767767,50.767767 C23.7914562,51.7440777 22.2085438,51.7440777 21.232233,50.767767 C20.2559223,49.7914562 20.2559223,48.2085438 21.232233,47.232233 L30.232,38.232 Z M51.767767,36.232233 C52.7440777,37.2085438 52.7440777,38.7914562 51.767767,39.767767 L49.767,41.767 L46.232,38.232 L48.232233,36.232233 C49.2085438,35.2559223 50.7914562,35.2559223 51.767767,36.232233 Z M22.232,30.232 L25.767,33.767 L23.767767,35.767767 C22.7914562,36.7440777 21.2085438,36.7440777 20.232233,35.767767 C19.2559223,34.7914562 19.2559223,33.2085438 20.232233,32.232233 L22.232,30.232 Z M50.767767,21.232233 C51.7440777,22.2085438 51.7440777,23.7914562 50.767767,24.767767 L41.767,33.767 L38.232,30.232 L47.232233,21.232233 C48.2085438,20.2559223 49.7914562,20.2559223 50.767767,21.232233 Z M35.767767,20.232233 C36.7440777,21.2085438 36.7440777,22.7914562 35.767767,23.767767 L33.767,25.767 L30.232,22.232 L32.232233,20.232233 C33.2085438,19.2559223 34.7914562,19.2559223 35.767767,20.232233 Z" id="Shape"></path>
        </g>
    </g>
</svg>