<?xml version="1.0" encoding="UTF-8"?>
<svg width="72px" height="72px" viewBox="0 0 72 72" version="1.1" xmlns="http://www.w3.org/2000/svg" xmlns:xlink="http://www.w3.org/1999/xlink">
    <title>Filled / Page / page_table_borderless</title>
    <g id="Filled-/-Page-/-page_table_borderless" stroke="none" fill="none" fill-rule="nonzero">
        <path d="M62.35,24.2248521 L62.35,47.7751479 C62.35,54.720047 56.720047,60.35 49.7751479,60.35 L22.2248521,60.35 C15.279953,60.35 9.65,54.720047 9.65,47.7751479 L9.65,24.2248521 C9.65,17.279953 15.279953,11.65 22.2248521,11.65 L49.7751479,11.65 C56.720047,11.65 62.35,17.279953 62.35,24.2248521 Z M22.2248521,16.35 C17.8756914,16.35 14.35,19.8756914 14.35,24.2248521 L14.35,47.7751479 C14.35,52.1243086 17.8756914,55.65 22.2248521,55.65 L49.7751479,55.65 C54.1243086,55.65 57.65,52.1243086 57.65,47.7751479 L57.65,24.2248521 C57.65,19.8756914 54.1243086,16.35 49.7751479,16.35 L22.2248521,16.35 Z" id="Rectangle" fill-opacity="0.4" fill="#FFFFFF"></path>
        <polygon id="Path" fill="#FFFFFF" points="14.35 30.4091716 57.65 30.4091716 57.65 25.7091716 14.35 25.7091716"></polygon>
        <polygon id="Path" fill="#FFFFFF" points="14.35 45.7464497 57.65 45.7464497 57.65 41.0464497 14.35 41.0464497"></polygon>
    </g>
</svg>