<?xml version="1.0" encoding="UTF-8"?>
<svg width="72px" height="72px" viewBox="0 0 72 72" version="1.1" xmlns="http://www.w3.org/2000/svg" xmlns:xlink="http://www.w3.org/1999/xlink">
    <title>Filled / Page / page_table_add1</title>
    <g id="Filled-/-Page-/-page_table_add1" stroke="none" fill="none" fill-rule="nonzero">
        <path d="M60.9987417,50.75 C62.2413824,50.75 63.2487417,51.7573593 63.2487417,53 L63.248,58.75 L69,58.75 C70.2426407,58.75 71.25,59.7573593 71.25,61 C71.25,62.2426407 70.2426407,63.25 69,63.25 L63.248,63.25 L63.2487417,69 C63.2487417,70.2426407 62.2413824,71.25 60.9987417,71.25 C59.756101,71.25 58.7487417,70.2426407 58.7487417,69 L58.748,63.25 L53,63.25 C51.7573593,63.25 50.75,62.2426407 50.75,61 C50.75,59.7573593 51.7573593,58.75 53,58.75 L58.748,58.75 L58.7487417,53 C58.7487417,51.7573593 59.756101,50.75 60.9987417,50.75 Z M49,8.5 C57.0081289,8.5 63.5,14.9918711 63.5,23 L63.5,44 C63.5,45.3807119 62.3807119,46.5 61,46.5 C59.6192881,46.5 58.5,45.3807119 58.5,44 L58.5,23 C58.5,17.7532949 54.2467051,13.5 49,13.5 L23,13.5 C17.7532949,13.5 13.5,17.7532949 13.5,23 L13.5,49 C13.5,54.2467051 17.7532949,58.5 23,58.5 L44,58.5 C45.3807119,58.5 46.5,59.6192881 46.5,61 C46.5,62.3807119 45.3807119,63.5 44,63.5 L23,63.5 C14.9918711,63.5 8.5,57.0081289 8.5,49 L8.5,23 C8.5,14.9918711 14.9918711,8.5 23,8.5 L49,8.5 Z M39.5909903,24.4090097 L49.5202796,34.3382991 C50.4380117,35.2560311 50.4380117,36.7439689 49.5202796,37.6617009 L39.5909903,47.5909903 C38.7123106,48.4696699 37.2876894,48.4696699 36.4090097,47.5909903 C35.5303301,46.7123106 35.5303301,45.2876894 36.4090097,44.4090097 L42.568,38.25 L26,38.25 C24.7573593,38.25 23.75,37.2426407 23.75,36 C23.75,34.7573593 24.7573593,33.75 26,33.75 L42.568,33.75 L36.4090097,27.5909903 C35.5303301,26.7123106 35.5303301,25.2876894 36.4090097,24.4090097 C37.2876894,23.5303301 38.7123106,23.5303301 39.5909903,24.4090097 Z" id="Shape" fill="#FFFFFF"></path>
    </g>
</svg>