<?xml version="1.0" encoding="UTF-8"?>
<svg width="24px" height="24px" viewBox="0 0 72 72" version="1.1" xmlns="http://www.w3.org/2000/svg" xmlns:xlink="http://www.w3.org/1999/xlink">
    <title>Filled / Page / page_table_alignment</title>
    <g id="Filled-/-Page-/-page_table_alignment" stroke="none" fill="none" fill-rule="nonzero">
        <path d="M40.097561,22 C40.097561,23.3807119 38.9782729,24.5 37.597561,24.5 L12,24.5 C10.6192881,24.5 9.5,23.3807119 9.5,22 C9.5,20.6192881 10.6192881,19.5 12,19.5 L37.597561,19.5 C38.9782729,19.5 40.097561,20.6192881 40.097561,22 Z M62.5,39 C62.5,40.3807119 61.3807119,41.5 60,41.5 L12,41.5 C10.6192881,41.5 9.5,40.3807119 9.5,39 C9.5,37.6192881 10.6192881,36.5 12,36.5 L60,36.5 C61.3807119,36.5 62.5,37.6192881 62.5,39 Z M40.097561,55 C40.097561,56.3807119 38.9782729,57.5 37.597561,57.5 L12,57.5 C10.6192881,57.5 9.5,56.3807119 9.5,55 C9.5,53.6192881 10.6192881,52.5 12,52.5 L37.597561,52.5 C38.9782729,52.5 40.097561,53.6192881 40.097561,55 Z" id="Shape" fill="#FFFFFF"></path>
    </g>
</svg>
