<?xml version="1.0" encoding="UTF-8"?>
<svg width="72px" height="72px" viewBox="0 0 72 72" version="1.1" xmlns="http://www.w3.org/2000/svg" xmlns:xlink="http://www.w3.org/1999/xlink">
    <title>Filled / Page / page_table_add2</title>
    <g id="Filled-/-Page-/-page_table_add2" stroke="none" fill="none" fill-rule="evenodd" stroke-width="1">
        <g id="Group-2" transform="translate(11, 11)" fill="#FFFFFF">
            <path d="M49.9987417,39.75 C51.2413824,39.75 52.2487417,40.7573593 52.2487417,42 L52.248,47.75 L58,47.75 C59.2426407,47.75 60.25,48.7573593 60.25,50 C60.25,51.2426407 59.2426407,52.25 58,52.25 L52.248,52.25 L52.2487417,58 C52.2487417,59.2426407 51.2413824,60.25 49.9987417,60.25 C48.756101,60.25 47.7487417,59.2426407 47.7487417,58 L47.748,52.25 L42,52.25 C40.7573593,52.25 39.75,51.2426407 39.75,50 C39.75,48.7573593 40.7573593,47.75 42,47.75 L47.748,47.75 L47.7487417,42 C47.7487417,40.7573593 48.756101,39.75 49.9987417,39.75 Z M38,-2.5 C46.0081289,-2.5 52.5,3.99187113 52.5,12 L52.5,33 C52.5,34.3807119 51.3807119,35.5 50,35.5 C48.6192881,35.5 47.5,34.3807119 47.5,33 L47.5,12 C47.5,6.75329488 43.2467051,2.5 38,2.5 L12,2.5 C6.75329488,2.5 2.5,6.75329488 2.5,12 L2.5,38 C2.5,43.2467051 6.75329488,47.5 12,47.5 L33,47.5 C34.3807119,47.5 35.5,48.6192881 35.5,50 C35.5,51.3807119 34.3807119,52.5 33,52.5 L12,52.5 C3.99187113,52.5 -2.5,46.0081289 -2.5,38 L-2.5,12 C-2.5,3.99187113 3.99187113,-2.5 12,-2.5 L38,-2.5 Z M26.5909903,13.4090097 C27.4696699,14.2876894 27.4696699,15.7123106 26.5909903,16.5909903 L20.431,22.75 L37,22.75 C38.2426407,22.75 39.25,23.7573593 39.25,25 C39.25,26.2426407 38.2426407,27.25 37,27.25 L20.431,27.25 L26.5909903,33.4090097 C27.4696699,34.2876894 27.4696699,35.7123106 26.5909903,36.5909903 C25.7123106,37.4696699 24.2876894,37.4696699 23.4090097,36.5909903 L13.4797204,26.6617009 C12.5619883,25.7439689 12.5619883,24.2560311 13.4797204,23.3382991 L23.4090097,13.4090097 C24.2876894,12.5303301 25.7123106,12.5303301 26.5909903,13.4090097 Z" id="Shape"></path>
        </g>
    </g>
</svg>