<?xml version="1.0" encoding="UTF-8"?>
<svg width="24px" height="24px" viewBox="0 0 72 72" version="1.1" xmlns="http://www.w3.org/2000/svg" xmlns:xlink="http://www.w3.org/1999/xlink">
    <title>Filled / Page / page_checklist</title>
    <g id="Filled-/-Page-/-page_checklist" stroke="none" fill="none" fill-rule="nonzero">
        <path d="M62,26 C62,27.3807119 60.8807119,28.5 59.5,28.5 L32.28,28.5 C30.8992881,28.5 29.78,27.3807119 29.78,26 C29.78,24.6192881 30.8992881,23.5 32.28,23.5 L59.5,23.5 C60.8807119,23.5 62,24.6192881 62,26 Z M62,46 C62,47.3807119 60.8807119,48.5 59.5,48.5 L32.28,48.5 C30.8992881,48.5 29.78,47.3807119 29.78,46 C29.78,44.6192881 30.8992881,43.5 32.28,43.5 L59.5,43.5 C60.8807119,43.5 62,44.6192881 62,46 Z M25.4145635,16.7653692 C26.4623738,17.5312398 26.6909311,19.0015188 25.9250605,20.0493291 L18.5847726,30.091795 C17.6977834,31.3053112 15.9372661,31.441332 14.8743994,30.3784653 L10.79826,26.3023259 C9.88052792,25.3845939 9.88052792,23.8966561 10.79826,22.9789241 C11.7159921,22.061192 13.2039298,22.061192 14.1216619,22.9789241 L16.3403803,25.1976425 L22.1306036,17.2758662 C22.8964742,16.2280559 24.3667531,15.9994985 25.4145635,16.7653692 Z M25.4525258,38.2111887 C26.4846849,38.9980253 26.6835581,40.4726127 25.8967215,41.5047718 L18.5568923,51.1330373 C17.6576878,52.3125988 15.9248571,52.428923 14.876064,51.3801299 L10.79826,47.3023259 C9.88052792,46.3845939 9.88052792,44.8966561 10.79826,43.9789241 C11.7159921,43.061192 13.2039298,43.061192 14.1216619,43.9789241 L16.3794994,46.2367616 L22.1589426,38.6553844 C22.9457792,37.6232253 24.4203666,37.4243521 25.4525258,38.2111887 Z" id="Shape" fill="#FFFFFF"></path>
    </g>
</svg>