<?xml version="1.0" encoding="UTF-8"?>
<svg width="24px" height="24px" viewBox="0 0 72 72" version="1.1" xmlns="http://www.w3.org/2000/svg" xmlns:xlink="http://www.w3.org/1999/xlink">
    <title>Tabs / tabs_text_style</title>
    <g id="Tabs-/-tabs_text_style" stroke="none" fill="none" fill-rule="nonzero">
        <path d="M51.2706466,54.8910522 C52.5523442,54.8910522 53.8499756,54.5475922 55.7363281,53.9494171 C57.6226807,53.3512421 59.7655298,51.4213257 60.2902694,50.3398438 L60.4104781,50.3398438 L60.4104781,52.4134827 C60.4353398,53.1995341 60.6858738,53.8116862 61.1620803,54.249939 C61.6382867,54.6881917 62.2501082,54.9073181 62.9975448,54.9073181 C63.7746037,54.9073181 64.405931,54.6738434 64.8915267,54.2068939 C65.3771224,53.7399445 65.6199203,53.0709941 65.6199203,52.2000427 L65.6199203,35.4648438 C65.6199203,33.59493 65.169964,31.9662272 64.2700515,30.5787354 C63.370139,29.1912435 62.0927393,28.1123403 60.4378524,27.3420258 C58.7829655,26.5717112 56.8263005,26.186554 54.5678573,26.186554 C51.9732528,26.186554 49.7076685,26.6810099 47.7711043,27.6699219 C45.8345402,28.6588338 44.5115829,29.9927673 43.8022323,31.6717224 C43.6562362,31.9764099 43.5447555,32.2772624 43.4677901,32.5742798 C43.3908248,32.8712972 43.3523421,33.1598511 43.3523421,33.4399414 C43.3523421,34.0884603 43.5692204,34.6130676 44.0029769,35.0137634 C44.4367334,35.4144592 44.9996912,35.6148071 45.6918502,35.6148071 C46.1710982,35.6148071 46.5956639,35.5211792 46.9655471,35.3339233 C47.3354303,35.1466675 47.6491764,34.8552043 47.9067855,34.4595337 C48.6581893,33.0768026 49.5486465,32.0660044 50.5781569,31.4271393 C51.6076674,30.7882741 52.878984,30.4688416 54.3921065,30.4688416 C56.2173222,30.4688416 57.6544051,30.9478912 58.7033553,31.9059906 C59.7523055,32.86409 60.2767806,34.1758728 60.2767806,35.8413391 L60.2767806,37.9320984 L52.3640304,38.3796082 C49.0082361,38.558136 46.4344598,39.365743 44.6427016,40.8024292 C42.8509434,42.2391154 41.9550643,44.1780599 41.9550643,46.6192627 C41.9550643,48.2722982 42.3517928,49.7179108 43.1452498,50.9561005 C43.9387069,52.1942902 45.0365208,53.1596629 46.4386916,53.8522186 C47.8408624,54.5447744 49.4515141,54.8910522 51.2706466,54.8910522 Z M52.7492537,50.7753906 C51.155992,50.7753906 49.8660954,50.3747609 48.8795638,49.5735016 C47.8930322,48.7722422 47.3997664,47.7195231 47.3997664,46.4153442 C47.3997664,45.1511027 47.8888005,44.1264191 48.8668685,43.3412933 C49.8449365,42.5561676 51.2504134,42.1021118 53.0832992,41.979126 L60.2767806,41.5201111 L60.2767806,44.0905151 C60.2767806,45.3547567 59.9403548,46.4889374 59.2675033,47.4930573 C58.5946517,48.4971771 57.6883915,49.2952627 56.5487227,49.8873138 C55.409054,50.479365 54.1425643,50.7753906 52.7492537,50.7753906 Z M7.94194174,54.68396 C8.82373699,54.68396 9.51212708,54.4873149 10.007112,54.0940247 C10.502097,53.7007345 10.8867253,53.0499674 11.1609969,52.1417236 L13.9380965,44.3547363 L28.3833785,44.3547363 L31.1652389,52.1417236 C31.4395105,53.0499674 31.8241388,53.7007345 32.3191237,54.0940247 C32.8141087,54.4873149 33.4940352,54.68396 34.3589034,54.68396 C35.281165,54.68396 36.0149144,54.4302521 36.5601516,53.9228363 C37.1053888,53.4154205 37.3780074,52.7329814 37.3780074,51.8755188 C37.3780074,51.2968241 37.2585921,50.6690674 37.0197616,49.9922485 L25.8609786,19.8226318 C25.4568445,18.7041219 24.8760339,17.8776703 24.118547,17.343277 C23.36106,16.8088837 22.3836532,16.541687 21.1863265,16.541687 C18.9170394,16.541687 17.3959823,17.6284587 16.6231551,19.802002 L5.39930868,50.1390381 C5.16656129,50.8063354 5.05018759,51.4030151 5.05018759,51.9290771 C5.05018759,52.7862752 5.3089207,53.4597219 5.82638693,53.9494171 C6.34385316,54.4391123 7.04903809,54.68396 7.94194174,54.68396 Z M15.4151168,39.5523376 L21.1101546,23.1115112 L21.255754,23.1115112 L26.9555526,39.5523376 L15.4151168,39.5523376 Z" id="Shape" fill="#FFFFFF"></path>
    </g>
</svg>