<?xml version="1.0" encoding="UTF-8"?>
<svg width="72px" height="72px" viewBox="0 0 72 72" version="1.1" xmlns="http://www.w3.org/2000/svg" xmlns:xlink="http://www.w3.org/1999/xlink">
    <title>Filled / Page / page_collage_on</title>
    <g id="Filled-/-Page-/-page_collage_on" stroke="none" fill="none" fill-rule="nonzero">
        <path d="M47,11.4 C54.5110726,11.4 60.6,17.4889274 60.6,25 L60.6,47 C60.6,54.5110726 54.5110726,60.6 47,60.6 L25,60.6 C17.4889274,60.6 11.4,54.5110726 11.4,47 L11.4,25 C11.4,17.4889274 17.4889274,11.4 25,11.4 L47,11.4 Z M38.141,38.141 L38.141,55.4 L47,55.4 C51.6391919,55.4 55.4,51.6391919 55.4,47 L55.399,38.141 L38.141,38.141 Z M16.599,38.141 L16.6,47 C16.6,51.6391919 20.3608081,55.4 25,55.4 L32.941,55.4 L32.941,38.141 L16.599,38.141 Z M25,16.6 C20.3608081,16.6 16.6,20.3608081 16.6,25 L16.599,32.941 L55.399,32.941 L55.4,25 C55.4,20.3608081 51.6391919,16.6 47,16.6 L25,16.6 Z" id="Shape" fill="#FFFFFF"></path>
    </g>
</svg>
