<?xml version="1.0" encoding="UTF-8"?>
<svg width="72px" height="72px" viewBox="0 0 72 72" version="1.1" xmlns="http://www.w3.org/2000/svg" xmlns:xlink="http://www.w3.org/1999/xlink">
    <title>Filled / Page / page_collage_off</title>
    <g id="Filled-/-Page-/-page_collage_off" stroke="none" fill="none" fill-rule="nonzero">
        <path d="M66.2423729,22.4067797 L66.2423729,49.8644068 C66.2423729,51.3555756 65.0335417,52.5644068 63.5423729,52.5644068 C62.0512041,52.5644068 60.8423729,51.3555756 60.8423729,49.8644068 L60.8423729,22.4067797 C60.8423729,20.9156108 62.0512041,19.7067797 63.5423729,19.7067797 C65.0335417,19.7067797 66.2423729,20.9156108 66.2423729,22.4067797 Z M11.1576271,22.4067797 L11.1576271,49.8644068 C11.1576271,51.3555756 9.94879594,52.5644068 8.45762712,52.5644068 C6.96645829,52.5644068 5.75762712,51.3555756 5.75762712,49.8644068 L5.75762712,22.4067797 C5.75762712,20.9156108 6.96645829,19.7067797 8.45762712,19.7067797 C9.94879594,19.7067797 11.1576271,20.9156108 11.1576271,22.4067797 Z M57.7,26 L57.7,46 C57.7,53.5663011 51.5663011,59.7 44,59.7 L28,59.7 C20.4336989,59.7 14.3,53.5663011 14.3,46 L14.3,26 C14.3,18.4336989 20.4336989,12.3 28,12.3 L44,12.3 C51.5663011,12.3 57.7,18.4336989 57.7,26 Z M28,17.7 C23.4160366,17.7 19.7,21.4160366 19.7,26 L19.7,46 C19.7,50.5839634 23.4160366,54.3 28,54.3 L44,54.3 C48.5839634,54.3 52.3,50.5839634 52.3,46 L52.3,26 C52.3,21.4160366 48.5839634,17.7 44,17.7 L28,17.7 Z" id="Shape" fill="#FFFFFF"></path>
    </g>
</svg>
