<?xml version="1.0" encoding="UTF-8"?>
<svg width="24px" height="24px" viewBox="0 0 72 72" version="1.1" xmlns="http://www.w3.org/2000/svg" xmlns:xlink="http://www.w3.org/1999/xlink">
    <title>Filled / Page / page_underline</title>
    <g id="Filled-/-Page-/-page_underline" stroke="none" fill="none" fill-rule="nonzero">
        <path d="M48.9118652,34.1791992 C48.9118652,43.7250977 44.6037598,48.4980469 35.9875488,48.4980469 C31.3391113,48.4980469 28.0021973,47.2363281 25.9768066,44.7128906 C24.1174316,42.4052734 23.1877441,38.777832 23.1877441,33.8305664 L23.1877441,17.4316406 C23.1877441,17.1660156 23.079834,17.0332031 22.8640137,17.0332031 L18.8049316,17.0332031 C18.3400879,17.0332031 18.0246582,16.5849609 17.8586426,15.6884766 C17.8254395,15.4560547 17.8005371,15.2402344 17.7839355,15.0410156 C17.7839355,14.0283203 17.9997559,13.5219727 18.4313965,13.5219727 L32.6755371,13.5219727 C33.0905762,13.5219727 33.2980957,14.1030273 33.2980957,15.2651367 C33.2980957,16.4438477 33.0075684,17.0332031 32.4265137,17.0332031 L28.4421387,17.0332031 L28.4421387,33.6064453 C28.4421387,39.2675781 30.0524902,42.6791992 33.2731934,43.8413086 C34.2858887,44.206543 35.4562988,44.3891602 36.7844238,44.3891602 C38.1125488,44.3891602 39.2912598,44.1774902 40.3205566,43.7541504 C41.3498535,43.3308105 42.1965332,42.6791992 42.8605957,41.7993164 C44.1555176,40.0893555 44.8029785,37.3833008 44.8029785,33.6811523 L44.8029785,17.4316406 C44.8029785,17.1660156 44.6950684,17.0332031 44.479248,17.0332031 L40.8933105,17.0332031 C40.4118652,17.0332031 40.0881348,16.5849609 39.9221191,15.6884766 C39.888916,15.4560547 39.8723145,15.2236328 39.8723145,14.9912109 C39.8723145,14.0117187 40.0881348,13.5219727 40.5197754,13.5219727 L53.3693848,13.5219727 C53.8010254,13.5219727 54.0168457,14.0532227 54.0168457,15.1157227 C54.0168457,15.9125977 53.9047852,16.4313965 53.6806641,16.6721191 C53.456543,16.9128418 53.2697754,17.0332031 53.1203613,17.0332031 L48.9118652,17.0332031 L48.9118652,34.1791992 Z M59.2,58.5 C59.2,59.7150264 58.2150264,60.7 57,60.7 L15,60.7 C13.7849736,60.7 12.8,59.7150264 12.8,58.5 C12.8,57.2849736 13.7849736,56.3 15,56.3 L57,56.3 C58.2150264,56.3 59.2,57.2849736 59.2,58.5 Z" id="Shape" fill="#FFFFFF"></path>
    </g>
</svg>