<?xml version="1.0" encoding="UTF-8"?>
<svg width="72px" height="72px" viewBox="0 0 72 72" version="1.1" xmlns="http://www.w3.org/2000/svg" xmlns:xlink="http://www.w3.org/1999/xlink">
    <title>Filled / filled_poll_view</title>
    <g id="Filled-/-filled_poll_view" stroke="none" fill="none" fill-rule="evenodd">
        <path d="M36,14 C50.34375,14 63,28.6467438 63,35.5 C63,42.3532562 50.34375,57 36,57 C21.65625,57 9,42.2272172 9,35.5 C9,28.7727828 21.65625,14 36,14 Z M36,21.1666667 C28.2680135,21.1666667 22,27.5839186 22,35.5 C22,43.4160814 28.2680135,49.8333333 36,49.8333333 C43.7319865,49.8333333 50,43.4160814 50,35.5 C50,27.5839186 43.7319865,21.1666667 36,21.1666667 Z M36,26.2857143 C40.9705627,26.2857143 45,30.4110905 45,35.5 C45,40.5889095 40.9705627,44.7142857 36,44.7142857 C31.0294373,44.7142857 27,40.5889095 27,35.5 C27,30.4110905 31.0294373,26.2857143 36,26.2857143 Z" id="Shape" fill="#FFFFFF"></path>
    </g>
</svg>