<?xml version="1.0" encoding="UTF-8"?>
<svg width="72px" height="72px" viewBox="0 0 72 72" version="1.1" xmlns="http://www.w3.org/2000/svg" xmlns:xlink="http://www.w3.org/1999/xlink">
    <title>Filled / filled_poll_revote</title>
    <g id="Filled-/-filled_poll_revote" stroke="none" fill="none" fill-rule="nonzero">
        <path d="M16.7507988,28.8661257 C16.8389425,28.9366406 16.919004,29.0167022 16.9895189,29.1048458 L24.5984627,38.6160256 C24.8621457,38.9456293 24.8087064,39.4265832 24.4791027,39.6902661 C24.3435863,39.7986792 24.175208,39.8577431 24.0016625,39.8577431 L18.4910881,39.8576308 C20.2399531,48.0322807 27.4321212,54.15 36.0284229,54.15 C40.7008203,54.15 45.0859067,52.3395591 48.4025538,49.1436671 C49.5359903,48.0514976 51.3402004,48.0849512 52.4323698,49.2183877 C53.5245392,50.3518242 53.4910857,52.1560342 52.3576492,53.2482037 C47.9904523,57.4563963 42.1928815,59.85 36.0284229,59.85 C24.267193,59.85 14.5200422,51.1906554 12.6927481,39.8571048 L7.59017428,39.8577431 C7.1680756,39.8577431 6.82589701,39.5155645 6.82589701,39.0934658 C6.82589701,38.9199202 6.88496093,38.7515419 6.993374,38.6160256 L14.6023178,29.1048458 C15.1296837,28.4456385 16.0915914,28.3387598 16.7507988,28.8661257 Z M36.0284229,12.15 C47.9315923,12.15 57.7717756,21.0196149 59.4267845,32.5543871 L64.4098257,32.5540216 C64.5833713,32.5540216 64.7517496,32.6130855 64.8872659,32.7214986 C65.2168696,32.9851816 65.270309,33.4661354 65.006626,33.7957391 L57.3976822,43.3069189 C57.3271673,43.3950625 57.2471057,43.4751241 57.1589621,43.545639 C56.4997547,44.0730049 55.537847,43.9661263 55.0104811,43.3069189 L47.4015373,33.7957391 C47.2931242,33.6602228 47.2340603,33.4918445 47.2340603,33.3182989 C47.2340603,32.8962002 47.5762389,32.5540216 47.9983375,32.5540216 L53.648921,32.5542434 C52.0570804,24.1740704 44.7684992,17.85 36.0284229,17.85 C31.1883177,17.85 26.6584709,19.7937975 23.3100187,23.1970372 C22.2060923,24.319026 20.4016315,24.3336685 19.2796427,23.2297422 C18.1576539,22.1258158 18.1430114,20.321355 19.2469377,19.1993662 C23.6547728,14.71941 29.6425538,12.15 36.0284229,12.15 Z" id="Shape" fill="#FFFFFF"></path>
    </g>
</svg>