<?xml version="1.0" encoding="UTF-8"?>
<svg width="72px" height="72px" viewBox="0 0 72 72" version="1.1" xmlns="http://www.w3.org/2000/svg" xmlns:xlink="http://www.w3.org/1999/xlink">
    <title>Filled / filled_poll_add</title>
    <g id="Filled-/-filled_poll_add" stroke="none" fill="none" fill-rule="evenodd">
        <path d="M36,11 C49.8071187,11 61,22.1928813 61,36 C61,49.8071187 49.8071187,61 36,61 C22.1928813,61 11,49.8071187 11,36 C11,22.1928813 22.1928813,11 36,11 Z M36,21.8333333 C34.6192881,21.8333333 33.5,22.9526215 33.5,24.3333333 L33.4993333,33.4993333 L24.3333333,33.5 C22.9526215,33.5 21.8333333,34.6192881 21.8333333,36 C21.8333333,37.3807119 22.9526215,38.5 24.3333333,38.5 L33.4993333,38.4993333 L33.5,47.6666667 C33.5,49.0473785 34.6192881,50.1666667 36,50.1666667 C37.3807119,50.1666667 38.5,49.0473785 38.5,47.6666667 L38.4993333,38.4993333 L47.6666667,38.5 C49.0473785,38.5 50.1666667,37.3807119 50.1666667,36 C50.1666667,34.6192881 49.0473785,33.5 47.6666667,33.5 L38.4993333,33.4993333 L38.5,24.3333333 C38.5,22.9526215 37.3807119,21.8333333 36,21.8333333 Z" id="Shape" fill="#FFFFFF"></path>
    </g>
</svg>