<?xml version="1.0" encoding="UTF-8"?>
<svg width="72px" height="72px" viewBox="0 0 72 72" version="1.1" xmlns="http://www.w3.org/2000/svg" xmlns:xlink="http://www.w3.org/1999/xlink">
    <title>Filled / filled_poll_correct</title>
    <g id="Filled-/-filled_poll_correct" stroke="none" fill="none" fill-rule="evenodd">
        <path d="M47.2,12 C54.2692448,12 60,17.7307552 60,24.8 L60,47.2 C60,54.2692448 54.2692448,60 47.2,60 L24.8,60 C17.7307552,60 12,54.2692448 12,47.2 L12,24.8 C12,17.7307552 17.7307552,12 24.8,12 L47.2,12 Z M49.6564101,26.3327574 C48.6649568,25.3557475 47.0574935,25.3557475 46.0660402,26.3327574 L32.2666156,43.6360554 L25.9339598,37.3958969 C24.9425065,36.418887 23.3350432,36.418887 22.3435899,37.3958969 C21.3521367,38.3729068 21.3521367,39.9569529 22.3435899,40.9339628 L30.3390683,48.8129642 C31.4039625,49.8623453 33.1304972,49.8623453 34.1953915,48.8129642 L49.6564101,29.8708233 C50.6478633,28.8938134 50.6478633,27.3097674 49.6564101,26.3327574 Z" id="Shape" fill="#FFFFFF"></path>
    </g>
</svg>