<?xml version="1.0" encoding="UTF-8"?>
<svg width="72px" height="72px" viewBox="0 0 72 72" version="1.1" xmlns="http://www.w3.org/2000/svg" xmlns:xlink="http://www.w3.org/1999/xlink">
    <title>Filled / filled_poll_shuffle</title>
    <g id="Filled-/-filled_poll_shuffle" stroke="none" fill="none" fill-rule="evenodd">
        <path d="M21.5,11.5 C27.0228475,11.5 31.5,15.9771525 31.5,21.5 C31.5,26.9292399 27.1733292,31.3479317 21.7799048,31.4961582 L21.5,31.5 C15.9771525,31.5 11.5,27.0228475 11.5,21.5 C11.5,15.9771525 15.9771525,11.5 21.5,11.5 Z M50.5,40.3888889 C56.0228475,40.3888889 60.5,44.8660414 60.5,50.3888889 C60.5,55.8181288 56.1733292,60.2368206 50.7799048,60.3850471 L50.5,60.3888889 C44.9771525,60.3888889 40.5,55.9117364 40.5,50.3888889 C40.5,44.8660414 44.9771525,40.3888889 50.5,40.3888889 Z M22.786139,36.3751698 L30.4647439,44.0537747 C31.5191595,45.1081902 31.5191595,46.8177357 30.4647439,47.8721513 C29.4103283,48.9265669 27.7007828,48.9265669 26.6463672,47.8721513 L22.9218889,44.148 L22.9222222,51.5185185 C22.9222222,52.5842235 23.7861468,53.4481481 24.8518519,53.4481481 L32.2592593,53.4481481 C33.7504281,53.4481481 34.9592593,54.6569793 34.9592593,56.1481481 C34.9592593,57.639317 33.7504281,58.8481481 32.2592593,58.8481481 L24.8518519,58.8481481 C20.8038092,58.8481481 17.5222222,55.5665612 17.5222222,51.5185185 L17.5218889,44.148 L13.7980772,47.8721513 C12.7436616,48.9265669 11.0341162,48.9265669 9.97970058,47.8721513 C8.92528499,46.8177357 8.92528499,45.1081902 9.97970058,44.0537747 L17.6583054,36.3751698 C19.0743176,34.9591577 21.3701269,34.9591577 22.786139,36.3751698 Z M46.1481481,11.9296296 C50.1961908,11.9296296 53.4777778,15.2112166 53.4777778,19.2592593 L53.4768889,26.629 L57.2019228,22.9056265 C58.2563384,21.8512109 59.9658838,21.8512109 61.0202994,22.9056265 C62.074715,23.9600421 62.074715,25.6695875 61.0202994,26.7240031 L53.3416946,34.402608 C51.9256824,35.8186201 49.6298731,35.8186201 48.213861,34.402608 L40.5352561,26.7240031 C39.4808405,25.6695875 39.4808405,23.9600421 40.5352561,22.9056265 C41.5896717,21.8512109 43.2992172,21.8512109 44.3536328,22.9056265 L48.0768889,26.629 L48.0777778,19.2592593 C48.0777778,18.1935542 47.2138532,17.3296296 46.1481481,17.3296296 L38.7407407,17.3296296 C37.2495719,17.3296296 36.0407407,16.1207985 36.0407407,14.6296296 C36.0407407,13.1384608 37.2495719,11.9296296 38.7407407,11.9296296 L46.1481481,11.9296296 Z" id="Shape" fill="#FFFFFF"></path>
    </g>
</svg>