<?xml version="1.0" encoding="UTF-8"?>
<svg width="72px" height="72px" viewBox="0 0 72 72" version="1.1" xmlns="http://www.w3.org/2000/svg" xmlns:xlink="http://www.w3.org/1999/xlink">
    <title>Filled / filled_poll_multiple</title>
    <g id="Filled-/-filled_poll_multiple" stroke="none" fill="none" fill-rule="evenodd">
        <path d="M16.5555556,17.4909091 L24.8888889,17.4909091 C27.9571375,17.4909091 30.4444444,19.978216 30.4444444,23.0464646 L30.4444444,33.2599327 C30.4444444,35.3054317 28.7862398,36.9636364 26.7407407,36.9636364 L16.5555556,36.9636364 C13.4873069,36.9636364 11,34.4763294 11,31.4080808 L11,23.0464646 C11,20.0512696 13.3702738,17.6096816 16.3374087,17.4951135 L16.5555556,17.4909091 Z M38.7777778,42.5272727 L48.962963,42.5272727 C52.0312116,42.5272727 54.5185185,45.0145797 54.5185185,48.0828283 L54.5185185,56.4444444 C54.5185185,59.5126931 52.0312116,62 48.962963,62 L40.6296296,62 C37.561381,62 35.0740741,59.5126931 35.0740741,56.4444444 L35.0740741,46.2309764 C35.0740741,44.1854774 36.7322787,42.5272727 38.7777778,42.5272727 Z M53.5925926,11 C57.6835907,11 61,14.3164093 61,18.4074074 L61,29.5185185 C61,33.6095167 57.6835907,36.9259259 53.5925926,36.9259259 L40.6296296,36.9259259 C37.561381,36.9259259 35.0740741,34.438619 35.0740741,31.3703704 L35.0740741,18.4074074 C35.0740741,14.3164093 38.3904833,11 42.4814815,11 L53.5925926,11 Z M55.6874997,18.2754929 C54.8942761,17.6298824 53.7278705,17.7495465 53.0822601,18.5427701 L45.961881,27.2911613 L42.6411074,23.4457067 C41.9726527,22.6716364 40.803255,22.586018 40.0291847,23.2544728 C39.2551144,23.9229275 39.169496,25.0923251 39.8379508,25.8663954 L44.5301306,31.2999379 C45.232008,32.1127117 46.4598755,32.202611 47.2726494,31.5007335 L47.3783678,31.402175 L47.5098592,31.2565065 L55.954777,20.8807325 C56.6003874,20.0875088 56.4807233,18.9211033 55.6874997,18.2754929 Z M18.4074074,42.5272727 L25.8148148,42.5272727 C27.8603139,42.5272727 29.5185185,44.1854774 29.5185185,46.2309764 L29.5185185,53.6612795 C29.5185185,56.2181533 27.4457627,58.2909091 24.8888889,58.2909091 L18.4074074,58.2909091 C15.8505336,58.2909091 13.7777778,56.2181533 13.7777778,53.6612795 L13.7777778,47.1569024 C13.7777778,44.6710528 15.7369798,42.6427994 18.1954893,42.5320367 L18.4074074,42.5272727 Z" id="Shape" fill="#FFFFFF"></path>
    </g>
</svg>