<?xml version="1.0" encoding="UTF-8"?>
<svg width="72px" height="72px" viewBox="0 0 72 72" version="1.1" xmlns="http://www.w3.org/2000/svg" xmlns:xlink="http://www.w3.org/1999/xlink">
    <title>Filled / filled_poll_deadline</title>
    <g id="Filled-/-filled_poll_deadline" stroke="none" fill="none" fill-rule="nonzero">
        <path d="M30.8333333,13.952381 C30.0305556,13.952381 29.3576389,13.664881 28.8145833,13.089881 C28.2715278,12.514881 28,11.802381 28,10.952381 C28,10.102381 28.2715278,9.38988095 28.8145833,8.81488095 C29.3576389,8.23988095 30.0305556,7.95238095 30.8333333,7.95238095 L42.1666667,7.95238095 C42.9694444,7.95238095 43.6423611,8.23988095 44.1854167,8.81488095 C44.7284722,9.38988095 45,10.102381 45,10.952381 C45,11.802381 44.7284722,12.514881 44.1854167,13.089881 C43.6423611,13.664881 42.9694444,13.952381 42.1666667,13.952381 L30.8333333,13.952381 Z M36.5,16.4285714 C39.0833333,16.4285714 41.5625,16.8412698 43.9375,17.6666667 C46.3125,18.4920635 48.5416667,19.6888889 50.625,21.2571429 L52.6433105,19.2929687 C53.1016439,18.8390005 54.907665,17.7189424 56.4968262,19.2929687 C58.0859874,20.8669951 56.9551595,22.8330783 56.4968262,23.2870466 L54.4785156,25.2512207 C56.061849,27.3147128 56.9166667,28.9952381 57.75,31.347619 C58.5833333,33.7 59,36.1555556 59,38.7142857 C59,41.768254 58.40625,44.6468254 57.21875,47.35 C56.03125,50.0531746 54.4166667,52.415873 52.375,54.4380952 C50.3333333,56.4603175 47.9479167,58.0595238 45.21875,59.2357143 C42.4895833,60.4119048 39.5833333,61 36.5,61 C33.4166667,61 30.5104167,60.4119048 27.78125,59.2357143 C25.0520833,58.0595238 22.6666667,56.4603175 20.625,54.4380952 C18.5833333,52.415873 16.96875,50.0531746 15.78125,47.35 C14.59375,44.6468254 14,41.768254 14,38.7142857 C14,35.6603175 14.59375,32.781746 15.78125,30.0785714 C16.96875,27.3753968 18.5833333,25.0126984 20.625,22.9904762 C22.6666667,20.968254 25.0520833,19.3690476 27.78125,18.1928571 C30.5104167,17.0166667 33.4166667,16.4285714 36.5,16.4285714 Z M36.5,25 C35.65,25 34.9375,25.2715278 34.3625,25.8145833 C33.7875,26.3576389 33.5,27.0305556 33.5,27.8333333 L33.5,39.1666667 C33.5,39.9694444 33.7875,40.6423611 34.3625,41.1854167 C34.9375,41.7284722 35.65,42 36.5,42 C37.35,42 38.0625,41.7284722 38.6375,41.1854167 C39.2125,40.6423611 39.5,39.9694444 39.5,39.1666667 L39.5,27.8333333 C39.5,27.0305556 39.2125,26.3576389 38.6375,25.8145833 C38.0625,25.2715278 37.35,25 36.5,25 Z" id="Shape" fill="#FFFFFF"></path>
    </g>
</svg>