<?xml version="1.0" encoding="UTF-8"?>
<svg width="40px" height="40px" viewBox="0 0 40 40" version="1.1" xmlns="http://www.w3.org/2000/svg">
    <g stroke="none" fill="none" fill-rule="evenodd">
        <rect x="11" y="11" width="18" height="18" rx="3.5" stroke="#FFFFFF" stroke-width="1.5" fill="none"/>
        <g transform="translate(20,20) scale(0.19) translate(-36,-36)">
            <path d="M16,27.6666667 C19.3137085,27.6666667 22,30.3529582 22,33.6666667 L22,55 C22,58.3137085 19.3137085,61 16,61 C12.6862915,61 10,58.3137085 10,55 L10,33.6666667 C10,30.4282697 12.5655749,27.7890949 15.7750617,27.6708051 L16,27.6666667 Z M36,11 C39.3137085,11 42,13.6862915 42,17 L42,55 C42,58.3137085 39.3137085,61 36,61 C32.6862915,61 30,58.3137085 30,55 L30,17 C30,13.6862915 32.6862915,11 36,11 Z M56,36 C59.3137085,36 62,38.6862915 62,42 L62,55 C62,58.3137085 59.3137085,61 56,61 C52.6862915,61 50,58.3137085 50,55 L50,42 C50,38.6862915 52.6862915,36 56,36 Z" fill="#FFFFFF"/>
        </g>
    </g>
</svg>
