<?xml version="1.0" encoding="UTF-8"?>
<svg width="72px" height="72px" viewBox="0 0 72 72" version="1.1" xmlns="http://www.w3.org/2000/svg" xmlns:xlink="http://www.w3.org/1999/xlink">
    <title>Filled / filled_chatlist_mention</title>
    <g id="Filled-/-filled_chatlist_mention" stroke="none" fill="none" fill-rule="nonzero">
        <path d="M36,7.94444444 C51.4946555,7.94444444 64.0555556,20.5053445 64.0555556,36 C64.0555556,45.4079588 60.5708092,50.852875 53.5366724,50.4132415 C50.1034854,50.1986673 47.6130345,48.761699 46.074269,46.3154879 C43.5446485,48.7868521 40.1096404,50.3348637 36.3135543,50.4158502 L36,50.4191919 C28.0365002,50.4191919 21.5808081,43.9634998 21.5808081,36 C21.5808081,28.0365002 28.0365002,21.5808081 36,21.5808081 C43.9634998,21.5808081 50.4191919,28.0365002 50.4191919,36 L50.4156549,36.3225752 C50.4221637,36.4530489 50.4193336,36.5855158 50.4077048,36.7192471 C49.9335852,42.1716224 51.0798543,44.1366551 53.917873,44.3140313 C56.580706,44.4804583 57.9444444,42.349617 57.9444444,36 C57.9444444,23.880418 48.119582,14.0555556 36,14.0555556 C23.880418,14.0555556 14.0555556,23.880418 14.0555556,36 C14.0555556,48.119582 23.880418,57.9444444 36,57.9444444 L46.4545455,57.9444444 C48.1420822,57.9444444 49.510101,59.3124633 49.510101,61 C49.510101,62.6875367 48.1420822,64.0555556 46.4545455,64.0555556 L36,64.0555556 C20.5053445,64.0555556 7.94444444,51.4946555 7.94444444,36 C7.94444444,20.5053445 20.5053445,7.94444444 36,7.94444444 Z M36,27.6919192 C31.4115737,27.6919192 27.6919192,31.4115737 27.6919192,36 C27.6919192,40.5884263 31.4115737,44.3080808 36,44.3080808 C40.5884263,44.3080808 44.3080808,40.5884263 44.3080808,36 C44.3080808,31.4115737 40.5884263,27.6919192 36,27.6919192 Z" id="Shape" fill="#FFFFFF"></path>
    </g>
</svg>