<?xml version="1.0" encoding="UTF-8"?>
<svg width="24px" height="24px" viewBox="25.3 46.3 1120.5 1120.5" xmlns="http://www.w3.org/2000/svg">
    <g stroke="none" fill="none" fill-rule="evenodd">
        <path d="M235.5,169.409 C283.875,167.709 340.128,169.168 389.119,169.169 L685.597,169.157 L855.442,169.108 C885.874,169.084 918.886,168.222 949.031,170.56 C964.43,172.507 980.371,180.335 992.084,190.153 C1026.46,218.965 1022.2,255.653 1022.11,295.936 L1022.06,377.869 L1022.08,644.517 L1022.13,862.891 L1022.13,929.617 C1022.13,937.165 1022,945.512 1022.06,952.994 C1022.45,1007.46 987.524,1039.67 936.297,1043.76 C882.714,1044.91 826.621,1044.01 772.755,1044.01 L468.243,1044 L311.669,1044.01 C287.856,1044.03 245.645,1045.38 223.58,1042.75 C207.255,1040.83 191.887,1034.04 179.482,1023.26 C142.706,991.017 148.895,952.638 148.992,908.126 L149.024,820.746 L148.994,539.4 L148.969,344.657 L148.972,284.949 C148.982,272.277 148.336,258.433 149.913,245.913 C155.817,199.021 190.367,172.338 235.5,169.409 Z M233.938,227.343 C268.957,225.926 313.395,227.126 348.883,227.127 L572.096,227.142 L810.482,227.16 C850.622,227.161 891.007,226.92 931.133,227.272 C939.338,227.684 944.374,227.154 951.511,231.631 C967.188,241.464 964.594,262 964.9,278.65 C965.168,293.228 964.906,309.299 964.904,324.513 L964.858,473.651 L964.882,788.498 C964.891,842.355 965.046,896.22 964.691,950.073 C964.566,969.098 959.855,982.208 939.25,985.939 C898.274,987.845 848.287,986.494 806.567,986.49 L564.462,986.477 L348.544,986.472 C311.343,986.474 273.998,986.946 236.811,986.171 C229.415,986.072 224.296,984.823 218.256,980.547 C203.392,970.025 206.789,949.674 206.771,932.887 L206.776,879.547 L206.792,706.336 L206.785,410.209 L206.755,312.312 C206.751,294.394 206.706,276.485 206.931,258.567 C207.165,239.884 214.972,229.7 233.938,227.343 Z" fill="#FFFFFF"></path>
        <path d="M324.774,390.489 C380.743,389.809 436.758,390.847 492.991,390.595 C524.059,390.455 561.714,388.963 592.815,392.271 C599.852,393.019 611.066,404.641 611.753,412.717 C613.079,428.322 615.971,450.656 606.795,464.597 C587.919,489.074 559.065,475.665 554.582,448.139 C530.054,448.042 505.525,448.074 480.998,448.235 C479.349,514.32 480.671,588.684 480.906,655.103 C500.327,654.982 514.751,652.143 527.936,668.521 C541.184,692.372 524.424,712.755 498.942,712.852 C472.013,712.953 445.091,712.456 418.157,712.942 C404.646,713.186 389.565,713.284 379.106,703.327 C367.693,693.13 370.681,673.869 379.932,663.537 C388.852,653.574 410.562,655.093 423.056,655.049 C424.167,587.249 423.242,517.054 423.232,449.07 C398.039,448.841 372.844,448.823 347.65,449.018 C344.508,473.936 320.321,485.861 300.049,470.798 C285.898,460.284 286.016,411.645 298.118,399.199 C305.363,391.747 314.831,390.8 324.774,390.489 Z" fill="#FFFFFF"></path>
        <path d="M317.739,787.416 C334.352,786.041 370.424,787.105 388.632,787.101 L530.883,787.085 L738.495,787.094 C757.249,787.097 860.031,784.525 870.817,791.8 C877.338,796.292 881.821,803.178 883.288,810.96 C886.999,830.038 873.861,841.886 856.25,844.933 C816.432,845.684 774.548,845.08 734.575,845.08 L506.919,845.072 L378.693,845.115 C359.64,845.124 331.865,846.288 313.819,844.78 C278.716,841.848 273.3,791.018 317.739,787.416 Z" fill="#FFFFFF"></path>
        <path d="M616.24,655.427 C663.269,654.149 715.819,655.263 763.256,655.266 L820.46,655.229 C831.822,655.218 842.978,655.292 854.337,655.675 C891.943,656.944 896.058,707.895 854.269,712.766 L690.454,712.806 C663.693,712.811 636.253,713.43 609.928,712.097 C586.298,710.9 575.083,680.649 592.115,664.095 C600.128,656.306 605.821,656.005 616.24,655.427 Z" fill="#FFFFFF"></path>
        <path d="M740.729,523.21 C777.099,520.824 817.932,523.331 854.631,523.075 C886.669,522.851 897.665,567.919 860.672,579.748 C822.937,581.958 781.271,579.937 743.263,579.855 C714.021,579.792 703.142,531.719 740.729,523.21 Z" fill="#FFFFFF"></path>
        <path d="M751.68,390.479 L821.011,390.416 C831.099,390.414 852.799,389.899 861.807,391.742 C866.466,392.652 870.796,394.796 874.344,397.95 C886.22,408.417 887.029,427.578 876.01,438.928 C868.597,446.562 861.766,447.721 851.599,448.094 L779.099,448.207 C763.428,448.224 737.679,451.156 725.845,440.452 C720.284,435.38 716.983,428.295 716.678,420.774 C716.351,412.667 719.334,404.775 724.942,398.911 C732.301,391.156 741.871,390.791 751.68,390.479 Z" fill="#FFFFFF"></path>
    </g>
</svg>
