<?xml version="1.0" encoding="UTF-8"?>
<svg width="24px" height="24px" viewBox="8.55 6.52 1016.33 1016.33" xmlns="http://www.w3.org/2000/svg">
    <g stroke="none" fill="none" fill-rule="evenodd">
        <path d="M 505.569 216.613 C 589.562 210.28 662.762 273.293 668.991 357.294 C 675.22 441.295 612.115 514.416 528.107 520.54 C 444.246 526.654 371.281 463.685 365.063 379.832 C 358.845 295.978 421.724 222.936 505.569 216.613 z M 501.834 270.444 C 556.125 262.024 606.926 299.316 615.159 353.635 C 623.392 407.955 585.924 458.626 531.577 466.672 C 477.494 474.678 427.123 437.433 418.93 383.378 C 410.737 329.323 447.808 278.824 501.834 270.444 z M 434.873 594.42 C 457.539 591.624 492.098 593.687 515.528 593.715 C 580.563 593.792 644.976 586.486 698.752 630.919 C 730.092 656.841 749.677 694.288 753.089 734.815 C 754.548 750.511 754.613 767.548 754.297 783.36 C 753.67 814.782 728.456 820.137 706.71 801.432 C 703.461 791.997 703.266 779.516 703.337 769.582 C 703.566 737.753 698.31 706.306 675.672 682.251 C 653.356 658.537 633.239 650.325 601.25 648.899 C 567.352 647.66 533.247 648.464 499.316 648.42 C 472.083 648.386 443.038 646.417 416.136 650.393 C 396.399 653.309 379.932 661.757 365.475 675.478 C 313.536 724.776 339.906 783.805 326.287 801.283 C 322.147 806.597 313.185 812.403 306.475 813.091 C 300.249 813.729 294.435 811.354 289.705 807.411 C 283.487 802.228 280.454 794.961 279.752 787.014 C 279.001 778.516 279.795 769.394 279.876 760.835 C 280.283 717.844 287.32 683.76 316.022 650.001 C 347.326 613.183 387.691 598.3 434.873 594.42 z M 219.136 382.945 C 272.751 376.113 321.776 413.977 328.716 467.579 C 335.655 521.18 297.889 570.281 244.301 577.328 C 190.562 584.394 141.292 546.498 134.333 492.745 C 127.374 438.992 165.369 389.797 219.136 382.945 z M 220.817 436.638 C 236.536 432.851 253.076 437.838 264.083 449.683 C 275.089 461.528 278.851 478.389 273.922 493.788 C 268.993 509.188 256.14 520.732 240.301 523.984 C 216.38 528.897 192.937 513.725 187.62 489.89 C 182.303 466.055 197.075 442.358 220.817 436.638 z M 790.025 382.98 C 844.03 376.041 893.336 414.457 899.813 468.519 C 906.29 522.581 867.454 571.557 813.339 577.572 C 759.873 583.515 711.613 545.246 705.213 491.833 C 698.814 438.421 736.669 389.835 790.025 382.98 z M 796.689 435.721 C 821.133 432.368 843.691 449.394 847.169 473.82 C 850.647 498.245 833.737 520.891 809.33 524.494 C 784.745 528.124 761.898 511.063 758.394 486.46 C 754.891 461.857 772.068 439.098 796.689 435.721 z M 208.9 629.419 C 218.073 628.164 264.688 628.927 274.478 629.636 C 263.916 647.582 256.016 666.2 245.769 684.214 C 215.202 683.797 184.354 678.751 162.577 703.673 C 141.001 728.366 156.09 760.204 145.784 786.481 C 126.869 811.128 97.4163 801.08 95.4687 772.735 C 89.8674 691.213 124.774 636.233 208.9 629.419 z M 761.07 629.447 L 761.486 629.41 C 764.525 629.162 767.708 629.104 770.774 629.094 C 816.697 629.033 862.522 624.314 899.878 656.761 C 932.931 685.471 938.848 721.928 938.48 763.817 C 938.378 775.471 937.834 782.843 929.928 791.979 C 920.297 801.256 908.652 805.201 897.329 795.853 C 868.674 772.194 898.198 727.621 868.831 700.125 C 845.602 678.377 815.561 684.485 786.414 683.992 C 783.677 677.187 761.183 631.729 761.07 629.447 z" fill="#FFFFFF"></path>
    </g>
</svg>
