<?xml version="1.0" encoding="UTF-8"?>
<svg width="24px" height="24px" viewBox="0 0 24 24" version="1.1" xmlns="http://www.w3.org/2000/svg" xmlns:xlink="http://www.w3.org/1999/xlink">
    <title>Icon / Menu / craft_tools</title>
    <g id="Icon-/-Menu-/-craft_tools" stroke="none" fill="none" fill-rule="nonzero">
        <path d="M12.541342,18.4924763 C12.6445719,18.5253411 12.7254551,18.6062243 12.7583199,18.7094543 L13.0044335,19.4825087 C13.0497169,19.624746 13.1612345,19.7361465 13.3035194,19.7812804 L14.0783199,20.0270534 C14.2538034,20.0827181 14.3509357,20.2701008 14.2952709,20.4455843 C14.2625103,20.5488623 14.181598,20.6297746 14.0783199,20.6625353 L13.3035194,20.9083082 C13.1612345,20.9534421 13.0497169,21.0648426 13.0044335,21.20708 L12.7583199,21.9801344 C12.7023503,22.1559376 12.5144613,22.253082 12.338658,22.1971123 C12.2354281,22.1642475 12.1545449,22.0833643 12.1216801,21.9801344 L11.8755665,21.20708 C11.8302831,21.0648426 11.7187655,20.9534421 11.5764806,20.9083082 L10.8016801,20.6625353 C10.6261966,20.6068705 10.5290643,20.4194878 10.5847291,20.2440043 C10.6174897,20.1407263 10.698402,20.059814 10.8016801,20.0270534 L11.5764806,19.7812804 C11.7187655,19.7361465 11.8302831,19.624746 11.8755665,19.4825087 L12.1216801,18.7094543 C12.1776497,18.533651 12.3655387,18.4365067 12.541342,18.4924763 Z M13.7933075,3.4379879 C14.0550407,3.50764862 14.2657847,3.70155715 14.3569458,3.95659937 C14.5100215,4.38486101 14.2869393,4.85612808 13.8586777,5.00920383 L13.7929141,5.03271004 C13.1392301,5.27552589 12.5430235,5.58803471 12.0024547,5.96968 C11.5903785,6.2606086 11.3374152,6.51683874 11.2381856,6.71593966 C11.2250671,6.74201237 11.2293846,6.77347446 11.2488802,6.79487212 L13.5314953,9.29849086 L15.9004367,7.11171922 C15.918283,7.09565182 15.9328509,7.07272614 15.9417448,7.04591278 L15.9704087,6.89387964 L16.1303987,6.32166349 C16.1905902,5.87662074 16.4633132,5.48631783 16.8634867,5.290877 L19.1115273,4.19295602 C19.6351622,3.93721788 20.2550612,4.07266372 20.6309547,4.52032068 L21.1594552,5.14971953 C21.5313354,5.59259707 21.5772946,6.23584618 21.2780218,6.73449372 L19.9454405,8.95483742 C19.6896314,9.38106587 19.2234823,9.62878133 18.824751,9.58711139 L18.1995992,9.61976377 C18.1845363,9.61844594 18.1665726,9.62462398 18.1537423,9.63613837 L15.8154953,11.8024909 L20.5690675,17.0161275 C21.1145678,17.6143422 21.0843021,18.5382109 20.5008186,19.0994403 L19.6732058,19.8954266 C19.0741783,20.4628021 18.1286219,20.4371431 17.5612226,19.8380905 L12.6694953,14.6734909 L11.3365359,15.8687652 C11.4914429,16.3526516 11.3677567,16.9023527 10.9772093,17.2735474 L7.90723447,20.1886966 C7.33438086,20.6775189 6.4737225,20.6093981 5.98490021,20.0365445 L4.28244086,18.0406951 C3.80886338,17.4551758 3.89961015,16.5966082 4.48512945,16.1230308 L7.7016812,13.5214316 C8.122409,13.1811402 8.68600359,13.1314191 9.14617379,13.350555 L9.10868764,13.3112751 L10.3224953,12.1954909 L8.00598108,9.7489343 C7.97934529,9.72485673 7.93935086,9.72491284 7.91286496,9.7478052 C7.64886032,10.040125 7.43558355,10.2999218 7.26761131,10.5324159 C7.10565718,10.7565802 6.91167106,11.078909 6.69176714,11.4927286 C6.62045233,11.6266286 6.52573157,11.7466732 6.41209133,11.8471765 C5.8865022,12.312007 5.08360848,12.2627524 4.6174837,11.7356949 L2.98809736,9.88116434 C2.8937888,9.77287155 2.81852271,9.64937345 2.76549857,9.51591981 C2.50641846,8.86385478 2.82499567,8.12522571 3.4770607,7.86614559 L3.84409229,7.7203157 L4.56257559,7.42587142 C4.96709972,7.25749814 5.17626442,7.15371294 5.30789112,7.06171106 C5.3633111,7.02297468 5.4097919,6.98311449 5.46518098,6.92718533 L5.79678387,6.56301197 L5.98156868,5.92196695 C6.05862783,5.68242976 6.14121056,5.47203226 6.24413027,5.26802673 C6.31025272,5.13696005 6.38326862,5.01214747 6.46457329,4.89316321 C7.07971196,3.9929466 9.29775861,3.08006265 10.8866679,3.04552781 C11.739287,3.0269962 12.7057051,3.15838357 13.7933075,3.4379879 Z M8.45632016,14.4544483 L5.2397684,17.0560474 C5.16953996,17.1128493 5.1586556,17.2158277 5.2154575,17.2860562 L6.89773426,19.2576131 C6.94463857,19.3125806 7.02008613,19.3288032 7.08356814,19.3030748 L7.13481401,19.2699982 L10.1505055,16.4037424 C10.2138948,16.3434942 10.2186705,16.2440387 10.1613456,16.1779939 L8.68267982,14.4744044 C8.62492214,14.4078611 8.52482952,14.3990368 8.45632016,14.4544483 Z M11.9024953,9.29249086 L10.4654953,10.6004909 L18.4324799,19.0129173 C18.5281636,19.1139389 18.6785137,19.1320796 18.7937381,19.0649027 L18.8496428,19.0226323 L19.6689436,18.2345796 C19.7837439,18.1241578 19.7896987,17.9423868 19.6823635,17.8246793 L11.9024953,9.29249086 Z M11.1474953,13.0664909 L9.98049525,14.1384909 L10.6304953,14.8874909 L11.8434953,13.8014909 L11.1474953,13.0664909 Z M20.8899493,10.7401151 C20.9763158,10.7686169 21.0440635,10.8363646 21.0725653,10.922731 L21.2845637,11.5651305 C21.3226557,11.6805572 21.4132584,11.771062 21.5287263,11.8090291 L22.1725653,12.0207303 C22.3228251,12.0701374 22.4045824,12.2319994 22.3551754,12.3822592 C22.3267606,12.4686759 22.258982,12.5364546 22.1725653,12.5648693 L21.5287263,12.7765705 C21.4132584,12.8145376 21.3226557,12.9050424 21.2845637,13.0204691 L21.0725653,13.6628686 C21.0228876,13.8134022 20.8605843,13.8951621 20.7100507,13.8454845 C20.6236842,13.8169827 20.5559365,13.749235 20.5274347,13.6628686 L20.3154363,13.0204691 C20.2773443,12.9050424 20.1867416,12.8145376 20.0712737,12.7765705 L19.4274347,12.5648693 C19.2771749,12.5154622 19.1954176,12.3536002 19.2448246,12.2033404 C19.2732394,12.1169237 19.341018,12.049145 19.4274347,12.0207303 L20.0712737,11.8090291 C20.1867416,11.771062 20.2773443,11.6805572 20.3154363,11.5651305 L20.5274347,10.922731 C20.5771124,10.7721974 20.7394157,10.6904375 20.8899493,10.7401151 Z M10.9127437,4.24524447 C9.67583937,4.2721285 7.82057667,5.03570105 7.45535165,5.57018481 C7.40485532,5.644083 7.35848282,5.72335165 7.31550977,5.80853202 C7.24390582,5.95046403 7.18327067,6.10494529 7.12391255,6.28945912 L6.97973289,6.7736061 C6.90837842,7.00699681 6.84719167,7.160462 6.74763621,7.29399137 L6.66516222,7.39223425 C6.60758959,7.45650802 6.43929449,7.6432472 6.35253201,7.73539112 L6.31781591,7.7715867 C6.21386916,7.87654701 6.11303261,7.96302065 5.99535962,8.04526943 C5.77542616,8.19899424 5.50212251,8.33460448 5.02369763,8.53373715 L4.47506969,8.75972804 L3.90529528,8.98951538 C3.87943471,9.00783619 3.8684763,9.04206798 3.88069726,9.07282626 L3.89130951,9.09110048 L5.51767042,10.9421837 C5.54344583,10.9713283 5.58796727,10.9740595 5.61711182,10.9482841 L5.63235711,10.929124 C5.8757013,10.4711808 6.09656411,10.1042047 6.29491507,9.82966271 L6.50695559,9.54965561 L6.624453,9.40386592 L6.61392869,9.39435241 L7.01627929,8.94925243 C7.48679411,8.42874585 8.2901757,8.38821952 8.81068228,8.85873434 L8.88054166,8.9269418 L9.64049525,9.72949086 L11.0934953,8.40549086 L10.3620065,7.60323774 C10.0075118,7.21415853 9.92964998,6.6467753 10.165199,6.17863659 C10.3675802,5.77254536 10.7506435,5.38453503 11.3103534,4.98937605 C11.6401975,4.75650391 11.9872605,4.54621345 12.3515686,4.35880098 C11.8273233,4.27302877 11.3479147,4.23578606 10.9127437,4.24524447 Z M19.6381454,5.27122935 L17.3901048,6.36915033 C17.3543486,6.38661331 17.3230426,6.43362399 17.3178503,6.49297212 L17.2979723,6.60224078 L17.1360729,7.18128594 C17.0926696,7.49826621 16.9401121,7.7903648 16.7089861,7.99839271 L14.3404953,10.1854909 L15.0064953,10.9154909 L17.3438289,8.75071247 C17.6074311,8.51273142 17.9536467,8.39366191 18.2141284,8.42323658 L18.8392802,8.3905842 C18.8627166,8.39263462 18.8929747,8.3765552 18.9165257,8.33731469 L20.249107,6.11697099 C20.2867292,6.05428498 20.2806528,5.96923839 20.2404694,5.92138347 L19.711969,5.29198462 C19.6884721,5.26400189 19.6639256,5.25863856 19.6381454,5.27122935 Z M3.7346363,1.81474244 C3.83726885,1.84617216 3.91760155,1.92650485 3.94903126,2.0291374 L4.18360877,2.79514141 C4.2301584,2.94714746 4.34921075,3.06607869 4.5012641,3.11247357 L5.26903126,3.34673651 C5.43939408,3.39871801 5.5353611,3.57896371 5.48337959,3.74932653 C5.45205322,3.85199474 5.37169948,3.93234849 5.26903126,3.96367486 L4.5012641,4.19793779 C4.34921075,4.24433267 4.2301584,4.36326391 4.18360877,4.51526996 L3.94903126,5.28127396 C3.89676508,5.45194721 3.71603695,5.54793511 3.5453637,5.49566892 C3.44273115,5.46423921 3.36239845,5.38390651 3.33096874,5.28127396 L3.09639123,4.51526996 C3.05915153,4.39366512 2.97551008,4.29322816 2.86569177,4.23416339 L2.7787359,4.19793779 L2.01096874,3.96367486 C1.84060592,3.91169335 1.7446389,3.73144766 1.79662041,3.56108484 C1.82794678,3.45841662 1.90830052,3.37806287 2.01096874,3.34673651 L2.7787359,3.11247357 C2.93078925,3.06607869 3.0498416,2.94714746 3.09639123,2.79514141 L3.33096874,2.0291374 C3.38323492,1.85846415 3.56396305,1.76247625 3.7346363,1.81474244 Z" id="Shape" fill="#FFFFFF"></path>
    </g>
</svg>