<?xml version="1.0" encoding="UTF-8"?>
<svg width="24px" height="24px" viewBox="0 0 24 24" version="1.1" xmlns="http://www.w3.org/2000/svg" xmlns:xlink="http://www.w3.org/1999/xlink">
    <title>Icon / Menu / craft_random</title>
    <g id="Icon-/-Menu-/-craft_random" stroke="none" fill="none" fill-rule="nonzero">
        <path d="M18.2068965,5.24210527 C20.0808558,5.24210527 21.6,6.76124942 21.6,8.63520871 L21.6,18.2068966 C21.6,20.0808558 20.0808558,21.6 18.2068966,21.6 L8.89655172,21.6 C7.02259244,21.6 5.50344828,20.0808558 5.50344828,18.2068966 L5.50344828,8.63520871 C5.50344828,6.76124942 7.02259244,5.24210527 8.89655173,5.24210527 L18.2068965,5.24210527 Z M18.2068966,6.44210526 L8.89655173,6.44210526 L8.67231965,6.45342802 C7.56643389,6.56573682 6.70344828,7.49969222 6.70344828,8.63520871 L6.70344828,18.2068966 C6.70344828,19.4181141 7.68533413,20.4 8.89655172,20.4 L18.2068966,20.4 C19.4181141,20.4 20.4,19.4181141 20.4,18.2068966 L20.4,8.63520871 C20.4,7.42399112 19.4181141,6.44210526 18.2068966,6.44210526 Z M16.8103448,15.6315789 C17.4102403,15.6315789 17.8965517,16.1264221 17.8965517,16.7368421 C17.8965517,17.3472621 17.4102403,17.8421053 16.8103448,17.8421053 C16.2104493,17.8421053 15.7241379,17.3472621 15.7241379,16.7368421 C15.7241379,16.1264221 16.2104493,15.6315789 16.8103448,15.6315789 Z M10.2931034,15.6315789 C10.892999,15.6315789 11.3793103,16.1264221 11.3793103,16.7368421 C11.3793103,17.3472621 10.892999,17.8421053 10.2931034,17.8421053 C9.69320794,17.8421053 9.20689655,17.3472621 9.20689655,16.7368421 C9.20689655,16.1264221 9.69320794,15.6315789 10.2931034,15.6315789 Z M15.4137931,2.4 C15.745164,2.4 16.0137931,2.66862915 16.0137931,3 C16.0137931,3.33137085 15.745164,3.6 15.4137931,3.6 L7.65517241,3.6 C5.41556253,3.6 3.6,5.41556253 3.6,7.65517241 L3.6,15.6315789 C3.6,15.9629498 3.33137085,16.2315789 3,16.2315789 C2.66862915,16.2315789 2.4,15.9629498 2.4,15.6315789 L2.4,7.65517241 C2.4,4.75282083 4.75282083,2.4 7.65517241,2.4 L15.4137931,2.4 Z M13.7068966,12.1578947 C14.3067921,12.1578947 14.7931034,12.6527379 14.7931034,13.2631579 C14.7931034,13.8735779 14.3067921,14.3684211 13.7068966,14.3684211 C13.107001,14.3684211 12.6206897,13.8735779 12.6206897,13.2631579 C12.6206897,12.6527379 13.107001,12.1578947 13.7068966,12.1578947 Z M10.2931034,9 C10.892999,9 11.3793103,9.49484317 11.3793103,10.1052632 C11.3793103,10.7156831 10.892999,11.2105263 10.2931034,11.2105263 C9.69320794,11.2105263 9.20689655,10.7156831 9.20689655,10.1052632 C9.20689655,9.49484317 9.69320794,9 10.2931034,9 Z M16.8103448,9 C17.4102403,9 17.8965517,9.49484317 17.8965517,10.1052632 C17.8965517,10.7156831 17.4102403,11.2105263 16.8103448,11.2105263 C16.2104493,11.2105263 15.7241379,10.7156831 15.7241379,10.1052632 C15.7241379,9.49484317 16.2104493,9 16.8103448,9 Z" id="Shape" fill="#FFFFFF"></path>
    </g>
</svg>