<?xml version="1.0" encoding="UTF-8"?>
<svg width="24px" height="24px" viewBox="0 0 24 24" version="1.1" xmlns="http://www.w3.org/2000/svg" xmlns:xlink="http://www.w3.org/1999/xlink">
    <title>Icon / Menu / craft_chance</title>
    <g id="Icon-/-Menu-/-craft_chance" stroke="none" fill="none" fill-rule="nonzero">
        <path d="M14.2394854,18.3384734 C15.1002335,18.3384734 15.6545373,18.9252891 15.6545373,19.830532 L15.6545373,19.9942945 C15.6545373,20.8813416 15.0641813,21.5 14.2124462,21.5 C13.3607112,21.5 12.7973944,20.8995374 12.7973944,19.9942945 L12.7973944,19.830532 C12.7973944,18.938936 13.3742308,18.3384734 14.2394854,18.3384734 Z M14.8002575,14.8144933 C15.0602829,15.0211239 15.1045571,15.4006755 14.8991467,15.6622455 L10.5569642,21.1915888 C10.3515538,21.4531588 9.97424351,21.4976959 9.71421812,21.2910653 C9.45419274,21.0844347 9.40991856,20.7048831 9.61532898,20.4433131 L13.9575114,14.9139699 C14.1629219,14.6523999 14.5402321,14.6078627 14.8002575,14.8144933 Z M14.2558401,19.2729857 C14.0219885,19.2729857 13.8896197,19.4974831 13.8896197,19.9015784 L13.8896197,19.9689277 C13.8896197,20.3685331 14.0264008,20.6065003 14.2558401,20.6065003 C14.4808671,20.6065003 14.6132359,20.3685331 14.6132359,19.9689277 L14.6132359,19.9015784 C14.6132359,19.501973 14.4852794,19.2729857 14.2558401,19.2729857 Z M12,2.5 C17.2467051,2.5 21.5,6.77856068 21.5,12.0564327 C21.5,14.8051138 20.3392414,17.3671126 18.3459938,19.168073 C18.0818576,19.4067281 17.6754071,19.3847997 17.4381612,19.1190945 C17.2009154,18.8533892 17.2227143,18.4445243 17.4868505,18.2058691 C19.2113831,16.647701 20.2142857,14.4341182 20.2142857,12.0564327 C20.2142857,7.49285915 16.5366247,3.7933518 12,3.7933518 C7.46337527,3.7933518 3.78571429,7.49285915 3.78571429,12.0564327 C3.78571429,14.6032885 4.93761579,16.9582836 6.87881601,18.5174708 C7.1562635,18.7403187 7.20159194,19.1472244 6.98005992,19.42632 C6.7585279,19.7054156 6.35402509,19.7510133 6.07657761,19.5281653 C3.83300652,17.7261116 2.5,15.0008578 2.5,12.0564327 C2.5,6.77856068 6.75329488,2.5 12,2.5 Z M10.2394854,14.8895352 C11.1002335,14.8895352 11.6545373,15.476351 11.6545373,16.3815939 L11.6545373,16.5453564 C11.6545373,17.4324034 11.0641813,18.0510619 10.2124462,18.0510619 C9.36071122,18.0510619 8.79739441,17.4505993 8.79739441,16.5453564 L8.79739441,16.3815939 C8.79739441,15.4899979 9.37423083,14.8895352 10.2394854,14.8895352 Z M10.2558401,15.8240476 C10.0219885,15.8240476 9.88961966,16.048545 9.88961966,16.4526403 L9.88961966,16.5199895 C9.88961966,16.9195949 10.0264008,17.1575622 10.2558401,17.1575622 C10.4808671,17.1575622 10.6132359,16.9195949 10.6132359,16.5199895 L10.6132359,16.4526403 C10.6132359,16.0530349 10.4852794,15.8240476 10.2558401,15.8240476 Z M12.7357164,9.85753889 L15.410911,11.9797736 C15.6896921,12.200931 15.7374641,12.6075537 15.5176127,12.8879908 C15.2977613,13.168428 14.8935398,13.2164838 14.6147587,12.9953264 L12.2503714,11.1196555 L9.86540882,13.0262454 C9.58745192,13.24845 9.18305457,13.2019154 8.96216206,12.9223074 C8.74126956,12.6426993 8.78752939,12.2358997 9.0654863,12.013695 L11.7603373,9.85937373 C12.0456859,9.63126002 12.4495217,9.63050034 12.7357164,9.85753889 Z M12.7357164,6.40860076 L15.410911,8.53083548 C15.6896921,8.75199285 15.7374641,9.15861554 15.5176127,9.4390527 C15.2977613,9.71948986 14.8935398,9.76754563 14.6147587,9.54638827 L12.2503714,7.67071733 L9.86540882,9.57730723 C9.58745192,9.7995119 9.18305457,9.75297727 8.96216206,9.47336922 C8.74126956,9.19376117 8.78752939,8.78696158 9.0654863,8.56475691 L11.7603373,6.4104356 C12.0456859,6.18232188 12.4495217,6.18156221 12.7357164,6.40860076 Z" id="Shape" fill="#FFFFFF"></path>
    </g>
</svg>