<?xml version="1.0" encoding="UTF-8"?>
<svg width="72px" height="72px" viewBox="0 0 72 72" version="1.1" xmlns="http://www.w3.org/2000/svg" xmlns:xlink="http://www.w3.org/1999/xlink">
    <title>General / menu_download_off</title>
    <g id="General-/-menu_download_off" stroke="none" fill="none" fill-rule="nonzero">
        <path d="M9.47389883,17.6528876 L12.7944831,20.7769886 C9.92145398,25.1476842 8.25,30.3786476 8.25,36 C8.25,51.3259018 20.6740982,63.75 36,63.75 C42.2291078,63.75 47.9788491,61.6975883 52.6098705,58.2321183 L55.930069,61.3563149 C50.444238,65.674153 43.5229296,68.25 36,68.25 C18.1888168,68.25 3.75,53.8111832 3.75,36 C3.75,29.1836121 5.86472873,22.8611455 9.47389883,17.6528876 Z M10.5466159,7.36583985 L66.5466159,60.3658399 C67.4491376,61.2200122 67.4883325,62.6440941 66.6341601,63.5466159 C65.7799878,64.4491376 64.3559059,64.4883325 63.4533841,63.6341601 L7.45338414,10.6341601 C6.55086241,9.7799878 6.5116675,8.35590587 7.36583985,7.45338414 C8.2200122,6.55086241 9.64409413,6.5116675 10.5466159,7.36583985 Z M23.5706043,35.8888817 L33.2499989,45.324 L33.2499989,40.02 L37.7499989,44.253 L37.7499989,46.299 L38.818,45.258 L42.099,48.344 L37.7102136,52.6229689 C36.7587254,53.5505305 35.2412746,53.5505305 34.2897864,52.6229689 L20.4293957,39.1111183 C19.5395996,38.2436975 19.5214609,36.8191917 20.3888817,35.9293957 C21.2563025,35.0395996 22.6808083,35.0214609 23.5706043,35.8888817 Z M36,3.75 C53.8111832,3.75 68.25,18.1888168 68.25,36 C68.25,42.0362889 66.5916122,47.6852405 63.7056013,52.5160902 L60.3364031,49.3450226 C62.512335,45.3853526 63.75,40.8372124 63.75,36 C63.75,20.6740982 51.3259018,8.25 36,8.25 C30.5567647,8.25 25.4795707,9.81720938 21.1950318,12.5250144 L17.8250746,9.35540043 C23.0002277,5.81848433 29.2585536,3.75 36,3.75 Z M51.6111183,35.9293957 C52.4785391,36.8191917 52.4604004,38.2436975 51.5706043,39.1111183 L50.532,40.123 L47.251,37.036 L48.4293957,35.8888817 C49.3191917,35.0214609 50.7436975,35.0395996 51.6111183,35.9293957 Z M35.5,17.75 C36.7426407,17.75 37.75,18.7573593 37.75,20 L37.75,28.099 L33.25,23.865 L33.25,20 C33.25,18.7573593 34.2573593,17.75 35.5,17.75 Z" id="Shape" fill="#FFFFFF"></path>
    </g>
</svg>