<?xml version="1.0" encoding="UTF-8"?>
<svg width="24px" height="24px" viewBox="133.69 92.73 791.84 791.84" xmlns="http://www.w3.org/2000/svg">
    <g stroke="none" fill="none" fill-rule="evenodd">
        <path d="M 411.563 160.488 L 414.003 160.455 C 479.552 159.713 545.704 160.449 611.308 160.376 C 660.617 160.322 709.248 154.612 747.354 192.059 C 760.403 204.955 769.909 220.996 774.955 238.635 C 781.673 262.962 780.06 305.961 780.048 332.387 L 780.177 438.933 L 781.116 438.924 C 802.406 438.764 818.02 443.283 833.766 458.488 C 853.412 477.459 852.837 506.62 852.942 532.22 L 853.008 654.828 C 852.998 685.917 854.741 724.536 848.577 754.631 C 845.167 768.04 836.292 780.303 827.061 789.964 C 796.669 821.775 753.041 817.019 712.027 817.023 L 648.5 816.987 L 404.583 816.989 L 337.052 817.043 C 300.046 817.05 263.887 820.021 234.955 792.628 C 213.312 772.136 207.206 750.748 206.668 721.578 C 205.288 669.307 206.982 616.302 206.216 564.108 C 205.311 502.491 203.333 448.734 281.122 445.861 L 281.181 336.072 C 281.177 309.114 279.782 264.026 286.27 239.049 C 290.834 222.147 299.52 206.641 311.551 193.922 C 341.154 163.006 372.041 161.312 411.563 160.488 z M 394.287 209.421 C 410.88 208.596 433.816 209.239 450.822 209.243 L 559.326 209.263 L 631.461 209.186 C 663.104 209.17 699.913 204.717 719.877 234.592 C 733.311 254.696 730.963 282.024 730.821 305.162 C 730.687 323.443 730.657 341.725 730.731 360.007 L 730.903 421.193 C 730.931 432.075 731.514 450.388 729.71 460.533 C 721.51 470.333 692.391 488.659 680.997 496.357 L 612.482 542.738 C 594.656 555.414 547.177 588.673 529.252 597.213 C 513.932 591.165 462.422 556.213 445.746 545.245 C 408.338 520.641 366.545 495.343 330.063 469.893 C 329.386 426.092 329.36 381.473 329.908 337.674 C 330.636 279.427 316.214 214.002 394.287 209.421 z M 519.732 260.403 C 550.036 256.428 588.904 264.373 605.675 292.154 C 614.044 306.017 616.292 325.261 612.624 340.928 C 605.831 369.935 574.4 382.576 557.387 404.229 C 550.086 414.386 546.129 428.967 535.474 436.195 C 528.408 440.989 513.534 439.099 509.463 430.628 C 504.372 420.033 506.06 409.638 509.421 398.734 C 523.282 370.459 569.25 351.219 565.01 321.302 C 563.953 314.182 560.084 307.785 554.27 303.542 C 543.475 295.563 530.162 295.101 517.369 298.838 C 502.95 301.23 486.885 327.836 473.315 328.026 C 446.731 328.398 456.877 295.889 466.821 284.648 C 482.116 267.36 498.428 262.436 519.732 260.403 z M 519.531 468.13 C 541.079 466.832 559.572 477.214 550.387 502.624 C 547.45 510.752 539.018 513.086 531.429 515.568 C 498.598 520.495 482.136 480.316 519.531 468.13 z M 784.622 487.041 C 786.681 486.781 788.768 486.825 790.814 487.171 C 794.593 487.838 799.24 489.898 801.257 493.356 C 803.682 497.515 803.624 505.15 803.823 509.949 C 805.796 557.408 804.101 605.666 804.088 653.205 C 804.083 674.12 806.339 719.377 802.702 736.971 C 800.327 748.461 793.838 756.602 784.169 762.917 C 783.291 763.49 782.473 763.999 781.484 764.383 C 764.817 770.846 669.55 767.927 646.224 767.931 L 491.913 767.937 L 367.722 767.922 C 344.783 767.919 321.599 768.624 298.69 767.571 C 290.982 767.216 283.114 766.819 276.076 763.311 C 268.187 759.378 259.766 750.2 257.122 741.72 C 252.528 726.984 255.045 622.631 255.076 599.046 C 255.113 571.182 253.755 542.747 255.227 514.957 C 255.461 510.551 255.763 504.763 258.13 500.934 C 261.12 496.095 268.111 495.044 273.215 493.63 C 287.803 498.468 345.702 537.982 362.926 548.831 C 373.498 555.687 387.27 565.532 397.922 571.29 C 384.081 585.243 326.596 636.667 324.986 652.381 C 324.353 658.558 326.87 664.519 330.851 669.147 C 334.794 673.731 339.898 677.248 346.07 677.656 C 351.267 677.998 356.033 676.218 360.339 673.437 C 371.146 666.456 379.935 656.242 388.944 647.155 C 405.649 630.307 421.999 612.595 439.844 596.96 C 454.767 610.501 494.951 636.411 515.101 641.041 C 554.469 650.088 588.725 616.115 621.306 595.195 C 635.96 609.534 694.012 672.887 708.632 676.824 C 714.127 678.304 719.602 677.772 724.514 674.801 C 732.854 669.756 736.472 661.549 738.716 652.544 C 736.995 648.227 733.586 642.223 730.471 638.843 C 717.178 624.419 675.87 580.39 661.488 571.956 C 676.861 554.031 706.867 537.434 726.563 523.606 C 743.409 511.779 766.013 494.478 784.622 487.041 z" fill="#FFFFFF"></path>
    </g>
</svg>
