<?xml version="1.0" encoding="UTF-8"?>
<svg width="24px" height="24px" viewBox="0 0 24 24" xmlns="http://www.w3.org/2000/svg">
    <g stroke="none" fill="none" fill-rule="evenodd">
        <path d="M7.142857,5.4 L16.857143,5.4 C19.068542,5.4 20.857143,7.188601 20.857143,9.4 L20.857143,14.6 C20.857143,16.811399 19.068542,18.6 16.857143,18.6 L7.142857,18.6 C4.931458,18.6 3.142857,16.811399 3.142857,14.6 L3.142857,9.4 C3.142857,7.188601 4.931458,5.4 7.142857,5.4 Z M7.142857,6.6 C5.594716,6.6 4.342857,7.851859 4.342857,9.4 L4.342857,14.6 C4.342857,16.148141 5.594716,17.4 7.142857,17.4 L16.857143,17.4 C18.405284,17.4 19.657143,16.148141 19.657143,14.6 L19.657143,9.4 C19.657143,7.851859 18.405284,6.6 16.857143,6.6 L7.142857,6.6 Z M6.925,8.85 L8.225,8.85 L8.225,11.4 L10.225,11.4 L10.225,8.85 L11.525,8.85 L11.525,15.15 L10.225,15.15 L10.225,12.6 L8.225,12.6 L8.225,15.15 L6.925,15.15 L6.925,8.85 Z M12.725,8.85 L14.725,8.85 C16.466907,8.85 17.875,10.258093 17.875,12.0 C17.875,13.741907 16.466907,15.15 14.725,15.15 L12.725,15.15 L12.725,8.85 Z M14.025,10.05 L14.025,13.95 L14.725,13.95 C15.802321,13.95 16.675,13.077321 16.675,12.0 C16.675,10.922679 15.802321,10.05 14.725,10.05 L14.025,10.05 Z" fill="#FFFFFF" fill-rule="nonzero"></path>
    </g>
</svg>
