<?xml version="1.0" encoding="UTF-8"?>
<svg width="24px" height="24px" viewBox="114.90 121.78 832.42 832.42" xmlns="http://www.w3.org/2000/svg">
    <g stroke="none" fill="none" fill-rule="evenodd">
        <path d="M 703.101 553.315 C 789.305 544.225 866.57 606.706 875.72 692.904 C 884.87 779.102 822.443 856.41 736.252 865.62 C 649.975 874.839 572.574 812.338 563.415 726.055 C 554.256 639.771 616.811 562.414 703.101 553.315 z M 629.375 643.707 C 631.003 645.416 632.213 651.255 633.844 653.185 C 654.942 678.15 683.108 704.469 706.077 727.411 L 783.402 805.887 C 775.19 808.247 762.729 813.044 754.213 815.975 C 669.08 842.444 590.326 769.351 610.515 682.301 C 614.212 666.364 620.371 657.039 629.375 643.707 z M 711.514 598.409 C 803.813 588.296 866.725 696.701 810.593 772.692 C 806.347 765.605 801.707 760.748 796.214 754.654 C 786.237 743.927 772.983 731.471 762.382 720.878 L 692.885 651.399 C 681.036 639.549 666.965 626.19 656.041 613.852 C 661.8 607.991 701.059 599.297 711.514 598.409 z M 441.786 209.585 C 526.991 205.581 599.324 271.376 603.386 356.579 C 607.448 441.781 541.702 514.159 456.502 518.28 C 371.22 522.404 298.757 456.581 294.691 371.296 C 290.625 286.011 356.498 213.592 441.786 209.585 z M 434.743 255.178 C 494.826 247.282 549.943 289.565 557.879 349.643 C 565.816 409.721 523.569 464.865 463.497 472.842 C 403.367 480.826 348.159 438.531 340.215 378.397 C 332.271 318.262 374.603 263.082 434.743 255.178 z M 338.23 572.424 C 348.917 571.395 368.456 571.855 379.696 571.846 L 453.639 571.85 L 507.58 571.879 C 521.127 571.911 544.085 569.299 552.557 581.886 C 559.767 592.6 556.239 611.109 542.172 614.51 C 524.762 618.719 505.482 617.189 487.472 617.17 L 389.117 617.118 C 345.891 617.116 313.818 612.378 276.275 637.325 C 212.667 685.085 242.997 744.617 222.936 761.842 C 218.749 765.365 213.316 767.047 207.871 766.506 C 197.91 765.593 193.423 760.804 187.527 753.714 C 186.656 749.903 186.119 746.023 185.921 742.118 C 180.982 655.214 239.439 578.795 328.085 573.076 C 331.465 572.858 334.846 572.619 338.23 572.424 z" fill="#FFFFFF"></path>
    </g>
</svg>
