<?xml version="1.0" encoding="UTF-8"?>
<svg width="72px" height="72px" viewBox="0 0 72 72" version="1.1" xmlns="http://www.w3.org/2000/svg" xmlns:xlink="http://www.w3.org/1999/xlink">
    <title>General / menu_share_off</title>
    <g id="General-/-menu_share_off" stroke="none" fill="none" fill-rule="evenodd" stroke-width="1">
        <g id="Group-Copy" fill="#FFFFFF">
            <path d="M13.5410475,10.3605877 L63.5410475,57.3605877 C64.4464699,58.2116848 64.4905093,59.6356251 63.6394123,60.5410475 C62.7883152,61.4464699 61.3643749,61.4905093 60.4589525,60.6394123 L10.4589525,13.6394123 C9.55353009,12.7883152 9.5094907,11.3643749 10.3605877,10.4589525 C11.2116848,9.55353009 12.6356251,9.5094907 13.5410475,10.3605877 Z M20.8697864,27.9167669 L24.2120013,31.0494419 C22.5720741,32.209287 20.97837,33.5705168 19.4634089,35.1234281 C14.9053119,39.7957062 11.9408626,45.1740812 10.5605883,51.3047505 L11.5051987,50.6015513 C16.0028436,47.2792607 19.5161459,45.0657707 22.0998368,43.9379122 C25.3941073,42.4998643 29.8873875,41.7830384 35.6139217,41.7402273 L39.7497201,45.6169821 L39.75,52.8610336 L43.6427201,49.2669821 L46.9337201,52.3519821 L41.5435504,57.3295353 C40.8508419,57.9689585 39.9427126,58.3240224 39,58.3240224 C36.9289322,58.3240224 35.25,56.6450902 35.25,54.5740224 L35.25,46.2445368 C30.2823664,46.3118224 26.4887541,46.9320902 23.9001632,48.0620878 C21.1038403,49.2827666 16.6790868,52.217586 10.7334856,56.8296594 C10.0454974,57.3626476 9.17248701,57.5974385 8.30996087,57.4814518 C6.53104748,57.2422354 5.28287643,55.606218 5.5220928,53.8273046 L5.82195865,51.5973762 L5.91112003,51.609366 C7.32643988,44.1287015 10.7867131,37.5733134 16.2423132,31.9810496 C17.7180145,30.4683817 19.2679346,29.1105456 20.8697864,27.9167669 Z M41.574499,10.6994311 L63.4340398,30.8770703 C63.5173005,30.9539264 63.5974393,31.0340651 63.6742803,31.1173096 C65.2663463,32.8420477 65.1587942,35.5308487 63.4340561,37.1229146 L55.0377201,44.8719821 L51.7467201,41.7869821 L60.1827844,34.0000018 L39.7914686,15.1776163 L39.8121759,19.4395349 L39.81008,21.9362814 C39.8076961,22.3780357 39.8040398,22.7522447 39.7990732,23.0599114 L39.7825303,23.7289937 C39.7787867,23.8265061 39.7745714,23.9114264 39.7697493,23.9851995 C39.7624707,24.096554 39.7535986,24.1918121 39.7385791,24.2928873 L39.661515,24.796446 C39.4402142,26.1576904 39.2505293,26.2209711 37.5424339,26.2531907 C36.8212,26.2667952 36.0924969,26.3233582 35.3590026,26.4220805 L31.3609553,22.6738894 C32.6774415,22.3146094 33.997132,22.0625163 35.3100594,21.9217361 L35.3094753,18.5338121 C35.304347,17.1233929 35.2942592,15.4381587 35.2792041,13.4782339 C35.2728525,12.5247482 35.6299537,11.6046499 36.2778705,10.9050936 C37.6851807,9.38561997 40.0578077,9.29469349 41.574499,10.6994311 Z" id="Shape" fill-rule="nonzero"></path>
        </g>
    </g>
</svg>