<?xml version="1.0" encoding="UTF-8"?>
<svg width="72px" height="72px" viewBox="0 0 72 72" version="1.1" xmlns="http://www.w3.org/2000/svg" xmlns:xlink="http://www.w3.org/1999/xlink">
    <title>General / menu_share_on</title>
    <g id="General-/-menu_share_on" stroke="none" fill="none" fill-rule="nonzero">
        <path d="M70.5418968,45.3555412 C71.4743766,46.1769042 71.5644546,47.5986747 70.7430916,48.5311546 L57.3925886,63.6877603 C57.3238151,63.7641971 57.3238151,63.7641971 57.2518797,63.8376661 C55.9826757,65.1068701 53.9248896,65.1068701 52.6556856,63.8376661 L46.4090097,57.5909903 C45.5303301,56.7123106 45.5303301,55.2876894 46.4090097,54.4090097 C47.2876894,53.5303301 48.7123106,53.5303301 49.5909903,54.4090097 L54.896011,59.7140304 L67.3662834,45.556736 C68.1876464,44.6242562 69.6094169,44.5341782 70.5418968,45.3555412 Z M40.574499,6.69943107 L62.4340398,26.8770703 C62.5173005,26.9539264 62.5974393,27.0340651 62.6742803,27.1173096 C64.2663463,28.8420477 64.1587942,31.5308487 62.4340561,33.1229146 L40.5435504,53.3295353 C39.8508419,53.9689585 38.9427126,54.3240224 38,54.3240224 C35.9289322,54.3240224 34.25,52.6450902 34.25,50.5740224 L34.25,42.2445368 C29.2823664,42.3118224 25.4887541,42.9320902 22.9001632,44.0620878 C20.1038403,45.2827666 15.6790868,48.217586 9.73348561,52.8296594 C9.04549739,53.3626476 8.17248701,53.5974385 7.30996087,53.4814518 C5.53104748,53.2422354 4.28287643,51.606218 4.5220928,49.8273046 L4.82195865,47.5973762 L4.91112003,47.609366 C6.32643988,40.1287015 9.78671313,33.5733134 15.2423132,27.9810496 C20.9223073,22.1587705 27.7018464,18.6303097 34.3100594,17.9217361 C34.311043,17.7474678 34.3117992,17.5601548 34.3123494,17.3612422 L34.312932,17.1056401 L34.3131028,15.9634276 C34.3110268,14.3126951 34.2997338,12.1508586 34.2792041,9.47823391 C34.2728525,8.52474824 34.6299537,7.60464986 35.2778705,6.90509359 C36.6851807,5.38561997 39.0578077,5.29469349 40.574499,6.69943107 Z M38.7914686,11.1776163 C38.8038479,13.0150348 38.8109783,14.5636507 38.8129119,15.8271389 L38.8129621,17.0925577 C38.8127949,17.188613 38.812585,17.2823229 38.8123322,17.3736902 C38.8098628,18.2664023 38.8033194,18.9389672 38.7924819,19.3972354 C38.7866103,19.6455183 38.7793935,19.8376533 38.7697493,19.9851995 C38.7624707,20.096554 38.7535986,20.1918121 38.7385791,20.2928873 C38.4636206,22.1432446 38.4403177,22.2173911 36.5424339,22.2531907 C30.5168733,22.3668501 23.9699768,25.4789196 18.4634089,31.1234281 C13.9053119,35.7957062 10.9408626,41.1740812 9.56058826,47.3047505 C14.5138287,43.5897332 18.3379603,41.1435541 21.0998368,39.9379122 C24.7547558,38.3424304 29.8855842,37.6347299 36.5390895,37.7503396 L38.75,37.7887558 L38.75,48.8610336 L59.1827844,30.0000018 L38.7914686,11.1776163 Z" id="Combined-Shape" fill="#FFFFFF"></path>
    </g>
</svg>