<?xml version="1.0" encoding="UTF-8"?>
<svg width="72px" height="72px" viewBox="0 0 72 72" version="1.1" xmlns="http://www.w3.org/2000/svg" xmlns:xlink="http://www.w3.org/1999/xlink">
    <title>Tabs / tabs_undo</title>
    <g id="Tabs-/-tabs_undo" stroke="none" fill="none" fill-rule="nonzero">
        <path d="M28.8596112,10.0564495 C29.9330045,11.1309395 29.9321155,12.872143 28.8576254,13.9455363 L21.6432256,21.151 L43.0940241,21.1519143 C53.4493631,21.1519143 61.8440241,29.5465752 61.8440241,39.9019143 C61.8440241,50.2572533 53.4493631,58.6519143 43.0940241,58.6519143 L22.4020438,58.6519143 C20.8832607,58.6519143 19.6520438,57.4206973 19.6520438,55.9019143 C19.6520438,54.3831312 20.8832607,53.1519143 22.4020438,53.1519143 L43.0940241,53.1519143 C50.411797,53.1519143 56.3440241,47.2196872 56.3440241,39.9019143 C56.3440241,32.5841413 50.411797,26.6519143 43.0940241,26.6519143 L21.6432256,26.651 L28.8576254,33.8582922 C29.9321155,34.9316855 29.9330045,36.672889 28.8596112,37.747379 C27.7862179,38.821869 26.0450145,38.8227581 24.9705245,37.7493648 L13.1438786,25.9347904 C12.0203413,24.8123999 12.0203413,22.9914286 13.1438786,21.8690381 L24.9705245,10.0544637 C26.0450145,8.9810704 27.7862179,8.98195948 28.8596112,10.0564495 Z" id="Path" fill="#FFFFFF"></path>
    </g>
</svg>