<?xml version="1.0" encoding="UTF-8"?>
<svg width="72px" height="72px" viewBox="0 0 72 72" version="1.1" xmlns="http://www.w3.org/2000/svg" xmlns:xlink="http://www.w3.org/1999/xlink">
    <title>Tabs / tabs_redo</title>
    <g id="Tabs-/-tabs_redo" stroke="none" fill="none" fill-rule="nonzero">
        <path d="M44.2465089,10.1624614 C43.2316643,11.1783428 43.2325049,12.8245716 44.2483864,13.8394161 L51.7187744,21.301 L29.9059759,21.3019143 C19.6334796,21.3019143 11.3059759,29.6294179 11.3059759,39.9019143 C11.3059759,50.1744106 19.6334796,58.5019143 29.9059759,58.5019143 L50.5979562,58.5019143 C52.0338966,58.5019143 53.1979562,57.3378546 53.1979562,55.9019143 C53.1979562,54.4659739 52.0338966,53.3019143 50.5979562,53.3019143 L29.9059759,53.3019143 C22.5053603,53.3019143 16.5059759,47.3025299 16.5059759,39.9019143 C16.5059759,32.5012986 22.5053603,26.5019143 29.9059759,26.5019143 L51.7187744,26.501 L44.2483864,33.9644124 C43.2325049,34.979257 43.2316643,36.6254857 44.2465089,37.6413672 C45.2613535,38.6572487 46.9075822,38.6580892 47.9234637,37.6432447 L59.7501096,25.8286702 C60.814996,24.7648707 60.814996,23.0389578 59.7501096,21.9751583 L47.9234637,10.1605839 C46.9075822,9.14573929 45.2613535,9.14657987 44.2465089,10.1624614 Z" id="Path" fill="#FFFFFF"></path>
    </g>
</svg>