<?xml version="1.0" encoding="UTF-8"?>
<svg width="24px" height="24px" viewBox="0 0 24 24" version="1.1" xmlns="http://www.w3.org/2000/svg" xmlns:xlink="http://www.w3.org/1999/xlink">
    <title>Icon / Menu / menu_tag_add</title>
    <g id="Icon-/-Menu-/-menu_tag_add" stroke="none" fill="none" fill-rule="evenodd">
        <path d="M16.599856,4.56363636 C17.535585,4.56363636 18.4029715,5.05848397 18.895196,5.86914299 L22.2846438,11.4513241 C22.7051187,12.1438167 22.7051187,13.0198196 22.2846438,13.7123122 L18.895196,19.2944934 C18.4029715,20.1051524 17.535585,20.6 16.599856,20.6 L7.25495844,20.6 C5.42706662,20.6 3.95240838,19.0820888 3.95240838,17.2181818 L3.95240838,11.5364421 C3.95240838,11.2050712 4.22103753,10.9364421 4.55240838,10.9364421 C4.88377923,10.9364421 5.15240838,11.2050712 5.15240838,11.5364421 L5.15240838,17.2181818 C5.15240838,18.4269864 6.09769589,19.4 7.25495844,19.4 L16.599856,19.4 C17.1136128,19.4 17.5934712,19.1262387 17.8694727,18.6716839 L21.2589205,13.0895027 C21.4470265,12.7797053 21.4470265,12.3839311 21.2589205,12.0741337 L17.8694727,6.49195251 C17.5934712,6.03739762 17.1136128,5.76363636 16.599856,5.76363636 L10.24363,5.76363636 C9.91225919,5.76363636 9.64363004,5.49500721 9.64363004,5.16363636 C9.64363004,4.83226551 9.91225919,4.56363636 10.24363,4.56363636 L16.599856,4.56363636 Z M16.2634586,11.1909091 C17.0097472,11.1909091 17.6147336,11.8136403 17.6147336,12.5818182 C17.6147336,13.3499961 17.0097472,13.9727273 16.2634586,13.9727273 C15.51717,13.9727273 14.9121836,13.3499961 14.9121836,12.5818182 C14.9121836,11.8136403 15.51717,11.1909091 16.2634586,11.1909091 Z M4.43002129,2.4 C4.76139214,2.4 5.03002129,2.66862915 5.03002129,3 L5.02908502,5.233 L7.26004258,5.23333333 C7.59141343,5.23333333 7.86004258,5.50196248 7.86004258,5.83333333 C7.86004258,6.16470418 7.59141343,6.43333333 7.26004258,6.43333333 L5.02908502,6.433 L5.03002129,8.66666667 C5.03002129,8.99803752 4.76139214,9.26666667 4.43002129,9.26666667 C4.09865044,9.26666667 3.83002129,8.99803752 3.83002129,8.66666667 L3.82908502,6.433 L1.6,6.43333333 C1.26862915,6.43333333 1,6.16470418 1,5.83333333 C1,5.50196248 1.26862915,5.23333333 1.6,5.23333333 L3.82908502,5.233 L3.83002129,3 C3.83002129,2.66862915 4.09865044,2.4 4.43002129,2.4 Z" id="Shape" fill="#FFFFFF"></path>
    </g>
</svg>