<?xml version="1.0" encoding="UTF-8"?>
<svg width="24px" height="24px" viewBox="0 0 24 24" version="1.1" xmlns="http://www.w3.org/2000/svg" xmlns:xlink="http://www.w3.org/1999/xlink">
    <title>Icon / Menu / menu_tag_edit</title>
    <g id="Icon-/-Menu-/-menu_tag_edit" stroke="none" fill="none" fill-rule="evenodd">
        <path d="M16.599856,4.56363636 C17.535585,4.56363636 18.4029715,5.05848397 18.895196,5.86914299 L22.2846438,11.4513241 C22.7051187,12.1438167 22.7051187,13.0198196 22.2846438,13.7123122 L18.895196,19.2944934 C18.4029715,20.1051524 17.535585,20.6 16.599856,20.6 L7.25495844,20.6 C5.42706662,20.6 3.95240838,19.0820888 3.95240838,17.2181818 L3.95240838,14.6702947 C3.95240838,14.3389239 4.22103753,14.0702947 4.55240838,14.0702947 C4.88377923,14.0702947 5.15240838,14.3389239 5.15240838,14.6702947 L5.15240838,17.2181818 C5.15240838,18.4269864 6.09769589,19.4 7.25495844,19.4 L16.599856,19.4 C17.1136128,19.4 17.5934712,19.1262387 17.8694727,18.6716839 L21.2589205,13.0895027 C21.4470265,12.7797053 21.4470265,12.3839311 21.2589205,12.0741337 L17.8694727,6.49195251 C17.5934712,6.03739762 17.1136128,5.76363636 16.599856,5.76363636 L14.031014,5.76363636 C13.6996432,5.76363636 13.431014,5.49500721 13.431014,5.16363636 C13.431014,4.83226551 13.6996432,4.56363636 14.031014,4.56363636 L16.599856,4.56363636 Z M16.2634586,11.1909091 C17.0097472,11.1909091 17.6147336,11.8136403 17.6147336,12.5818182 C17.6147336,13.3499961 17.0097472,13.9727273 16.2634586,13.9727273 C15.51717,13.9727273 14.9121836,13.3499961 14.9121836,12.5818182 C14.9121836,11.8136403 15.51717,11.1909091 16.2634586,11.1909091 Z M9.83896948,2.96952606 L11.6623203,4.84566378 C12.0985241,5.29466176 12.0985241,6.00915906 11.6623203,6.45815704 L6.52054212,11.7507481 C6.31002174,11.9674432 6.02309451,12.0932021 5.72108049,12.1011485 L3.59699439,12.157036 C3.11196702,12.1697977 2.70842924,11.7869508 2.69566752,11.3019234 L2.75052739,9.04653645 C2.75775533,8.75547719 2.87444695,8.47784136 3.0773236,8.26901415 L8.2028283,2.99317397 C8.64810602,2.53483587 9.38063138,2.52424834 9.83896948,2.96952606 Z M7.00385646,5.94974937 L3.94974021,9.093133 L3.90366423,10.9485518 L5.67202981,10.9020238 L8.76590842,7.71849906 C8.69791967,7.68828862 8.63444899,7.64484068 8.57943411,7.58821217 L7.07780938,6.04254349 C7.04964358,6.01355156 7.02499515,5.98244405 7.00385646,5.94974937 Z M9.03272284,3.86106211 L7.81747041,5.11015524 C7.8608342,5.13627396 7.90157846,5.16835024 7.93851179,5.20636686 L9.44013652,6.75203554 C9.48642883,6.79968564 9.52321964,6.85305056 9.55054286,6.90978429 L10.7725408,5.65191041 L9.03272284,3.86106211 Z" id="Shape" fill="#FFFFFF"></path>
    </g>
</svg>