<?xml version="1.0" encoding="UTF-8"?>
<svg width="24px" height="24px" viewBox="0 0 24 24" version="1.1" xmlns="http://www.w3.org/2000/svg" xmlns:xlink="http://www.w3.org/1999/xlink">
    <title>Icon / Menu / text_framed</title>
    <g id="Icon-/-Menu-/-text_framed" stroke="none" fill="none" fill-rule="evenodd" stroke-width="1">
        <g id="Group-Copy" transform="translate(2.5, 2.5)" fill="#FFFFFF">
            <path d="M14,-0.599999989 C17.0927946,-0.599999989 19.6,1.9072054 19.6,5 L19.6,14 C19.6,17.0927946 17.0927946,19.6 14,19.6 L5,19.6 C1.9072054,19.6 -0.6,17.0927946 -0.6,14 L-0.6,5 C-0.6,1.9072054 1.9072054,-0.599999989 5,-0.599999989 L14,-0.599999989 Z M14,0.6 L5,0.6 L4.55012557,0.622716709 C2.33139882,0.848040676 0.6,2.72182541 0.6,5 L0.6,14 C0.6,16.4300529 2.5699471,18.4 5,18.4 L14,18.4 C16.4300529,18.4 18.4,16.4300529 18.4,14 L18.4,5 C18.4,2.5699471 16.4300529,0.6 14,0.6 Z M9.97655065,4.03401385 C10.3593484,4.17343225 10.6607815,4.47517036 10.7998126,4.85810895 L14.110978,13.9781761 C14.233488,14.3156099 14.0592578,14.688468 13.7218239,14.810978 C13.3843901,14.933488 13.011532,14.7592578 12.889022,14.4218239 L11.966,11.88 L7.036,11.88 L6.11075332,14.4224419 C5.98790207,14.7597516 5.61486788,14.9336046 5.27755814,14.8107533 C4.94024839,14.6879021 4.76639543,14.3148679 4.88924668,13.9775581 L8.21110911,4.85679966 C8.4714163,4.14208042 9.2618314,3.77370666 9.97655065,4.03401385 Z M9.43261575,5.30168339 L7.509,10.58 L11.494,10.58 L9.57785654,5.30175685 C9.57005611,5.28027185 9.55314403,5.26334264 9.53166693,5.25552049 C9.49156717,5.2409158 9.44722044,5.26158363 9.43261575,5.30168339 Z" id="Shape" fill-rule="nonzero"></path>
        </g>
    </g>
</svg>