<?xml version="1.0" encoding="UTF-8"?>
<svg width="24px" height="24px" viewBox="0 0 24 24" version="1.1" xmlns="http://www.w3.org/2000/svg" xmlns:xlink="http://www.w3.org/1999/xlink">
    <title>Icon / Menu / text_semi</title>
    <g id="Icon-/-Menu-/-text_semi" stroke="none" fill="none">
        <path d="M8,2 L16,2 C19.3137085,2 22,4.6862915 22,8 L22,16 C22,19.3137085 19.3137085,22 16,22 L8,22 C4.6862915,22 2,19.3137085 2,16 L2,8 C2,4.76160306 4.56557489,2.12242824 7.77506174,2.00413847 L8,2 Z" id="Rectangle" fill="#FFFFFF" fill-rule="evenodd" opacity="0.15"></path>
        <path d="M12.4765507,6.53401385 C12.8593484,6.67343225 13.1607815,6.97517036 13.2998126,7.35810895 L16.610978,16.4781761 C16.733488,16.8156099 16.5592578,17.188468 16.2218239,17.310978 C15.8843901,17.433488 15.511532,17.2592578 15.389022,16.9218239 L14.4658231,14.38048 L9.53582311,14.38048 L8.61075332,16.9224419 C8.48790207,17.2597516 8.11486788,17.4336046 7.77755814,17.3107533 C7.44024839,17.1879021 7.26639543,16.8148679 7.38924668,16.4775581 L10.7111091,7.35679966 C10.9714163,6.64208042 11.7618314,6.27370666 12.4765507,6.53401385 Z M11.9326158,7.80168339 L10.0088231,13.08048 L13.9948231,13.08048 L12.0778565,7.80175685 C12.0700561,7.78027185 12.053144,7.76334264 12.0316669,7.75552049 C11.9915672,7.7409158 11.9472204,7.76158363 11.9326158,7.80168339 Z" id="Shape" fill="#FFFFFF" fill-rule="nonzero"></path>
    </g>
</svg>