<?xml version="1.0" encoding="UTF-8"?>
<svg width="24px" height="24px" viewBox="0 0 24 24" version="1.1" xmlns="http://www.w3.org/2000/svg" xmlns:xlink="http://www.w3.org/1999/xlink">
    <title>Icon / Menu / text_plain</title>
    <g id="Icon-/-Menu-/-text_plain" stroke="none" fill="none" fill-rule="nonzero">
        <path d="M12.5653175,4.74076496 C13.033686,4.90830287 13.4021688,5.27715336 13.5692393,5.74568882 L17.7064322,17.3481001 C17.8455527,17.7382518 17.6420516,18.1673117 17.2518999,18.3064322 C16.8617482,18.4455527 16.4326883,18.2420516 16.2935678,17.8518999 L15.1227957,14.570379 L8.87979566,14.570379 L7.70618054,17.8526045 C7.56667093,18.2426173 7.13740824,18.4456902 6.74739549,18.3061805 C6.35738275,18.1666709 6.15430984,17.7374082 6.29381946,17.3473955 L10.4443687,5.74413013 C10.7529809,4.88137467 11.702562,4.43215278 12.5653175,4.74076496 Z M11.8567298,6.24933915 L9.41579566,13.070379 L14.5877957,13.070379 L12.1563749,6.24948861 C12.1403545,6.20456056 12.1050205,6.16919133 12.0601085,6.15312605 C11.9773785,6.1235331 11.8863228,6.16660918 11.8567298,6.24933915 Z" id="Shape" fill="#FFFFFF"></path>
    </g>
</svg>