<?xml version="1.0" encoding="UTF-8"?>
<svg width="18px" height="18px" viewBox="-29.406 151.938 1015.18 1015.18" xmlns="http://www.w3.org/2000/svg">
    <g stroke="none" fill="none" fill-rule="evenodd">
        <path d="M 681.49 238.5 C 688.644 238.228 698.144 238.411 700.312 246.982 C 705.155 266.121 706.46 291.051 702.367 310.395 C 697.621 326.84 676.818 331.53 668.6 345.449 C 656.82 365.403 659.626 383.752 645.214 402.765 C 633.25 418.55 620.051 435.809 610.041 452.717 C 603.542 463.695 601.169 480.533 592.705 491.252 C 583.025 504.078 568.174 510.614 561.32 525.929 C 552.186 546.341 592.151 588.784 605.893 601.159 C 615.384 609.706 634.202 618.934 644.263 627.575 C 655.754 637.444 663.187 648.609 675.803 657.639 C 691.081 668.574 715.992 674.152 722.508 693.522 C 728.788 712.19 733.439 745.591 725.257 764.511 C 720.654 775.157 701.808 783.849 692.34 790.697 C 684.545 796.336 678.531 800.452 671.216 807.257 C 664.567 813.444 655.306 823.829 648.411 828.884 C 636.538 837.587 620.134 844.374 607.919 851.916 C 597.197 858.537 585.891 873.728 575.221 881.665 C 557.283 895.346 536.237 903.788 518.313 917.394 C 511.466 922.591 505.979 927.797 499.804 933.7 C 495.985 936.801 490.612 943.433 486.689 945.809 C 463.073 960.112 444.838 974.06 425.927 994.068 C 419.08 1001.31 396.985 1008.69 387.418 1016.88 C 373.673 1028.65 360.538 1041.92 346.069 1052.69 C 334.225 1060.37 304.75 1076.26 291.692 1080.83 C 288.158 1080.68 285.573 1078.81 282.48 1077.04 C 270.856 1068.08 260.108 1052.45 255.419 1038.18 C 254.539 1035.5 258.24 1025.19 259.307 1021.79 C 265.905 1000.78 273.744 983.213 288.982 967.103 C 294.966 960.777 303.117 950.814 307.7 943.234 C 317.209 927.506 321.822 908.356 329.895 892.306 C 336.76 878.655 349.339 865.14 357.94 852.051 C 370.179 834.076 375.822 813.134 383.093 793.046 C 389.616 776 404.657 759.437 387.818 742.303 C 367.195 721.318 341.998 698.709 319.047 679.848 C 309.642 672.118 295.606 667.096 286.095 659.91 C 274.74 651.33 264.457 634.463 254.32 624.195 C 248.395 617.985 241.484 610.31 235.612 604.3 C 225.929 594.39 222.929 584.767 231.45 572.836 C 232.909 570.83 234.301 567.699 235.967 565.889 C 251.962 548.522 265.616 529.598 280.907 511.809 C 281.408 511.226 290.425 505.453 291.709 504.647 C 315.694 489.596 336.052 470.125 358.727 453.357 C 378.854 438.328 401.913 426.515 419.485 408.559 C 425.232 403.373 431.383 395.076 437.976 391.068 C 461.361 376.852 483.636 361.638 506.002 345.931 C 522.91 334.057 542.313 324.101 559.034 312.114 C 578.878 297.889 595.117 276.961 616.056 263.808 C 628.59 256.289 667.254 240.757 681.49 238.5 z" fill="#FFFFFF"></path>
    </g>
</svg>
