<?xml version="1.0" encoding="UTF-8"?>
<svg width="12px" height="12px" viewBox="0 0 12 12" version="1.1" xmlns="http://www.w3.org/2000/svg" xmlns:xlink="http://www.w3.org/1999/xlink">
    <title>Frame</title>
    <g id="Frame" stroke="none" fill="none" fill-rule="evenodd" opacity="0.96">
        <path d="M3.47232117,10.0058939 L8.6479454,10.0058939 C9.25070236,10.0077614 9.5475096,9.49980411 9.49380938,8.90884512 C9.44010917,8.31788612 8.96625782,7.90667064 8.6559794,7.64505695 C8.34570097,7.38344326 7.97147379,7.17042371 7.53329786,7.00599828 C7.09512192,6.84157286 6.60417095,6.75936015 6.06044495,6.75936015 C5.51671894,6.75936015 5.02609118,6.84157286 4.58856166,7.00599828 C4.15103214,7.17042371 3.77638941,7.38344326 3.46463347,7.64505695 C3.15287752,7.90667064 2.91416629,8.18814985 2.74849978,8.48949459 C2.58283326,8.79083933 2.5,9.07800784 2.5,9.35100012 C2.5,9.55943532 2.5712209,9.72068697 2.71366271,9.83475505 C2.85610452,9.94882313 3.10899067,10.0058939 3.47232117,10.0058939 Z M6,5.90172823 C6.33546814,5.90172823 6.64128321,5.81401041 6.9174452,5.63857477 C7.19360719,5.46313913 7.41408799,5.22688257 7.57888757,4.92980509 C7.74368716,4.63272761 7.82608696,4.29896373 7.82608696,3.92851344 C7.82608696,3.57139045 7.74289806,3.24750088 7.57652026,2.95684474 C7.41014246,2.66618859 7.18852733,2.43503275 6.91167487,2.26337721 C6.63482242,2.09172168 6.33093079,2.00589391 6,2.00589391 C5.66906921,2.00589391 5.36518991,2.09261824 5.08836211,2.2660669 C4.81153432,2.43951556 4.58991919,2.67233126 4.42351673,2.96451399 C4.25711427,3.25669672 4.17391304,3.58047724 4.17391304,3.93585557 C4.17529398,4.30141111 4.25838424,4.63272761 4.42318383,4.92980509 C4.58798341,5.22688257 4.80892041,5.46313913 5.0859948,5.63857477 C5.36306919,5.81401041 5.66773759,5.90172823 6,5.90172823 Z" id="Shape" fill="#FFFFFF"></path>
    </g>
</svg>