<?xml version="1.0" encoding="UTF-8"?>
<svg width="12px" height="12px" viewBox="0 0 12 12" version="1.1" xmlns="http://www.w3.org/2000/svg" xmlns:xlink="http://www.w3.org/1999/xlink">
    <title>Frame 2</title>
    <g id="Frame-2" stroke="none" fill="none" fill-rule="evenodd">
        <path d="M2.13517738,1.40071962 L10.4283709,9.69984143 C10.6131636,9.8847663 10.6130566,10.1844817 10.4281317,10.3692744 C10.2432068,10.5540672 9.94349144,10.5539601 9.75869866,10.3690353 L1.46550517,2.06991346 C1.2807124,1.88498859 1.28081949,1.58527322 1.46574436,1.40048044 C1.65066923,1.21568767 1.9503846,1.21579475 2.13517738,1.40071962 Z M2.21299017,3.74757128 L3.570434,5.13615535 C3.47756691,5.40661086 3.42708333,5.69730646 3.42708333,6 C3.42708333,7.44591216 4.57901736,8.61805556 6,8.61805556 C6.29123406,8.61805556 6.57116658,8.56881901 6.83219668,8.47808017 L7.85969345,9.53166572 C7.27631026,9.77715056 6.6471673,9.92708333 6,9.92708333 C3.26627604,9.92708333 0.854166667,7.22876011 0.854166667,6 C0.854166667,5.42763561 1.37753567,4.53641181 2.21299017,3.74757128 Z M6,2.07291667 C8.73372396,2.07291667 11.1458333,4.74821822 11.1458333,6 C11.1458333,6.54300264 10.6919506,7.35386667 9.95482062,8.09802832 L8.48635491,6.67589505 C8.54281989,6.46027883 8.57291667,6.23371582 8.57291667,6 C8.57291667,4.55408784 7.42098264,3.38194444 6,3.38194444 C5.72413158,3.38194444 5.4584036,3.42612256 5.20927625,3.50790529 L4.13829507,2.47214122 C4.72224346,2.22448748 5.35208883,2.07291667 6,2.07291667 Z M4.34716667,5.93211111 L6.05425698,7.6821473 L6,7.68303571 C5.08651116,7.68303571 4.34598214,6.92951496 4.34598214,6 L4.34716667,5.93211111 Z M7.64882748,5.86568394 L6.04716667,4.31811111 L6,4.31696429 C6.8690578,4.31696429 7.58157174,4.99896692 7.64882748,5.86568394 Z" id="Shape" fill="#FFFFFF"></path>
    </g>
</svg>