<?xml version="1.0" encoding="UTF-8"?>
<svg width="72px" height="72px" viewBox="0 0 72 72" version="1.1" xmlns="http://www.w3.org/2000/svg" xmlns:xlink="http://www.w3.org/1999/xlink">
    <title>General / filled_requests</title>
    <g id="General-/-filled_requests" stroke="none" fill="none" fill-rule="nonzero">
        <path d="M37.6062204,38.4734682 L58.2048244,56.144283 C59.3485668,57.1254593 58.6546858,59 57.1477506,59 L14.4321231,59 C12.9197236,59 12.2288916,57.1140445 13.3834442,56.1371307 L34.2723925,38.4621447 C35.235766,37.6469954 36.6484065,37.6517934 37.6062204,38.4734682 Z M49.4101573,19.4006304 L60.9850903,26.9629243 C61.6183077,27.3766265 62,28.0819329 62,28.8383148 L62,50.8435452 C62,52.3220843 60.2624142,53.1162894 59.1443856,52.148772 L47.4061445,41.9907559 C46.8413466,41.5019922 46.8107531,40.6363593 47.3396368,40.1089423 L56.8439897,30.6309482 C57.5053586,29.9714135 57.391405,28.8702398 56.6089951,28.3601127 L46.9391779,22.0554433 C46.0082928,21.4485111 45.9808628,20.0947213 46.8863993,19.4505803 C47.6373056,18.9164334 48.6387038,18.8966139 49.4101573,19.4006304 Z M26.1655324,18.6593495 C27.0067861,19.2489859 26.998305,20.4979763 26.1491215,21.0761339 L15.664136,28.2147253 C14.8968106,28.7371506 14.8003537,29.8314468 15.4644589,30.4800459 L25.0156964,39.8082715 C25.5535939,40.3336096 25.5276098,41.2064832 24.9594156,41.6988947 L13.2864815,51.8149565 C12.168705,52.7836501 10.429937,51.9896537 10.429937,50.5105351 L10.429937,28.8042665 C10.429937,28.062888 10.7967343,27.3695278 11.4096153,26.952372 L23.6192845,18.6418924 C24.3891532,18.1178833 25.402921,18.1248337 26.1655324,18.6593495 Z M35.3674462,28.1902301 C37.0093009,28.1902301 38.3742163,29.3366371 38.3742163,30.977185 C38.3742163,32.6177329 37.0093009,33.7641399 35.3674462,33.7641399 C33.7255915,33.7641399 32.3804575,32.6177329 32.3804575,30.977185 C32.3804575,29.3366371 33.7255915,28.1902301 35.3674462,28.1902301 Z M40.7875449,19.6119435 C38.8687508,21.0746006 38.2159652,21.7663979 37.7609934,23.4267115 C37.2664589,24.5928841 36.7521429,25.3835096 35.3674462,25.3835096 C33.9234053,25.3835096 33.13215,24.434759 33.13215,23.1697582 C33.13215,20.837413 34.061875,19.5131153 36.7323616,17.4179577 C38.6511556,15.9157692 39.7193502,14.9670186 39.7193502,13.2276425 C39.7193502,11.2906101 37.99837,10.0058436 35.822418,10.0058436 C33.9234053,10.0058436 32.6178341,10.7371722 31.6683278,12.3579545 C31.0551049,13.1683456 30.5803517,13.5438927 29.7495337,13.5438927 C28.5033066,13.5438927 27.8109583,12.6544391 27.8109583,11.567329 C27.8109583,10.2627969 28.5824322,8.8792023 29.7693151,7.83162351 C31.213356,6.60615399 33.3695266,5.8748254 36.1784829,5.8748254 C41.3809863,5.8748254 45.0009792,8.58271774 45.0009792,12.9904549 C45.0009792,16.0541287 43.3195618,17.7342079 40.7875449,19.6119435 Z" id="Shape" fill="#FFFFFF"></path>
    </g>
</svg>