<?xml version="1.0" encoding="UTF-8"?>
<svg width="72px" height="72px" viewBox="0 0 72 72" version="1.1" xmlns="http://www.w3.org/2000/svg" xmlns:xlink="http://www.w3.org/1999/xlink">
    <title>General / menu_sidebar3</title>
    <g id="General-/-menu_sidebar3" stroke="none" fill="none" fill-rule="nonzero">
        <path d="M51,11.75 C57.7654882,11.75 63.25,17.2345118 63.25,24 L63.25,48 C63.25,54.7654882 57.7654882,60.25 51,60.25 L21,60.25 C14.2345118,60.25 8.75,54.7654882 8.75,48 L8.75,24 C8.75,17.2345118 14.2345118,11.75 21,11.75 L51,11.75 Z M58.75,36.249 L13.25,36.249 L13.25,48 C13.25,52.2802068 16.7197932,55.75 21,55.75 L51,55.75 C55.2802068,55.75 58.75,52.2802068 58.75,48 L58.75,36.249 Z M51,16.25 L21,16.25 L20.2076076,16.2900124 C16.2996229,16.6868898 13.25,19.9873061 13.25,24 L13.25,31.749 L58.75,31.749 L58.75,24 C58.75,19.7197932 55.2802068,16.25 51,16.25 Z M52,22.25 C53.2426407,22.25 54.25,23.2573593 54.25,24.5 C54.25,25.7426407 53.2426407,26.75 52,26.75 L47,26.75 C45.7573593,26.75 44.75,25.7426407 44.75,24.5 C44.75,23.2573593 45.7573593,22.25 47,22.25 L52,22.25 Z M38,22.25 C39.2426407,22.25 40.25,23.2573593 40.25,24.5 C40.25,25.7426407 39.2426407,26.75 38,26.75 L33,26.75 C31.7573593,26.75 30.75,25.7426407 30.75,24.5 C30.75,23.2573593 31.7573593,22.25 33,22.25 L38,22.25 Z M25,22.25 C26.2426407,22.25 27.25,23.2573593 27.25,24.5 C27.25,25.7426407 26.2426407,26.75 25,26.75 L20,26.75 C18.7573593,26.75 17.75,25.7426407 17.75,24.5 C17.75,23.2573593 18.7573593,22.25 20,22.25 L25,22.25 Z" id="Shape" fill="#FFFFFF"></path>
    </g>
</svg>