<?xml version="1.0" encoding="UTF-8"?>
<svg width="16px" height="16px" viewBox="0 0 16 16" xmlns="http://www.w3.org/2000/svg">
    <g stroke="none" fill="none" fill-rule="evenodd">
        <path d="M8 3.5 C4.7 3.5 1.9 5.6 0.8 8.5 C0.74 8.66 0.74 8.84 0.8 9 C1.45 10.7 2.6 12.13 4.06 13.13 L2.7 14.49 C2.41 14.78 2.41 15.26 2.7 15.55 C2.99 15.84 3.47 15.84 3.76 15.55 L13.96 5.36 C14.25 5.07 14.25 4.59 13.96 4.3 C13.67 4.01 13.19 4.01 12.9 4.3 L11.55 5.65 C10.5 4.36 9.32 3.5 8 3.5 Z M5.62 11.57 C4.4 10.78 3.43 9.66 2.83 8.75 C3.86 7.18 5.83 5.5 8 5.5 C8.79 5.5 9.55 5.73 10.24 6.13 L9.16 7.21 C8.81 7.04 8.42 6.95 8 6.95 C6.51 6.95 5.3 8.16 5.3 9.65 C5.3 10.07 5.39 10.46 5.56 10.81 L5.62 11.57 Z M13.17 6.95 L11.74 8.38 C11.62 9.46 11.13 10.45 10.4 11.18 C9.5 12.08 8.3 12.5 8 12.5 L8 12.5 C7.84 12.5 7.62 12.49 7.36 12.46 L6.13 13.69 C6.74 13.89 7.37 14 8 14 C11.3 14 14.1 11.9 15.2 9 C15.26 8.84 15.26 8.66 15.2 8.5 C14.7 7.2 13.99 6.95 13.17 6.95 Z" fill="#FFFFFF" fill-rule="evenodd"></path>
    </g>
</svg>
