<?xml version="1.0" encoding="UTF-8"?>
<svg width="16px" height="16px" viewBox="0 0 48 48" version="1.1" xmlns="http://www.w3.org/2000/svg" xmlns:xlink="http://www.w3.org/1999/xlink">
    <title>Icon / Mini / mini_ton_bold</title>
    <g id="Icon-/-Mini-/-mini_ton_bold" stroke="none" fill="none" fill-rule="evenodd">
        <path d="M16.8320513,6.00293199 L30.8742776,6.00123694 C32.482123,6.00783392 33.4103182,6.04961484 34.2623721,6.31422732 C35.1580007,6.59421191 35.9885254,7.04943867 36.7058696,7.65573625 C37.5159618,8.34260493 38.1215277,9.28730116 39.331057,11.1787079 L42.4336058,16.0331171 C43.3610852,17.483397 43.8238233,18.2105513 43.9498243,18.9739625 C44.060601,19.6467312 43.9872841,20.3376285 43.736484,20.972126 C43.4520303,21.6912231 42.8444612,22.3015492 41.6315265,23.5201872 L27.3998258,37.8316301 C26.2101281,39.028111 25.6151791,39.6263515 24.9290847,39.8519506 C24.3257223,40.0493498 23.6742832,40.0493498 23.0707205,39.8519506 C22.3848264,39.6263515 21.7896771,39.028111 20.5999795,37.8316301 L6.36827878,23.5201872 C5.15534405,22.3015492 4.54777493,21.6912231 4.2633212,20.972126 C4.01272148,20.3376285 3.93940453,19.6467312 4.05018123,18.9739625 C4.17618221,18.208537 4.64052287,17.483397 5.56820259,16.0331171 L8.66894853,11.1787079 C9.87847782,9.28730116 10.4840437,8.34260493 11.2941359,7.65573625 C12.0112798,7.04943867 12.8420049,6.59421191 13.7374332,6.31422732 C14.5362336,6.06615312 15.4020801,6.01392697 16.8320513,6.00293199 L16.8320513,6.00293199 Z M26.6095652,16.0935454 L21.2222943,18.0992412 C20.8749418,18.2285614 20.8750778,18.7199164 21.2225017,18.8490444 L26.6095652,20.8512693 L28.5994612,26.262372 C28.7278807,26.611582 29.2217607,26.6116429 29.3502665,26.2624646 L31.3417134,20.8512693 L36.7271277,18.8490302 C37.0745006,18.7198807 37.0746365,18.2285972 36.7273352,18.0992555 L31.3417134,16.0935454 L29.3502525,10.6840067 C29.2217251,10.3348792 28.7279163,10.3349401 28.5994752,10.6840994 L26.6095652,16.0935454 Z" id="Shape" fill="#FFFFFF"></path>
    </g>
</svg>