<?xml version="1.0" encoding="UTF-8"?>
<svg width="16px" height="16px" viewBox="136 93 890 890" xmlns="http://www.w3.org/2000/svg">
    <g stroke="none" fill="none" fill-rule="evenodd">
        <path d="M 504.293 117.528 C 541.446 99.7386 580.165 93.0717 620.376 105.14 C 631.219 106.538 642.207 112.941 652.696 116.099 C 685.679 126.03 718.461 137.261 751.14 148.185 C 771.898 155.125 792.735 166.277 813.15 174.324 C 844.056 185.54 876.215 195.225 905.75 209.334 C 937.422 224.463 936.82 234.758 940.62 266.838 C 941.264 272.274 947.532 283.343 947.257 289.815 C 948.29 308.247 947.449 327.131 947.373 345.618 L 947.253 450.107 L 947.412 559.832 C 947.418 583.715 948.121 608.768 945.021 632.429 C 943.594 643.319 939.156 656.054 937.845 666.251 C 936.109 679.746 938.392 693.239 934.483 707.066 C 923.993 744.179 905.848 769.673 879.537 796.773 C 871.104 805.459 861.724 816.87 852.521 824.69 C 834.848 839.707 814.811 853.263 796.454 867.416 C 770.014 887.801 741.551 901.337 712.921 917.845 C 694.961 928.2 676.572 939.801 658.394 949.982 C 647.71 955.967 634.87 961.488 623.797 967.04 C 616.99 970.453 605.942 977.072 599.322 979.306 C 590.948 982.089 582.03 982.827 573.312 981.459 C 542.488 976.519 483.314 933.2 454.78 916.988 C 434.334 905.372 405.908 890.768 387.058 876.991 C 360.851 857.838 331.89 837.407 306.191 817.72 C 286.933 802.966 267.098 773.198 251.65 754.279 C 237.533 735.799 220.972 686.481 217.505 663.848 C 214.303 642.945 215.099 600.161 215.106 577.653 L 215.158 439.036 L 215.117 324.637 C 215.127 304.574 214.636 280.21 216.71 260.869 C 218.141 247.521 236.958 220.957 248.527 214.041 C 274.555 198.483 311.855 188.305 340.466 176.772 C 361.514 168.287 382.654 158.028 403.543 150.073 C 421.306 143.309 442.064 138.108 460.328 131.464 C 470.376 127.808 494.692 119.308 504.293 117.528 Z M 573.709 268.42 C 576.771 268.116 579.847 267.969 582.924 267.978 C 608.716 267.978 644.131 280.327 662.572 298.851 C 677.129 313.475 692.182 338.207 696.023 358.614 C 697.874 368.452 697.508 378.679 699.449 388.516 C 701.916 401.019 706.646 413.704 707.202 426.475 C 707.544 434.331 705.86 442.126 705.956 449.933 C 705.973 451.348 705.994 453.774 706.502 455.102 C 707.552 457.852 724.533 467.681 728.273 471.343 C 748.567 491.214 748.389 524.546 748.737 551.038 C 749.106 579.102 748.938 607.197 748.958 635.264 C 748.974 657.07 749.933 679.723 746.931 701.37 C 745.374 712.592 740.911 733.503 732.367 741.388 C 721.175 751.718 612.643 749.679 591.75 749.627 C 561.928 749.993 532.102 749.846 502.286 749.185 C 481.497 748.698 446.201 749.623 428.139 737.83 C 421.328 733.384 416.406 722.037 415.942 713.803 C 415.191 682.14 414.377 661.553 415.144 628.574 C 416.154 585.116 412.041 532.025 418.316 489.191 C 423.845 475.897 447.238 466.568 455.494 458.577 C 458.498 455.669 458.353 422.492 458.253 417.833 C 456.658 343.872 494.181 275.47 573.709 268.42 Z M 568.799 321.43 C 598.31 318.687 617.332 321.214 638.664 342.747 C 659.103 363.379 658.732 380.711 659.048 408.218 C 659.254 426.161 659.096 444.185 659.08 462.067 C 636.76 461.69 611.386 462.973 588.154 462.839 C 572.61 462.93 510.818 463.972 498.21 459.548 C 496.757 457.569 496.59 456.075 496.808 453.532 C 501.396 400.111 501.471 364.357 542.702 324.334 C 551.539 322.441 559.837 322.047 568.799 321.43 Z" fill="#FFFFFF" fill-rule="evenodd"></path>
    </g>
</svg>
