<?xml version="1.0" encoding="UTF-8"?>
<svg width="20px" height="20px" viewBox="-54 -126.5 1300 1300" xmlns="http://www.w3.org/2000/svg">
    <g stroke="none" fill="none" fill-rule="evenodd">
        <path d="M 293.256 246.66 C 303.57 231.316 346.963 193.508 362.121 182.857 C 382.415 168.598 439.629 137.351 462.441 132.86 C 470.936 131.188 479.696 129.931 487.895 127.07 C 500.501 122.671 512.121 116.238 525.425 114.002 C 555.645 108.924 640.89 107.622 669.916 114.173 C 683.279 117.189 695.566 124.379 708.747 128.119 C 718.506 130.889 728.902 131.327 738.592 134.243 C 757.682 139.988 804.12 165.473 821.912 177.449 C 867.145 207.897 919.822 260.531 948.249 307.519 C 956.862 321.754 962.746 336.715 969.862 351.626 C 975.201 362.815 983.166 373.039 985.555 385.407 C 987.846 397.263 988.468 408.699 992.437 420.254 C 996.946 433.384 1004.11 445.487 1007.96 458.861 C 1016.96 457.67 1040.85 458.039 1050.9 458.099 C 1071.24 458.22 1096.29 457.055 1116.12 458.887 C 1113.9 472.586 1109.75 486.906 1099.93 497.379 C 1091.13 509.049 1081.18 520.048 1071.87 531.335 C 1040.42 569.475 1005.46 609.384 978.799 651.023 C 958.481 658.332 946.002 656.045 925.372 650.899 C 923.434 638.943 906.187 620.514 898.648 610.127 C 870.778 571.724 838.388 534.317 807.162 498.633 C 796.457 486.112 794.628 475.55 791.043 460.243 C 806.428 457.256 856.509 458.12 874.563 458.212 C 883.566 458.092 893.22 457.323 902.256 456.764 C 903.74 449.659 902.471 448.74 901.714 441.787 C 900.687 415.298 900.595 400.329 884.444 377.489 C 881.097 372.755 877.002 361.881 873.678 356.511 C 843.98 308.538 807.536 273.71 760.358 243.338 C 755.347 240.111 745.152 237.841 739.751 234.55 C 722.189 218.469 706.178 219.541 684.402 213.641 C 674.021 210.828 662.702 201.355 650.37 200.448 C 611.58 197.595 558.962 193.272 522.048 205.721 C 504.105 211.771 495.028 218.663 475.513 221.182 C 456.615 227.903 431.787 244.276 414.511 254.977 C 394.757 269.256 370.747 294.197 349.204 304.094 C 335.659 310.316 317.151 305.429 305.81 295.04 C 301.065 290.655 296.833 285.745 293.196 280.405 C 292.284 268.047 292.218 259.075 293.256 246.66 z" fill="#FFFFFF"></path>
        <path d="M 186.21 590.217 C 165.947 586.351 91.3706 591.299 77.8568 585.809 C 75.5685 582.498 76.2555 583.019 75.838 578.51 C 77.5916 574.02 91.758 559.627 96.0945 554.009 C 111.556 535.17 124.332 514.736 139.966 496.003 C 166.731 463.932 193.103 430.125 220.887 399.027 C 225.297 394.866 236.541 390.072 242.554 391.758 C 263.746 397.702 280.201 429.811 293.903 445.212 C 325.984 481.268 354.299 517.854 382.164 557.04 C 386.544 563.2 392.893 568.595 397.499 574.66 C 400.763 579.027 401.107 578.847 400.448 583.758 C 398.359 586.15 396.178 586.68 392.934 587.013 C 358.35 590.56 322.483 586.695 287.998 590.332 C 286.888 594.013 288.348 594.999 287.802 597.634 C 289.784 611.55 290.883 626.521 294.274 640.12 C 295.861 649.754 305.692 659.151 308.895 667.473 C 316.255 686.601 325.546 698.041 337.263 714.289 C 376.585 768.818 438.026 814.138 503.435 831.266 C 515.296 834.373 527.363 841.503 539.704 843.839 C 561.158 848.014 583.548 847.455 605.323 847.395 C 618.707 846.567 639.142 847.471 651.643 843.722 C 674.039 837.007 696.296 828.486 718.987 822.786 C 728.912 820.292 758.859 801.739 768.491 796.066 C 792.188 782.109 823.117 749.603 849.588 741.891 C 853.848 742.617 857.997 743.565 861.98 745.286 C 877.229 751.876 890.039 765.465 896.003 780.961 C 898.307 786.949 898.876 792.855 896.197 798.806 C 887.925 817.181 839.079 856.675 821.137 868.231 C 804.479 878.961 785.773 887.555 768.037 896.353 C 758.813 900.928 749.665 906.4 740.065 910.114 C 729.664 914.14 717.667 914.007 706.836 916.831 C 697.251 919.33 688.426 924.652 679.192 928.197 C 650.723 939.126 543.279 936.774 512.519 929.224 C 502.551 926.777 493.919 920.224 484.247 916.818 C 473.53 913.044 461.504 913.434 450.587 909.918 C 441.609 907.026 434.012 901.262 425.66 897.078 C 417.434 892.958 408.696 889.753 400.299 885.987 C 347.46 862.286 271.215 782.467 241.089 732.394 C 233.035 719.007 229.024 704.264 222.018 690.519 C 218.612 683.836 212.373 678.567 209.546 671.603 C 204.416 658.964 206.387 644.372 203.035 631.286 C 199.386 617.039 191.425 603.959 186.21 590.217 z" fill="#FFFFFF"></path>
    </g>
</svg>