<?xml version="1.0" encoding="UTF-8"?>
<svg width="24px" height="24px" viewBox="96.5 111.3 766.5 766.5" xmlns="http://www.w3.org/2000/svg">
    <g stroke="none" fill="none" fill-rule="evenodd">
        <path d="M 229.278 428.274 C 220.345 431.087 209.724 433.028 201.037 428.414 C 195.269 425.35 191.59 419.715 189.754 413.573 C 183.55 392.827 189.646 312.841 194.598 289.706 C 197.361 276.798 201.636 264.234 208.088 252.692 C 225.944 220.748 254.345 196.434 289.828 186.42 C 299.548 183.676 309.688 182.14 319.754 181.423 C 366.51 178.095 414.437 180.111 461.345 180.132 C 499.997 180.149 540.285 177.606 578.657 181.934 C 589.925 183.204 601.183 185.766 611.125 191.369 C 638.232 206.647 660.549 233.285 682.155 255.355 L 741.115 315.299 L 790.708 365.561 C 856.391 432.25 853.313 440.991 854.144 532.569 L 854.982 618.399 C 855.281 646.04 857.577 702.741 854.521 727.102 C 852.435 744.448 846.915 761.205 838.282 776.393 C 820.298 808.656 790.121 832.354 754.514 842.176 C 724.089 850.54 664.593 848.635 631.504 848.632 L 502.763 848.626 L 395.022 848.66 C 368.985 848.68 338.582 849.327 312.926 846.33 C 294.671 844.264 277.017 838.552 261.012 829.532 C 228.881 811.132 205.527 780.551 196.236 744.708 C 190.977 725.111 181.752 660.54 192.22 640.91 C 194.552 636.536 200.443 631.193 204.584 628.088 C 212.69 627.794 223.61 625.977 229.827 632.364 C 238.468 641.24 238.784 653.684 239.449 665.298 C 241.05 693.25 237.429 726.072 251.724 751.22 C 263.068 771.178 283.96 788.616 306.011 795.036 C 326.159 800.066 359.183 798.753 380.622 798.749 L 460.193 798.696 L 703.391 798.695 C 736.68 798.43 755.087 795.322 779.818 770.591 C 807.116 743.293 806.834 720.038 807.012 684.161 C 807.237 638.481 802.094 586.261 804.093 541.122 C 797.284 541.268 784.894 540.995 778.473 540.182 L 670.807 540.171 C 620.731 540.215 563.716 547.86 526.38 508.874 C 515.394 497.402 505.295 482.717 501.211 466.939 C 495.154 439.227 496.977 401.501 496.999 372.596 L 497.103 265.614 C 497.25 253.886 497.577 242.161 498.083 230.443 C 460.209 229.51 422.322 229.222 384.438 229.578 C 335.986 229.564 309.732 221.795 269.362 254.551 C 217.116 296.943 257.721 389.29 229.559 427.897 L 229.278 428.274 z M 543.987 230.048 C 569.591 229.725 580.035 227.497 600.857 244.842 C 616.603 257.958 630.079 272.64 644.427 287.248 L 711.181 355.245 L 759.072 403.921 C 769.77 414.798 785.756 430.108 793.914 442.441 C 801.17 453.41 801.179 474.426 802.716 487.848 L 663.551 488.081 C 655.173 488.09 645.943 488.449 637.627 488.107 C 619.637 487.367 594.727 490.338 577.846 484.153 C 545.853 472.432 543.843 436.102 544.247 407.389 C 544.438 393.841 544.247 379.666 544.256 365.887 C 544.495 320.607 544.405 275.326 543.987 230.048 z" fill="#FFFFFF"></path>
        <path d="M 306.755 391.204 C 311.745 389.305 333.398 408.89 337.28 412.89 C 364.174 440.939 392.794 467.428 419.422 495.698 C 442.291 519.978 433.144 542.942 411.651 563.866 C 381.068 593.638 352.265 625.515 320.324 653.743 C 313.888 659.431 296.743 655.829 288.97 654.425 C 287.039 649.138 280.827 633.452 282.505 628.63 C 289.515 608.489 314.352 590.824 328.353 575.581 C 338.311 564.74 345.544 555.412 356.226 547.597 L 356.28 545.853 C 344.978 549.112 335.336 551.079 323.481 551.267 C 274.259 551.846 224.991 551.501 175.755 551.624 C 155.295 551.676 133.425 553.912 116.627 541.311 C 114.956 537.351 114 533.126 113.802 528.833 C 113.091 514.333 117.1 501.472 133.314 500.562 C 154.052 499.399 174.698 499.879 195.467 499.925 C 239.08 500.336 282.696 500.334 326.309 499.918 C 332.541 499.822 343.551 500.1 347.833 495.685 C 347.436 491.434 313.367 461.839 307.219 455.232 C 291.043 437.85 275.937 429.066 286.23 402.426 C 291.881 397.453 299.873 394.302 306.755 391.204 z" fill="#FFFFFF"></path>
    </g>
</svg>