# UVs are stored raw here; the V coordinate is flipped (1-v) at load time.
v -0 -1.13013005 -0
v 0.517108977 0.416763991 -1.07310998
v 1.16140401 0.416763991 -0.264780998
v 0.931137979 0.416763991 0.742933989
v -0.000293999998 0.416763991 1.19120395
v -0.931505024 0.416763991 0.74247402
v -1.161273 0.416763991 -0.265354991
v -0.516578972 0.416763991 -1.07336605
v 0.618188977 0.991851985 -0.492980987
v 0.770861983 0.991851985 0.175951004
v 0.343059987 0.991851985 0.712387979
v -0.34307301 0.991851985 0.712382019
v -0.770865023 0.991851985 0.175937995
v -0.618179977 0.991851985 -0.492991
v 7.0000001e-06 0.991851985 -0.790687978
vt 0 0
vn 0.642499983 -0.569999993 -0.512099981
vn 0.800999999 -0.569999993 0.182999998
vn 0.356299996 -0.569999993 0.7403
vn -0.356700003 -0.569999993 0.740199983
vn -0.801100016 -0.569999993 0.182600006
vn -0.642199993 -0.569999993 -0.512399971
vn 0.000199999995 -0.569999993 -0.82160002
vn 0.600799978 0.639900029 0.479200006
vn 0.389200002 0.441000015 0.808700025
vn -0 0.639900029 0.76849997
vn -0.389600009 0.441000015 0.808499992
vn -0.600799978 0.639900029 0.479099989
vn -0.875100017 0.441000015 0.199499995
vn -0.749199986 0.639900029 -0.171000004
vn -0.701600015 0.441000015 -0.559800029
vn -0.333400011 0.639900029 -0.692399979
vn 0.000199999995 0.441000015 -0.897499979
vn 0.333400011 0.639900029 -0.692399979
vn 0.701900005 0.441000015 -0.559400022
vn 0.749199986 0.639900029 -0.171000004
vn 0.875 0.441000015 0.199900001
vn -0 1 -0
f 2/1/1 3/1/1 1/1/1
f 3/1/2 4/1/2 1/1/2
f 4/1/3 5/1/3 1/1/3
f 5/1/4 6/1/4 1/1/4
f 6/1/5 7/1/5 1/1/5
f 7/1/6 8/1/6 1/1/6
f 8/1/7 2/1/7 1/1/7
f 10/1/8 11/1/8 4/1/8
f 11/1/9 5/1/9 4/1/9
f 11/1/10 12/1/10 5/1/10
f 12/1/11 6/1/11 5/1/11
f 12/1/12 13/1/12 6/1/12
f 13/1/13 7/1/13 6/1/13
f 13/1/14 14/1/14 7/1/14
f 14/1/15 8/1/15 7/1/15
f 14/1/16 15/1/16 8/1/16
f 15/1/17 2/1/17 8/1/17
f 15/1/18 9/1/18 2/1/18
f 9/1/19 3/1/19 2/1/19
f 9/1/20 10/1/20 3/1/20
f 4/1/21 3/1/21 10/1/21
f 10/1/22 14/1/22 12/1/22
f 14/1/22 9/1/22 15/1/22
f 12/1/22 14/1/22 13/1/22
f 10/1/22 12/1/22 11/1/22
f 14/1/22 10/1/22 9/1/22
