<?xml version="1.0" encoding="UTF-8"?>
<svg width="72px" height="72px" viewBox="0 0 72 72" version="1.1" xmlns="http://www.w3.org/2000/svg" xmlns:xlink="http://www.w3.org/1999/xlink">
    <title>General / menu_poll_order</title>
    <g id="General-/-menu_poll_order" stroke="none" fill="none" fill-rule="nonzero">
        <path d="M59.25,22 C59.25,23.2426407 58.2426407,24.25 57,24.25 L15,24.25 C13.7573593,24.25 12.75,23.2426407 12.75,22 C12.75,20.7573593 13.7573593,19.75 15,19.75 L57,19.75 C58.2426407,19.75 59.25,20.7573593 59.25,22 Z M59.25,36.0001 C59.25,37.2427407 58.2426407,38.2501 57,38.2501 L15,38.2501 C13.7573593,38.2501 12.75,37.2427407 12.75,36.0001 C12.75,34.7574593 13.7573593,33.7501 15,33.7501 L57,33.7501 C58.2426407,33.7501 59.25,34.7574593 59.25,36.0001 Z M59.25,50.0002 C59.25,51.2428407 58.2426407,52.2502 57,52.2502 L15,52.2502 C13.7573593,52.2502 12.75,51.2428407 12.75,50.0002 C12.75,48.7575593 13.7573593,47.7502 15,47.7502 L57,47.7502 C58.2426407,47.7502 59.25,48.7575593 59.25,50.0002 Z" id="Shape" fill="#FFFFFF"></path>
    </g>
</svg>