<?xml version="1.0" encoding="UTF-8"?>
<svg width="72px" height="72px" viewBox="0 0 72 72" version="1.1" xmlns="http://www.w3.org/2000/svg" xmlns:xlink="http://www.w3.org/1999/xlink">
    <title>General / outline_poll_attach</title>
    <g id="General-/-outline_poll_attach" stroke="none" fill="none" stroke-linecap="round" stroke-width="4.7">
        <path d="M15.238686,27.5983631 L27.7824856,15.0545635 C35.007185,7.82986412 46.7207371,7.82986412 53.9454365,15.0545635 C61.1701359,22.2792629 61.1701359,33.992815 53.9454365,41.2175144 L37.3646961,57.7982548 C32.2678495,62.8951014 24.0042284,62.8951014 18.9073818,57.7982548 C13.9035223,52.7943953 13.9035223,44.681536 18.9073818,39.6776765 C18.9629866,39.6220717 19.0191022,39.5669799 19.0757213,39.5124082 L36.1473675,23.0580944 C38.8308397,20.47166 43.0808084,20.4755332 45.7595618,23.0668544 C48.3005825,25.5249383 48.367816,29.5775132 45.9097321,32.1185338 C45.8463292,32.1840759 45.7815331,32.2482557 45.7153881,32.3110293 L28.3704571,48.7718787 L28.3704571,48.7718787" id="Attach" stroke="#FFFFFF"></path>
    </g>
</svg>