<?xml version="1.0" encoding="UTF-8"?>
<svg width="72px" height="72px" viewBox="0 0 72 72" version="1.1" xmlns="http://www.w3.org/2000/svg" xmlns:xlink="http://www.w3.org/1999/xlink">
    <title>General / outline_poll_emoji</title>
    <g id="General-/-outline_poll_emoji" stroke="none" fill="none" fill-rule="nonzero">
        <path d="M36,7 C52.0162577,7 65,19.9837423 65,36 C65,52.0162577 52.0162577,65 36,65 C19.9837423,65 7,52.0162577 7,36 C7,19.9837423 19.9837423,7 36,7 Z M36,11.7 C22.5794806,11.7 11.7,22.5794806 11.7,36 C11.7,49.4205194 22.5794806,60.3 36,60.3 C49.4205194,60.3 60.3,49.4205194 60.3,36 C60.3,22.5794806 49.4205194,11.7 36,11.7 Z M48.8529415,40.9299989 C49.8673051,41.6219793 50.1286483,43.0052446 49.4366678,44.0196082 C46.3560807,48.5353937 41.3624832,51.2849169 35.9183931,51.2849169 C30.5877028,51.2849169 25.6851705,48.6491709 22.5874806,44.2887303 C21.8763436,43.2877035 22.1113457,41.8997205 23.1123725,41.1885834 C24.1133994,40.4774464 25.5013824,40.7124485 26.2125194,41.7134754 C28.4917077,44.9217582 32.0564155,46.8382502 35.9183931,46.8382502 C39.8628867,46.8382502 43.4955082,44.8380936 45.7633322,41.5137251 C46.4553127,40.4993615 47.8385779,40.2380184 48.8529415,40.9299989 Z M27.3,26.5266667 C29.1685634,26.5266667 30.6833333,28.474228 30.6833333,30.8766667 C30.6833333,33.2791053 29.1685634,35.2266667 27.3,35.2266667 C25.4314366,35.2266667 23.9166667,33.2791053 23.9166667,30.8766667 C23.9166667,28.474228 25.4314366,26.5266667 27.3,26.5266667 Z M44.7,26.5266667 C46.5685634,26.5266667 48.0833333,28.474228 48.0833333,30.8766667 C48.0833333,33.2791053 46.5685634,35.2266667 44.7,35.2266667 C42.8314366,35.2266667 41.3166667,33.2791053 41.3166667,30.8766667 C41.3166667,28.474228 42.8314366,26.5266667 44.7,26.5266667 Z" id="Shape" fill="#FFFFFF"></path>
    </g>
</svg>