<?xml version="1.0" encoding="UTF-8"?>
<svg width="72px" height="72px" viewBox="0 0 72 72" version="1.1" xmlns="http://www.w3.org/2000/svg" xmlns:xlink="http://www.w3.org/1999/xlink">
    <title>General / outline_poll_add</title>
    <g id="General-/-outline_poll_add" stroke="none" fill="none" fill-rule="nonzero">
        <path d="M36,14.6 C37.3254834,14.6 38.4,15.6745166 38.4,17 L38.4,33.599 L55,33.6 C56.3254834,33.6 57.4,34.6745166 57.4,36 C57.4,37.3254834 56.3254834,38.4 55,38.4 L38.4,38.399 L38.4,55 C38.4,56.3254834 37.3254834,57.4 36,57.4 C34.6745166,57.4 33.6,56.3254834 33.6,55 L33.6,38.399 L17,38.4 C15.6745166,38.4 14.6,37.3254834 14.6,36 C14.6,34.6745166 15.6745166,33.6 17,33.6 L33.6,33.599 L33.6,17 C33.6,15.6745166 34.6745166,14.6 36,14.6 Z" id="Path" fill="#FFFFFF"></path>
    </g>
</svg>