<?xml version="1.0" encoding="UTF-8"?>
<svg width="24px" height="24px" viewBox="-48 0 1608 1608" xmlns="http://www.w3.org/2000/svg">
    <g stroke="none" fill="none" fill-rule="evenodd">
        <path d="M 712.679 309.46 C 994.711 289.885 1239.18 502.726 1258.61 784.767 C 1278.04 1066.81 1065.08 1311.17 783.031 1330.46 C 501.179 1349.74 257.028 1136.96 237.608 855.119 C 218.188 573.276 430.846 329.02 712.679 309.46 z M 967.909 662.173 C 982.124 662.158 990.527 665.946 1001.08 675.338 C 1028.72 699.945 1017.83 725.703 994.865 748.755 C 974.663 769.038 953.972 788.738 933.545 808.699 L 810.286 929.421 L 740.428 998.187 C 725.888 1012.62 712.403 1027.09 696.606 1040.2 C 651.854 1077.33 617.094 1031.61 586.489 1001.07 L 527.05 942.312 C 508.931 924.753 471.682 895.7 479.446 867.346 C 485.714 839.343 512.97 826.729 539.672 834.932 C 557.533 840.419 587.863 875.346 602.47 889.516 C 620.486 906.993 646.727 929.858 658.81 950.449 C 667.709 940.687 681.671 929.352 691.853 919.157 L 813.593 799.487 L 894.751 719.881 C 913.806 701.234 942.629 667.935 967.909 662.173 z" fill="#FFFFFF"></path>
    </g>
</svg>
