<?xml version="1.0" encoding="UTF-8"?>
<svg width="24px" height="24px" viewBox="50 52 1295 1295" xmlns="http://www.w3.org/2000/svg">
    <g stroke="none" fill="none" fill-rule="evenodd">
        <path d="M 694.697 200.371 C 696.934 200.212 699.175 200.111 701.418 200.068 C 745.508 199.473 758.948 257.705 773.748 289.53 C 794.345 333.821 811.886 379.596 832.298 423.998 C 847.934 458.014 855.763 490.419 883.531 517.19 C 903.098 522.497 925.281 521.666 945.47 523.584 C 979.491 526.816 1013.21 532.577 1047.36 534.65 C 1094.94 537.537 1154.44 533.159 1200.16 546.144 C 1216.27 550.718 1226.72 557.474 1234.93 572.371 C 1243.74 588.375 1243.82 603.784 1234.78 619.805 C 1221.66 643.03 1140.48 703.874 1114.65 724.87 C 1095.71 740.263 1077.5 756.481 1058.31 771.588 C 1039.48 786.416 1003.87 810.195 992.189 831.093 C 986.938 840.49 987.593 854.519 988.781 864.808 C 991.499 888.351 999.881 912.529 1005.73 935.545 L 1036.08 1056.49 C 1044.45 1089.37 1059.34 1133.81 1051.47 1167.7 C 1048.56 1176.62 1038.01 1187.14 1030.2 1191.32 C 993.542 1210.99 954.764 1179.59 923.854 1161.35 L 803.61 1090.76 C 776.417 1074.72 745.323 1054.5 716.286 1043.26 C 684.275 1030.88 640.041 1065.58 612.382 1081.18 C 570.231 1104.96 528.855 1131.52 486.309 1154.92 C 470.832 1164.86 454.312 1174.51 438.356 1183.66 C 411.204 1199.23 394.957 1198.04 366.384 1190.13 C 362.056 1180.35 357.375 1175.82 348.47 1170.13 C 344.363 1128.2 354.192 1104.38 364.813 1064.99 C 381.211 1004.18 391.922 938.255 444.589 896.651 C 476.246 871.644 516.54 854.894 552.836 837.24 C 594.367 816.757 636.055 796.593 677.895 776.749 C 690.118 770.929 704.429 761.062 715.04 756.628 C 715.232 747.952 715.281 739.274 715.187 730.597 C 707.969 727.62 697.02 721.113 689.051 721.779 C 660.503 724.166 630.946 728.307 602.422 731.286 C 584.032 733.207 563.84 739.737 545.86 741.351 C 510.314 744.541 476.718 749.761 441.818 756.89 C 382.766 766.871 328.604 752.74 280.295 717.147 C 256.88 699.568 233.837 681.498 211.181 662.951 C 198.898 652.734 185.839 642.705 175.494 630.442 C 168.729 622.423 161.996 612.481 160.511 601.851 C 158.669 588.657 164.684 573.239 172.798 563.003 C 199.402 529.44 316.297 537.298 357.863 534.154 C 387.762 531.893 417.619 527.297 447.464 524.222 C 466.969 522.212 486.818 521.895 506.226 519.397 C 514.431 518.34 518.24 516.514 523.868 510.477 C 530.893 502.942 537.029 493.735 541.909 484.667 C 552.383 465.204 559.981 443.305 568.842 423.011 L 630.739 279.975 C 644.543 248.186 654.976 205.06 694.697 200.371 z" fill="#FFFFFF"></path>
    </g>
</svg>
