<svg width="1200" height="1200" viewBox="0 0 1200 1200" fill="none" xmlns="http://www.w3.org/2000/svg">
<g clip-path="url(#clip0_1177_59)">
<rect width="1200" height="1200" rx="600" fill="black"/>
<path d="M672.345 264.951C664.864 253.017 646.428 260.525 649.404 274.293L763.463 801.88C764.715 807.668 769.833 811.799 775.752 811.799H992.407C1002.29 811.799 1008.31 800.915 1003.06 792.538L672.345 264.951Z" fill="#1ED760"/>
<path d="M623.939 927.397C623.939 939.438 639.222 944.597 646.514 935.018L717.404 841.895C719.631 838.969 720.467 835.214 719.691 831.618L648.801 503.223C645.62 488.487 623.939 490.802 623.939 505.878L623.939 927.397Z" fill="#1ED760"/>
<path d="M526.655 264.951C534.136 253.017 552.572 260.525 549.596 274.293L435.537 801.88C434.285 807.668 429.167 811.799 423.248 811.799H206.593C196.709 811.799 190.69 800.915 195.941 792.538L526.655 264.951Z" fill="#1ED760"/>
<path d="M575.061 927.397C575.061 939.438 559.778 944.597 552.486 935.018L481.596 841.895C479.369 838.969 478.533 835.214 479.309 831.618L550.199 503.223C553.38 488.487 575.061 490.802 575.061 505.878V927.397Z" fill="#1ED760"/>
</g>
<defs>
<clipPath id="clip0_1177_59">
<rect width="1200" height="1200" rx="600" fill="white"/>
</clipPath>
</defs>
</svg>
