<svg width="72" height="72" viewBox="0 0 72 72" fill="none" xmlns="http://www.w3.org/2000/svg">
<path d="M65.0957 43.2571C61.089 59.3287 44.8111 69.1096 28.7376 65.1018C12.6708 61.0951 2.88998 44.8162 6.89846 28.7459C10.9034 12.6726 27.1813 2.89099 43.2498 6.8977C59.3222 10.9044 69.1024 27.1851 65.0953 43.2574L65.0956 43.2571H65.0957Z" fill="#F7931A"/>
<path d="M49.2257 31.7258C49.8228 27.7335 46.7833 25.5875 42.627 24.1558L43.9753 18.7479L40.6833 17.9276L39.3707 23.1932C38.5053 22.9773 37.6165 22.7739 36.7332 22.5723L38.0553 17.2719L34.7653 16.4517L33.4162 21.8579C32.7001 21.6948 31.9967 21.5337 31.3142 21.3639L31.318 21.3469L26.7783 20.2132L25.9026 23.7293C25.9026 23.7293 28.3449 24.2891 28.2935 24.3236C29.6266 24.6563 29.8676 25.5388 29.8276 26.2382L28.2917 32.3992C28.3835 32.4225 28.5026 32.4562 28.634 32.509C28.5241 32.4818 28.4073 32.452 28.286 32.423L26.1332 41.0536C25.9703 41.4586 25.5568 42.0664 24.6248 41.8356C24.6577 41.8834 22.2321 41.2385 22.2321 41.2385L20.5977 45.0068L24.8817 46.0747C25.6786 46.2746 26.4596 46.4837 27.2287 46.6803L25.8665 52.1504L29.1547 52.9706L30.5037 47.5587C31.402 47.8026 32.2738 48.0275 33.1272 48.2395L31.7827 53.626L35.0749 54.4463L36.437 48.9865C42.0505 50.0489 46.2715 49.6206 48.0482 44.5431C49.4798 40.4552 47.9769 38.0972 45.0236 36.5596C47.1746 36.0635 48.7948 34.6488 49.2268 31.7263L49.2258 31.7255L49.2257 31.7258ZM41.7042 42.2729C40.6868 46.3608 33.804 44.151 31.5724 43.5969L33.3802 36.35C35.6116 36.9071 42.7675 38.0095 41.7043 42.2729H41.7042ZM42.7223 31.6666C41.7942 35.385 36.0655 33.4959 34.2072 33.0327L35.8462 26.4602C37.7045 26.9235 43.6891 27.788 42.7226 31.6666H42.7223Z" fill="white"/>
</svg>
