<svg width="80" height="80" viewBox="0 0 80 80" fill="none" xmlns="http://www.w3.org/2000/svg">
<rect width="80" height="80" rx="40" fill="#E83030"/>
<path d="M39.999 27.5657C50.4546 16.7028 63.2343 24.7157 63.2344 36.0149C63.2344 47.3141 53.8952 53.3355 47.0586 58.7249C44.6462 60.6266 42.3226 62.4172 39.999 62.4172C37.6755 62.4172 35.3519 60.6266 32.9395 58.7249C26.1029 53.3355 16.7637 47.3141 16.7637 36.0149C16.7638 24.7157 29.5435 16.7028 39.999 27.5657ZM48.2627 35.677C48.7923 34.089 47.2803 32.5775 45.6924 33.1077L30.1621 38.2932C28.6596 38.7949 28.6067 41.0213 30.0391 41.6975C32.1559 42.6961 34.5207 44.0094 35.9287 45.4172C37.3438 46.8324 38.6704 49.2208 39.6777 51.3528C40.354 52.7834 42.5744 52.728 43.0752 51.2268L48.2627 35.677Z" fill="white"/>
</svg>
