<svg width="72" height="72" viewBox="0 0 72 72" fill="none" xmlns="http://www.w3.org/2000/svg">
<g clip-path="url(#clip0_1491_40)">
<path d="M36 66C52.5686 66 66 52.5686 66 36C66 19.4314 52.5686 6 36 6C19.4314 6 6 19.4314 6 36C6 52.5686 19.4314 66 36 66Z" fill="#0098EA"/>
<path d="M46.2396 22.7437H25.7521C21.9851 22.7437 19.5976 26.807 21.4927 30.0919L34.1369 52.0078C34.962 53.4388 37.0297 53.4388 37.8548 52.0078L50.5015 30.0919C52.3941 26.8123 50.0065 22.7437 46.2422 22.7437H46.2396ZM34.1266 45.4355L31.3729 40.1062L24.7285 28.2226C24.2902 27.462 24.8316 26.4873 25.7495 26.4873H34.124V45.4381L34.1266 45.4355ZM47.258 28.22L40.6162 40.1087L37.8625 45.4355V26.4848H46.237C47.1549 26.4848 47.6963 27.4594 47.258 28.22Z" fill="white"/>
</g>
<defs>
<clipPath id="clip0_1491_40">
<rect width="60" height="60" fill="white" transform="translate(6 6)"/>
</clipPath>
</defs>
</svg>
