<svg width="72" height="72" viewBox="0 0 72 72" fill="none" xmlns="http://www.w3.org/2000/svg">
<path d="M63.2493 24.0756C60.4368 21.4787 56.5462 17.5131 53.3775 14.7007L53.19 14.5694C52.878 14.3189 52.5263 14.1224 52.1494 13.9882C44.5089 12.5632 8.94997 5.91642 8.25623 6.0008C8.06184 6.02802 7.87604 6.0985 7.71249 6.20704L7.53437 6.34767C7.31504 6.57041 7.14845 6.83951 7.04687 7.13516L7 7.25703V7.92265V8.02577C11.0031 19.1725 26.8091 55.6876 29.9216 64.2563C30.1091 64.8375 30.4653 65.9438 31.1309 66H31.2809C31.6372 66 33.1559 63.9938 33.1559 63.9938C33.1559 63.9938 60.3055 31.0692 63.0524 27.563C63.4079 27.1311 63.7218 26.6666 63.9899 26.1755C64.0583 25.7913 64.026 25.396 63.8962 25.028C63.7664 24.66 63.5435 24.3318 63.2493 24.0756ZM40.1214 27.9099L51.7088 18.3006L58.5056 24.563L40.1214 27.9099ZM35.6215 27.2818L15.6718 10.932L47.9495 16.885L35.6215 27.2818ZM37.4215 31.5661L57.8399 28.2755L34.4965 56.4001L37.4215 31.5661ZM12.9624 12.5632L33.9528 30.3755L30.9153 56.4189L12.9624 12.5632Z" fill="#FF060A"/>
</svg>
