<?xml version="1.0" encoding="UTF-8"?>
<svg width="24px" height="24px" viewBox="0.5 -19.2 1077 1077" xmlns="http://www.w3.org/2000/svg">
    <g stroke="none" fill="none" fill-rule="evenodd">
        <path d="M303.314 72.465C413.515 71.208 525.919 72.367 636.298 72.315L736.004 72.283C756.327 72.287 781.534 71.356 801.124 74.378C839.6 81.298 867.351 100.365 885.665 134.43C904.9 170.209 900.374 201.462 900.319 240.711L900.317 331.724L900.349 618.735L900.353 783.032C900.359 808.801 901.154 840.591 899.097 865.942C897.513 885.458 881.959 915.049 868.755 929.405C853.13 946.393 825.158 959.72 802.424 963.889C795.711 965.12 783.493 965.456 776.243 965.778C664.784 967.187 550.915 965.944 439.264 965.981L340.246 966.034C293.165 966.038 251.478 968.821 214.415 933.09C190.149 909.696 178.612 876.499 178.359 843.246C177.975 792.682 178.088 742.042 178.089 691.422L178.086 403.919L178.057 258.055C178.057 243.665 178.472 227.096 178.09 212.924C175.83 129.046 218.092 74.761 303.314 72.464Z M350.665 553.402A21 21 0 0 1 352.988 553.236C380.424 552.664 408.062 553.012 435.522 553.005L592.853 553.048L683.605 552.95C699.992 552.933 716.554 552.683 732.886 553.655C759.375 555.233 776.286 590.221 777.097 613.824C779.356 679.605 776.665 745.642 778.948 811.522C766.032 811.053 745.325 813.58 733.362 811.552C721.126 809.478 700.04 779.511 691.642 769.681A1265 1265 0 0 0 658.05 732.332C651.543 725.556 643.276 717.583 638.824 709.416C624.884 705.889 603.31 703.146 589.827 709.442C579.329 714.344 511.868 775.185 503.807 785.414C501.377 788.497 500.104 792.633 498.819 796.307C484.832 781.345 455.463 749.769 433.81 748.637C411.057 747.448 381.511 788.997 365.029 803.861C347.473 819.694 321.695 814.006 299.969 812.884C300.839 797.884 300.261 777.745 300.236 762.302L300.192 672.182C300.222 651.603 299.737 619.906 304.239 600.307A71.4 71.4 0 0 1 319.875 569.096C329.351 558.222 336.941 554.29 350.665 553.402Z M444.112 623.272C458.683 622.683 468.243 622.696 482.664 624.538C487.288 633.432 495.303 639.395 504.666 642.754C507.987 671.041 511.04 699.108 477.875 709.596C447.259 713.586 439.327 709.866 419.508 686.662C417.213 671.194 418.332 660.658 419.342 645.162C431.76 636.806 435.228 629.908 444.112 623.272Z M393.245 227.274C399.249 227.034 406.199 226.686 412.141 226.974C430.763 227.876 441.487 252.982 447.197 267.896C456.247 291.531 464.112 315.809 473.057 339.554L492.69 392.125C503.46 420.233 507.025 422.704 504.384 453.51C495.92 455.533 485.73 459.198 477.179 461.881C460.767 444.881 452.776 423.155 452.814 399.739C441.253 399.732 428.225 399.122 416.5 398.908A1206 1206 0 0 0 368.346 399.135C349.551 432.765 361.028 444.383 322.861 464.375C317.511 456.341 310.415 450.244 306.003 441.453C309.782 432.612 312.605 419.772 315.827 410.406C326.81 378.472 338.264 346.584 349.817 314.835C357.077 294.882 364.322 273.358 372.722 253.957C375.877 246.67 386.218 230.983 393.245 227.274Z M384.072 351.831C383.529 328.902 390.909 313.508 400.774 293.294C403.082 288.563 407.34 277.367 411.981 275.28C414.07 276.591 414.915 277.752 415.214 280.426C416.698 293.72 418.953 305.655 422.766 318.509C427.314 333.838 435.313 348.253 438.571 363.76C421.576 364.148 404.096 363.654 387.537 364.1C381.924 363.599 369.163 364.142 368.41 357.556C373.157 351.87 379.913 355.769 384.072 351.831Z M605.598 245.381C629.993 244.2 660.37 245.259 685.118 245.022C703.323 244.847 741.504 244.086 757.884 247.275C764.798 258.813 767.135 261.677 779.224 267.437C773.37 275.315 766.9 286.836 760.667 295.697L749.052 296.855C703.327 297.432 657.411 296.855 611.67 296.93C599.333 296.951 586.852 295.777 574.466 295.522C574.466 284.642 573.967 274.336 574.102 263.167L575.036 262.071C584.3 251.319 591.508 246.466 605.598 245.381ZM601.629 398.418C606.026 397.545 647.939 397.475 654.517 397.699C687.175 398.809 729.493 395.668 760.882 399.369C766.303 410.567 769.762 417.303 779.572 425.071C765.141 432.587 758.915 447.188 751.284 448.694C720.501 450.42 687.605 449.377 656.577 449.725C637.198 449.943 615.167 450.186 595.938 448.189C589.117 447.481 580.252 441.217 576.447 435.92C571.36 428.837 574.802 410.495 576.324 401.91C585.726 399.939 592.113 399.089 601.629 398.418Z" fill="#FFFFFF"></path>
    </g>
</svg>